ISO-10303-21;
HEADER;
/* Generated by software containing ST-Developer
 * from STEP Tools, Inc. (www.steptools.com) 
 */
/* OPTION: using custom renumber hook */

FILE_DESCRIPTION(
/* description */ ('STEP AP242',
'CAx-IF Rec.Pracs.---Representation and Presentation of Product Manufa
cturing Information (PMI)---4.0---2014-10-13',
'CAx-IF Rec.Pracs.---3D Tessellated Geometry---0.4---2014-09-14','2;1'),

/* implementation_level */ '2;1');

FILE_NAME(
/* name */ '6887aea831d3086197785142',
/* time_stamp */ '2025-07-28T17:08:56Z',
/* author */ (''),
/* organization */ (''),
/* preprocessor_version */ 'ST-DEVELOPER v20',
/* originating_system */ 'ONSHAPE BY PTC INC, 1.201',
/* authorisation */ '  ');

FILE_SCHEMA (('AP242_MANAGED_MODEL_BASED_3D_ENGINEERING_MIM_LF { 1 0 10303 442 1 1 4 }'));
ENDSEC;

DATA;
#10=SHAPE_REPRESENTATION_RELATIONSHIP('','',#170,#11);
#11=ADVANCED_BREP_SHAPE_REPRESENTATION('',(#168),#284);
#12=CYLINDRICAL_SURFACE('',#178,0.02);
#13=CYLINDRICAL_SURFACE('',#180,0.02);
#14=CYLINDRICAL_SURFACE('',#182,0.021);
#15=CYLINDRICAL_SURFACE('',#187,0.011);
#16=CYLINDRICAL_SURFACE('',#189,0.01);
#17=CYLINDRICAL_SURFACE('',#192,0.011);
#18=ORIENTED_EDGE('',*,*,#42,.F.);
#19=ORIENTED_EDGE('',*,*,#43,.F.);
#20=ORIENTED_EDGE('',*,*,#44,.F.);
#21=ORIENTED_EDGE('',*,*,#45,.F.);
#22=ORIENTED_EDGE('',*,*,#46,.F.);
#23=ORIENTED_EDGE('',*,*,#45,.T.);
#24=ORIENTED_EDGE('',*,*,#43,.T.);
#25=ORIENTED_EDGE('',*,*,#47,.T.);
#26=ORIENTED_EDGE('',*,*,#48,.F.);
#27=ORIENTED_EDGE('',*,*,#49,.T.);
#28=ORIENTED_EDGE('',*,*,#47,.F.);
#29=ORIENTED_EDGE('',*,*,#48,.T.);
#30=ORIENTED_EDGE('',*,*,#46,.T.);
#31=ORIENTED_EDGE('',*,*,#49,.F.);
#32=ORIENTED_EDGE('',*,*,#50,.T.);
#33=ORIENTED_EDGE('',*,*,#44,.T.);
#34=ORIENTED_EDGE('',*,*,#51,.T.);
#35=ORIENTED_EDGE('',*,*,#52,.F.);
#36=ORIENTED_EDGE('',*,*,#42,.T.);
#37=ORIENTED_EDGE('',*,*,#53,.F.);
#38=ORIENTED_EDGE('',*,*,#51,.F.);
#39=ORIENTED_EDGE('',*,*,#53,.T.);
#40=ORIENTED_EDGE('',*,*,#52,.T.);
#41=ORIENTED_EDGE('',*,*,#50,.F.);
#42=EDGE_CURVE('',#54,#54,#66,.T.);
#43=EDGE_CURVE('',#55,#55,#67,.F.);
#44=EDGE_CURVE('',#56,#56,#68,.F.);
#45=EDGE_CURVE('',#57,#57,#69,.T.);
#46=EDGE_CURVE('',#58,#58,#70,.T.);
#47=EDGE_CURVE('',#59,#59,#71,.T.);
#48=EDGE_CURVE('',#60,#60,#72,.T.);
#49=EDGE_CURVE('',#61,#61,#73,.T.);
#50=EDGE_CURVE('',#62,#62,#74,.T.);
#51=EDGE_CURVE('',#63,#63,#75,.T.);
#52=EDGE_CURVE('',#64,#64,#76,.T.);
#53=EDGE_CURVE('',#65,#65,#77,.T.);
#54=VERTEX_POINT('',#249);
#55=VERTEX_POINT('',#251);
#56=VERTEX_POINT('',#254);
#57=VERTEX_POINT('',#256);
#58=VERTEX_POINT('',#259);
#59=VERTEX_POINT('',#262);
#60=VERTEX_POINT('',#265);
#61=VERTEX_POINT('',#267);
#62=VERTEX_POINT('',#272);
#63=VERTEX_POINT('',#275);
#64=VERTEX_POINT('',#277);
#65=VERTEX_POINT('',#280);
#66=CIRCLE('',#173,0.011);
#67=CIRCLE('',#174,0.02);
#68=CIRCLE('',#176,0.011);
#69=CIRCLE('',#177,0.02);
#70=CIRCLE('',#179,0.02);
#71=CIRCLE('',#181,0.02);
#72=CIRCLE('',#183,0.021);
#73=CIRCLE('',#184,0.021);
#74=CIRCLE('',#188,0.011);
#75=CIRCLE('',#190,0.01);
#76=CIRCLE('',#191,0.01);
#77=CIRCLE('',#193,0.011);
#78=EDGE_LOOP('',(#18));
#79=EDGE_LOOP('',(#19));
#80=EDGE_LOOP('',(#20));
#81=EDGE_LOOP('',(#21));
#82=EDGE_LOOP('',(#22));
#83=EDGE_LOOP('',(#23));
#84=EDGE_LOOP('',(#24));
#85=EDGE_LOOP('',(#25));
#86=EDGE_LOOP('',(#26));
#87=EDGE_LOOP('',(#27));
#88=EDGE_LOOP('',(#28));
#89=EDGE_LOOP('',(#29));
#90=EDGE_LOOP('',(#30));
#91=EDGE_LOOP('',(#31));
#92=EDGE_LOOP('',(#32));
#93=EDGE_LOOP('',(#33));
#94=EDGE_LOOP('',(#34));
#95=EDGE_LOOP('',(#35));
#96=EDGE_LOOP('',(#36));
#97=EDGE_LOOP('',(#37));
#98=EDGE_LOOP('',(#38));
#99=EDGE_LOOP('',(#39));
#100=EDGE_LOOP('',(#40));
#101=EDGE_LOOP('',(#41));
#102=FACE_BOUND('',#78,.T.);
#103=FACE_BOUND('',#79,.T.);
#104=FACE_BOUND('',#80,.T.);
#105=FACE_BOUND('',#81,.T.);
#106=FACE_BOUND('',#82,.T.);
#107=FACE_BOUND('',#83,.T.);
#108=FACE_BOUND('',#84,.T.);
#109=FACE_BOUND('',#85,.T.);
#110=FACE_BOUND('',#86,.T.);
#111=FACE_BOUND('',#87,.T.);
#112=FACE_BOUND('',#88,.T.);
#113=FACE_BOUND('',#89,.T.);
#114=FACE_BOUND('',#90,.T.);
#115=FACE_BOUND('',#91,.T.);
#116=FACE_BOUND('',#92,.T.);
#117=FACE_BOUND('',#93,.T.);
#118=FACE_BOUND('',#94,.T.);
#119=FACE_BOUND('',#95,.T.);
#120=FACE_BOUND('',#96,.T.);
#121=FACE_BOUND('',#97,.T.);
#122=FACE_BOUND('',#98,.T.);
#123=FACE_BOUND('',#99,.T.);
#124=FACE_BOUND('',#100,.T.);
#125=FACE_BOUND('',#101,.T.);
#126=PLANE('',#172);
#127=PLANE('',#175);
#128=PLANE('',#185);
#129=PLANE('',#186);
#130=PLANE('',#194);
#131=PLANE('',#195);
#132=OVER_RIDING_STYLED_ITEM('',(#149),#134,#147);
#133=OVER_RIDING_STYLED_ITEM('',(#150),#135,#147);
#134=ADVANCED_FACE('',(#102,#103),#126,.T.);
#135=ADVANCED_FACE('',(#104,#105),#127,.F.);
#136=ADVANCED_FACE('',(#106,#107),#12,.F.);
#137=ADVANCED_FACE('',(#108,#109),#13,.F.);
#138=ADVANCED_FACE('',(#110,#111),#14,.T.);
#139=ADVANCED_FACE('',(#112,#113),#128,.T.);
#140=ADVANCED_FACE('',(#114,#115),#129,.F.);
#141=ADVANCED_FACE('',(#116,#117),#15,.T.);
#142=ADVANCED_FACE('',(#118,#119),#16,.F.);
#143=ADVANCED_FACE('',(#120,#121),#17,.T.);
#144=ADVANCED_FACE('',(#122,#123),#130,.T.);
#145=ADVANCED_FACE('',(#124,#125),#131,.F.);
#146=CLOSED_SHELL('',(#134,#135,#136,#137,#138,#139,#140,#141,#142,#143,
#144,#145));
#147=STYLED_ITEM('',(#148),#168);
#148=PRESENTATION_STYLE_ASSIGNMENT((#151));
#149=PRESENTATION_STYLE_ASSIGNMENT((#152));
#150=PRESENTATION_STYLE_ASSIGNMENT((#153));
#151=SURFACE_STYLE_USAGE(.BOTH.,#154);
#152=SURFACE_STYLE_USAGE(.BOTH.,#155);
#153=SURFACE_STYLE_USAGE(.BOTH.,#156);
#154=SURFACE_SIDE_STYLE('',(#157));
#155=SURFACE_SIDE_STYLE('',(#158));
#156=SURFACE_SIDE_STYLE('',(#159));
#157=SURFACE_STYLE_FILL_AREA(#160);
#158=SURFACE_STYLE_FILL_AREA(#161);
#159=SURFACE_STYLE_FILL_AREA(#162);
#160=FILL_AREA_STYLE('',(#163));
#161=FILL_AREA_STYLE('',(#164));
#162=FILL_AREA_STYLE('',(#165));
#163=FILL_AREA_STYLE_COLOUR('',#166);
#164=FILL_AREA_STYLE_COLOUR('',#167);
#165=FILL_AREA_STYLE_COLOUR('',#167);
#166=COLOUR_RGB('',0.8,0.8,0.8);
#167=COLOUR_RGB('',0.4,0.4,0.4);
#168=MANIFOLD_SOLID_BREP('Part 1',#146);
#169=SHAPE_DEFINITION_REPRESENTATION(#289,#170);
#170=SHAPE_REPRESENTATION('Part 1',(#171),#284);
#171=AXIS2_PLACEMENT_3D('',#246,#196,#197);
#172=AXIS2_PLACEMENT_3D('',#247,#198,#199);
#173=AXIS2_PLACEMENT_3D('',#248,#200,#201);
#174=AXIS2_PLACEMENT_3D('',#250,#202,#203);
#175=AXIS2_PLACEMENT_3D('',#252,#204,#205);
#176=AXIS2_PLACEMENT_3D('',#253,#206,#207);
#177=AXIS2_PLACEMENT_3D('',#255,#208,#209);
#178=AXIS2_PLACEMENT_3D('',#257,#210,#211);
#179=AXIS2_PLACEMENT_3D('',#258,#212,#213);
#180=AXIS2_PLACEMENT_3D('',#260,#214,#215);
#181=AXIS2_PLACEMENT_3D('',#261,#216,#217);
#182=AXIS2_PLACEMENT_3D('',#263,#218,#219);
#183=AXIS2_PLACEMENT_3D('',#264,#220,#221);
#184=AXIS2_PLACEMENT_3D('',#266,#222,#223);
#185=AXIS2_PLACEMENT_3D('',#268,#224,#225);
#186=AXIS2_PLACEMENT_3D('',#269,#226,#227);
#187=AXIS2_PLACEMENT_3D('',#270,#228,#229);
#188=AXIS2_PLACEMENT_3D('',#271,#230,#231);
#189=AXIS2_PLACEMENT_3D('',#273,#232,#233);
#190=AXIS2_PLACEMENT_3D('',#274,#234,#235);
#191=AXIS2_PLACEMENT_3D('',#276,#236,#237);
#192=AXIS2_PLACEMENT_3D('',#278,#238,#239);
#193=AXIS2_PLACEMENT_3D('',#279,#240,#241);
#194=AXIS2_PLACEMENT_3D('',#281,#242,#243);
#195=AXIS2_PLACEMENT_3D('',#282,#244,#245);
#196=DIRECTION('',(0.,0.,1.));
#197=DIRECTION('',(1.,0.,0.));
#198=DIRECTION('',(0.,0.,1.));
#199=DIRECTION('',(1.,0.,0.));
#200=DIRECTION('',(0.,0.,1.));
#201=DIRECTION('',(1.,0.,0.));
#202=DIRECTION('',(0.,0.,1.));
#203=DIRECTION('',(1.,0.,0.));
#204=DIRECTION('',(0.,0.,1.));
#205=DIRECTION('',(1.,0.,0.));
#206=DIRECTION('',(0.,0.,1.));
#207=DIRECTION('',(1.,0.,0.));
#208=DIRECTION('',(0.,0.,1.));
#209=DIRECTION('',(1.,0.,0.));
#210=DIRECTION('',(0.,0.,-1.));
#211=DIRECTION('',(-1.,0.,0.));
#212=DIRECTION('',(0.,0.,1.));
#213=DIRECTION('',(1.,0.,0.));
#214=DIRECTION('',(0.,0.,-1.));
#215=DIRECTION('',(-1.,0.,0.));
#216=DIRECTION('',(0.,0.,1.));
#217=DIRECTION('',(1.,0.,0.));
#218=DIRECTION('',(0.,0.,-1.));
#219=DIRECTION('',(-1.,0.,0.));
#220=DIRECTION('',(0.,0.,1.));
#221=DIRECTION('',(1.,0.,0.));
#222=DIRECTION('',(0.,0.,1.));
#223=DIRECTION('',(1.,0.,0.));
#224=DIRECTION('',(0.,0.,1.));
#225=DIRECTION('',(1.,0.,0.));
#226=DIRECTION('',(0.,0.,1.));
#227=DIRECTION('',(1.,0.,0.));
#228=DIRECTION('',(0.,0.,-1.));
#229=DIRECTION('',(-1.,0.,0.));
#230=DIRECTION('',(0.,0.,1.));
#231=DIRECTION('',(1.,0.,0.));
#232=DIRECTION('',(0.,0.,-1.));
#233=DIRECTION('',(-1.,0.,0.));
#234=DIRECTION('',(0.,0.,1.));
#235=DIRECTION('',(1.,0.,0.));
#236=DIRECTION('',(0.,0.,1.));
#237=DIRECTION('',(1.,0.,0.));
#238=DIRECTION('',(0.,0.,-1.));
#239=DIRECTION('',(-1.,0.,0.));
#240=DIRECTION('',(0.,0.,1.));
#241=DIRECTION('',(1.,0.,0.));
#242=DIRECTION('',(0.,0.,1.));
#243=DIRECTION('',(1.,0.,0.));
#244=DIRECTION('',(0.,0.,1.));
#245=DIRECTION('',(1.,0.,0.));
#246=CARTESIAN_POINT('',(0.,0.,0.));
#247=CARTESIAN_POINT('',(0.,0.,0.0055));
#248=CARTESIAN_POINT('',(0.,6.73555739531044E-19,0.0055));
#249=CARTESIAN_POINT('',(0.011,6.73555739531044E-19,0.0055));
#250=CARTESIAN_POINT('',(0.,1.22464679914735E-18,0.0055));
#251=CARTESIAN_POINT('',(0.02,1.22464679914735E-18,0.0055));
#252=CARTESIAN_POINT('',(0.,0.,-0.0055));
#253=CARTESIAN_POINT('',(0.,6.73555739531044E-19,-0.0055));
#254=CARTESIAN_POINT('',(0.011,6.73555739531044E-19,-0.0055));
#255=CARTESIAN_POINT('',(0.,1.22464679914735E-18,-0.0055));
#256=CARTESIAN_POINT('',(0.02,1.22464679914735E-18,-0.0055));
#257=CARTESIAN_POINT('',(0.,1.22464679914735E-18,0.006));
#258=CARTESIAN_POINT('',(0.,1.22464679914735E-18,-0.006));
#259=CARTESIAN_POINT('',(0.02,1.22464679914735E-18,-0.006));
#260=CARTESIAN_POINT('',(0.,1.22464679914735E-18,0.006));
#261=CARTESIAN_POINT('',(0.,1.22464679914735E-18,0.006));
#262=CARTESIAN_POINT('',(0.02,1.22464679914735E-18,0.006));
#263=CARTESIAN_POINT('',(0.,1.28587913910472E-18,0.006));
#264=CARTESIAN_POINT('',(0.,1.28587913910472E-18,0.006));
#265=CARTESIAN_POINT('',(0.021,1.28587913910472E-18,0.006));
#266=CARTESIAN_POINT('',(0.,1.28587913910472E-18,-0.006));
#267=CARTESIAN_POINT('',(0.021,1.28587913910472E-18,-0.006));
#268=CARTESIAN_POINT('',(0.,0.,0.006));
#269=CARTESIAN_POINT('',(0.,0.,-0.006));
#270=CARTESIAN_POINT('',(0.,6.73555739531044E-19,0.006));
#271=CARTESIAN_POINT('',(0.,6.73555739531044E-19,-0.006));
#272=CARTESIAN_POINT('',(0.011,6.73555739531044E-19,-0.006));
#273=CARTESIAN_POINT('',(0.,6.12323399573677E-19,0.006));
#274=CARTESIAN_POINT('',(0.,6.12323399573677E-19,0.006));
#275=CARTESIAN_POINT('',(0.01,6.12323399573677E-19,0.006));
#276=CARTESIAN_POINT('',(0.,6.12323399573677E-19,-0.006));
#277=CARTESIAN_POINT('',(0.01,6.12323399573677E-19,-0.006));
#278=CARTESIAN_POINT('',(0.,6.73555739531044E-19,0.006));
#279=CARTESIAN_POINT('',(0.,6.73555739531044E-19,0.006));
#280=CARTESIAN_POINT('',(0.011,6.73555739531044E-19,0.006));
#281=CARTESIAN_POINT('',(0.,0.,0.006));
#282=CARTESIAN_POINT('',(0.,0.,-0.006));
#283=MECHANICAL_DESIGN_GEOMETRIC_PRESENTATION_REPRESENTATION('',(#147,#132,
#133),#284);
#284=(
GEOMETRIC_REPRESENTATION_CONTEXT(3)
GLOBAL_UNCERTAINTY_ASSIGNED_CONTEXT((#285))
GLOBAL_UNIT_ASSIGNED_CONTEXT((#288,#287,#286))
REPRESENTATION_CONTEXT('Part 1','TOP_LEVEL_ASSEMBLY_PART')
);
#285=UNCERTAINTY_MEASURE_WITH_UNIT(LENGTH_MEASURE(1.E-8),#288,
'DISTANCE_ACCURACY_VALUE','Maximum Tolerance applied to model');
#286=(
NAMED_UNIT(*)
SI_UNIT($,.STERADIAN.)
SOLID_ANGLE_UNIT()
);
#287=(
NAMED_UNIT(*)
PLANE_ANGLE_UNIT()
SI_UNIT($,.RADIAN.)
);
#288=(
LENGTH_UNIT()
NAMED_UNIT(*)
SI_UNIT($,.METRE.)
);
#289=PRODUCT_DEFINITION_SHAPE('','',#290);
#290=PRODUCT_DEFINITION('','',#292,#291);
#291=PRODUCT_DEFINITION_CONTEXT('',#298,'design');
#292=PRODUCT_DEFINITION_FORMATION_WITH_SPECIFIED_SOURCE('','',#294,
 .NOT_KNOWN.);
#293=PRODUCT_RELATED_PRODUCT_CATEGORY('','',(#294));
#294=PRODUCT('Part 1','Part 1','Part 1',(#296));
#295=PRODUCT_CATEGORY('','');
#296=PRODUCT_CONTEXT('',#298,'mechanical');
#297=APPLICATION_PROTOCOL_DEFINITION('international standard',
'ap242_managed_model_based_3d_engineering',2011,#298);
#298=APPLICATION_CONTEXT('managed model based 3d engineering');
ENDSEC;
END-ISO-10303-21;
