ISO-10303-21;
HEADER;
/* Generated by software containing ST-Developer
 * from STEP Tools, Inc. (www.steptools.com) 
 */
/* OPTION: using custom renumber hook */

FILE_DESCRIPTION(
/* description */ ('STEP AP242',
'CAx-IF Rec.Pracs.---Representation and Presentation of Product Manufa
cturing Information (PMI)---4.0---2014-10-13',
'CAx-IF Rec.Pracs.---3D Tessellated Geometry---0.4---2014-09-14','2;1'),

/* implementation_level */ '2;1');

FILE_NAME(
/* name */ '6887aed1aacd4a3391c037a8',
/* time_stamp */ '2025-07-28T17:09:37Z',
/* author */ (''),
/* organization */ (''),
/* preprocessor_version */ 'ST-DEVELOPER v20',
/* originating_system */ 'ONSHAPE BY PTC INC, 1.201',
/* authorisation */ '  ');

FILE_SCHEMA (('AP242_MANAGED_MODEL_BASED_3D_ENGINEERING_MIM_LF { 1 0 10303 442 1 1 4 }'));
ENDSEC;

DATA;
#10=SHAPE_REPRESENTATION_RELATIONSHIP('','',#619,#11);
#11=ADVANCED_BREP_SHAPE_REPRESENTATION('',(#617),#1033);
#12=ELLIPSE('',#665,0.00282842712474619,0.002);
#13=ELLIPSE('',#666,0.00282842712474619,0.002);
#14=ELLIPSE('',#668,0.00282842712474619,0.002);
#15=ELLIPSE('',#670,0.00282842712474619,0.002);
#16=CYLINDRICAL_SURFACE('',#636,0.002);
#17=CYLINDRICAL_SURFACE('',#639,0.0026);
#18=CYLINDRICAL_SURFACE('',#642,0.0026);
#19=CYLINDRICAL_SURFACE('',#645,0.002);
#20=CYLINDRICAL_SURFACE('',#647,0.002);
#21=CYLINDRICAL_SURFACE('',#650,0.0026);
#22=CYLINDRICAL_SURFACE('',#653,0.0026);
#23=CYLINDRICAL_SURFACE('',#656,0.002);
#24=CYLINDRICAL_SURFACE('',#664,0.002);
#25=CYLINDRICAL_SURFACE('',#667,0.002);
#26=CYLINDRICAL_SURFACE('',#669,0.002);
#27=CYLINDRICAL_SURFACE('',#671,0.002);
#28=CYLINDRICAL_SURFACE('',#672,0.003);
#29=CYLINDRICAL_SURFACE('',#674,0.0105);
#30=CIRCLE('',#622,0.002);
#31=CIRCLE('',#623,0.0026);
#32=CIRCLE('',#624,0.0026);
#33=CIRCLE('',#625,0.002);
#34=CIRCLE('',#632,0.002);
#35=CIRCLE('',#633,0.0026);
#36=CIRCLE('',#634,0.0026);
#37=CIRCLE('',#635,0.002);
#38=CIRCLE('',#637,0.002);
#39=CIRCLE('',#640,0.0026);
#40=CIRCLE('',#643,0.0026);
#41=CIRCLE('',#646,0.002);
#42=CIRCLE('',#648,0.002);
#43=CIRCLE('',#651,0.0026);
#44=CIRCLE('',#654,0.0026);
#45=CIRCLE('',#657,0.002);
#46=CIRCLE('',#663,0.003);
#47=CIRCLE('',#673,0.003);
#48=CIRCLE('',#675,0.0105);
#49=CIRCLE('',#676,0.0105);
#50=ORIENTED_EDGE('',*,*,#218,.T.);
#51=ORIENTED_EDGE('',*,*,#219,.T.);
#52=ORIENTED_EDGE('',*,*,#220,.F.);
#53=ORIENTED_EDGE('',*,*,#221,.T.);
#54=ORIENTED_EDGE('',*,*,#222,.F.);
#55=ORIENTED_EDGE('',*,*,#223,.T.);
#56=ORIENTED_EDGE('',*,*,#224,.F.);
#57=ORIENTED_EDGE('',*,*,#225,.F.);
#58=ORIENTED_EDGE('',*,*,#226,.F.);
#59=ORIENTED_EDGE('',*,*,#227,.T.);
#60=ORIENTED_EDGE('',*,*,#228,.T.);
#61=ORIENTED_EDGE('',*,*,#229,.F.);
#62=ORIENTED_EDGE('',*,*,#230,.F.);
#63=ORIENTED_EDGE('',*,*,#231,.T.);
#64=ORIENTED_EDGE('',*,*,#232,.F.);
#65=ORIENTED_EDGE('',*,*,#233,.T.);
#66=ORIENTED_EDGE('',*,*,#234,.T.);
#67=ORIENTED_EDGE('',*,*,#235,.T.);
#68=ORIENTED_EDGE('',*,*,#236,.T.);
#69=ORIENTED_EDGE('',*,*,#237,.F.);
#70=ORIENTED_EDGE('',*,*,#229,.T.);
#71=ORIENTED_EDGE('',*,*,#238,.F.);
#72=ORIENTED_EDGE('',*,*,#239,.F.);
#73=ORIENTED_EDGE('',*,*,#240,.F.);
#74=ORIENTED_EDGE('',*,*,#241,.F.);
#75=ORIENTED_EDGE('',*,*,#220,.T.);
#76=ORIENTED_EDGE('',*,*,#242,.F.);
#77=ORIENTED_EDGE('',*,*,#243,.F.);
#78=ORIENTED_EDGE('',*,*,#244,.T.);
#79=ORIENTED_EDGE('',*,*,#239,.T.);
#80=ORIENTED_EDGE('',*,*,#245,.F.);
#81=ORIENTED_EDGE('',*,*,#246,.T.);
#82=ORIENTED_EDGE('',*,*,#247,.T.);
#83=ORIENTED_EDGE('',*,*,#218,.F.);
#84=ORIENTED_EDGE('',*,*,#248,.T.);
#85=ORIENTED_EDGE('',*,*,#249,.T.);
#86=ORIENTED_EDGE('',*,*,#243,.T.);
#87=ORIENTED_EDGE('',*,*,#250,.T.);
#88=ORIENTED_EDGE('',*,*,#231,.F.);
#89=ORIENTED_EDGE('',*,*,#251,.T.);
#90=ORIENTED_EDGE('',*,*,#252,.F.);
#91=ORIENTED_EDGE('',*,*,#253,.F.);
#92=ORIENTED_EDGE('',*,*,#228,.F.);
#93=ORIENTED_EDGE('',*,*,#250,.F.);
#94=ORIENTED_EDGE('',*,*,#242,.T.);
#95=ORIENTED_EDGE('',*,*,#238,.T.);
#96=ORIENTED_EDGE('',*,*,#251,.F.);
#97=ORIENTED_EDGE('',*,*,#230,.T.);
#98=ORIENTED_EDGE('',*,*,#237,.T.);
#99=ORIENTED_EDGE('',*,*,#254,.F.);
#100=ORIENTED_EDGE('',*,*,#255,.F.);
#101=ORIENTED_EDGE('',*,*,#256,.F.);
#102=ORIENTED_EDGE('',*,*,#257,.F.);
#103=ORIENTED_EDGE('',*,*,#258,.T.);
#104=ORIENTED_EDGE('',*,*,#259,.F.);
#105=ORIENTED_EDGE('',*,*,#260,.F.);
#106=ORIENTED_EDGE('',*,*,#261,.T.);
#107=ORIENTED_EDGE('',*,*,#262,.F.);
#108=ORIENTED_EDGE('',*,*,#221,.F.);
#109=ORIENTED_EDGE('',*,*,#241,.T.);
#110=ORIENTED_EDGE('',*,*,#263,.F.);
#111=ORIENTED_EDGE('',*,*,#264,.F.);
#112=ORIENTED_EDGE('',*,*,#222,.T.);
#113=ORIENTED_EDGE('',*,*,#262,.T.);
#114=ORIENTED_EDGE('',*,*,#265,.T.);
#115=ORIENTED_EDGE('',*,*,#266,.F.);
#116=ORIENTED_EDGE('',*,*,#223,.F.);
#117=ORIENTED_EDGE('',*,*,#264,.T.);
#118=ORIENTED_EDGE('',*,*,#267,.F.);
#119=ORIENTED_EDGE('',*,*,#268,.F.);
#120=ORIENTED_EDGE('',*,*,#224,.T.);
#121=ORIENTED_EDGE('',*,*,#266,.T.);
#122=ORIENTED_EDGE('',*,*,#269,.F.);
#123=ORIENTED_EDGE('',*,*,#270,.F.);
#124=ORIENTED_EDGE('',*,*,#225,.T.);
#125=ORIENTED_EDGE('',*,*,#268,.T.);
#126=ORIENTED_EDGE('',*,*,#271,.F.);
#127=ORIENTED_EDGE('',*,*,#272,.F.);
#128=ORIENTED_EDGE('',*,*,#226,.T.);
#129=ORIENTED_EDGE('',*,*,#270,.T.);
#130=ORIENTED_EDGE('',*,*,#273,.T.);
#131=ORIENTED_EDGE('',*,*,#248,.F.);
#132=ORIENTED_EDGE('',*,*,#227,.F.);
#133=ORIENTED_EDGE('',*,*,#272,.T.);
#134=ORIENTED_EDGE('',*,*,#260,.T.);
#135=ORIENTED_EDGE('',*,*,#274,.F.);
#136=ORIENTED_EDGE('',*,*,#275,.F.);
#137=ORIENTED_EDGE('',*,*,#252,.T.);
#138=ORIENTED_EDGE('',*,*,#259,.T.);
#139=ORIENTED_EDGE('',*,*,#276,.F.);
#140=ORIENTED_EDGE('',*,*,#277,.F.);
#141=ORIENTED_EDGE('',*,*,#274,.T.);
#142=ORIENTED_EDGE('',*,*,#258,.F.);
#143=ORIENTED_EDGE('',*,*,#278,.F.);
#144=ORIENTED_EDGE('',*,*,#279,.T.);
#145=ORIENTED_EDGE('',*,*,#276,.T.);
#146=ORIENTED_EDGE('',*,*,#257,.T.);
#147=ORIENTED_EDGE('',*,*,#280,.F.);
#148=ORIENTED_EDGE('',*,*,#281,.F.);
#149=ORIENTED_EDGE('',*,*,#278,.T.);
#150=ORIENTED_EDGE('',*,*,#256,.T.);
#151=ORIENTED_EDGE('',*,*,#282,.F.);
#152=ORIENTED_EDGE('',*,*,#283,.F.);
#153=ORIENTED_EDGE('',*,*,#280,.T.);
#154=ORIENTED_EDGE('',*,*,#255,.T.);
#155=ORIENTED_EDGE('',*,*,#284,.F.);
#156=ORIENTED_EDGE('',*,*,#285,.F.);
#157=ORIENTED_EDGE('',*,*,#282,.T.);
#158=ORIENTED_EDGE('',*,*,#254,.T.);
#159=ORIENTED_EDGE('',*,*,#236,.F.);
#160=ORIENTED_EDGE('',*,*,#286,.F.);
#161=ORIENTED_EDGE('',*,*,#284,.T.);
#162=ORIENTED_EDGE('',*,*,#287,.F.);
#163=ORIENTED_EDGE('',*,*,#253,.T.);
#164=ORIENTED_EDGE('',*,*,#275,.T.);
#165=ORIENTED_EDGE('',*,*,#277,.T.);
#166=ORIENTED_EDGE('',*,*,#279,.F.);
#167=ORIENTED_EDGE('',*,*,#281,.T.);
#168=ORIENTED_EDGE('',*,*,#283,.T.);
#169=ORIENTED_EDGE('',*,*,#285,.T.);
#170=ORIENTED_EDGE('',*,*,#286,.T.);
#171=ORIENTED_EDGE('',*,*,#235,.F.);
#172=ORIENTED_EDGE('',*,*,#244,.F.);
#173=ORIENTED_EDGE('',*,*,#249,.F.);
#174=ORIENTED_EDGE('',*,*,#273,.F.);
#175=ORIENTED_EDGE('',*,*,#271,.T.);
#176=ORIENTED_EDGE('',*,*,#269,.T.);
#177=ORIENTED_EDGE('',*,*,#267,.T.);
#178=ORIENTED_EDGE('',*,*,#265,.F.);
#179=ORIENTED_EDGE('',*,*,#263,.T.);
#180=ORIENTED_EDGE('',*,*,#261,.F.);
#181=ORIENTED_EDGE('',*,*,#240,.T.);
#182=ORIENTED_EDGE('',*,*,#247,.F.);
#183=ORIENTED_EDGE('',*,*,#288,.T.);
#184=ORIENTED_EDGE('',*,*,#232,.T.);
#185=ORIENTED_EDGE('',*,*,#219,.F.);
#186=ORIENTED_EDGE('',*,*,#234,.F.);
#187=ORIENTED_EDGE('',*,*,#289,.T.);
#188=ORIENTED_EDGE('',*,*,#245,.T.);
#189=ORIENTED_EDGE('',*,*,#287,.T.);
#190=ORIENTED_EDGE('',*,*,#290,.F.);
#191=ORIENTED_EDGE('',*,*,#291,.T.);
#192=ORIENTED_EDGE('',*,*,#292,.T.);
#193=ORIENTED_EDGE('',*,*,#293,.T.);
#194=ORIENTED_EDGE('',*,*,#294,.T.);
#195=ORIENTED_EDGE('',*,*,#295,.F.);
#196=ORIENTED_EDGE('',*,*,#294,.F.);
#197=ORIENTED_EDGE('',*,*,#296,.F.);
#198=ORIENTED_EDGE('',*,*,#246,.F.);
#199=ORIENTED_EDGE('',*,*,#296,.T.);
#200=ORIENTED_EDGE('',*,*,#293,.F.);
#201=ORIENTED_EDGE('',*,*,#297,.F.);
#202=ORIENTED_EDGE('',*,*,#288,.F.);
#203=ORIENTED_EDGE('',*,*,#295,.T.);
#204=ORIENTED_EDGE('',*,*,#289,.F.);
#205=ORIENTED_EDGE('',*,*,#298,.F.);
#206=ORIENTED_EDGE('',*,*,#291,.F.);
#207=ORIENTED_EDGE('',*,*,#297,.T.);
#208=ORIENTED_EDGE('',*,*,#292,.F.);
#209=ORIENTED_EDGE('',*,*,#298,.T.);
#210=ORIENTED_EDGE('',*,*,#233,.F.);
#211=ORIENTED_EDGE('',*,*,#299,.F.);
#212=ORIENTED_EDGE('',*,*,#290,.T.);
#213=ORIENTED_EDGE('',*,*,#300,.F.);
#214=ORIENTED_EDGE('',*,*,#301,.T.);
#215=ORIENTED_EDGE('',*,*,#300,.T.);
#216=ORIENTED_EDGE('',*,*,#299,.T.);
#217=ORIENTED_EDGE('',*,*,#301,.F.);
#218=EDGE_CURVE('',#302,#303,#358,.T.);
#219=EDGE_CURVE('',#303,#304,#359,.T.);
#220=EDGE_CURVE('',#305,#304,#360,.T.);
#221=EDGE_CURVE('',#305,#306,#30,.T.);
#222=EDGE_CURVE('',#307,#306,#361,.T.);
#223=EDGE_CURVE('',#307,#308,#31,.T.);
#224=EDGE_CURVE('',#309,#308,#362,.T.);
#225=EDGE_CURVE('',#310,#309,#32,.T.);
#226=EDGE_CURVE('',#311,#310,#363,.T.);
#227=EDGE_CURVE('',#311,#302,#33,.T.);
#228=EDGE_CURVE('',#312,#313,#364,.T.);
#229=EDGE_CURVE('',#314,#313,#365,.T.);
#230=EDGE_CURVE('',#315,#314,#366,.T.);
#231=EDGE_CURVE('',#315,#312,#367,.T.);
#232=EDGE_CURVE('',#316,#304,#368,.T.);
#233=EDGE_CURVE('',#316,#317,#369,.T.);
#234=EDGE_CURVE('',#317,#318,#370,.T.);
#235=EDGE_CURVE('',#318,#319,#371,.T.);
#236=EDGE_CURVE('',#319,#320,#372,.T.);
#237=EDGE_CURVE('',#314,#320,#373,.T.);
#238=EDGE_CURVE('',#321,#313,#374,.T.);
#239=EDGE_CURVE('',#322,#321,#375,.T.);
#240=EDGE_CURVE('',#323,#322,#376,.T.);
#241=EDGE_CURVE('',#305,#323,#377,.T.);
#242=EDGE_CURVE('',#324,#321,#378,.T.);
#243=EDGE_CURVE('',#325,#324,#379,.T.);
#244=EDGE_CURVE('',#325,#322,#380,.T.);
#245=EDGE_CURVE('',#326,#327,#381,.T.);
#246=EDGE_CURVE('',#326,#328,#382,.F.);
#247=EDGE_CURVE('',#328,#303,#383,.T.);
#248=EDGE_CURVE('',#302,#329,#384,.T.);
#249=EDGE_CURVE('',#329,#325,#385,.T.);
#250=EDGE_CURVE('',#324,#312,#386,.T.);
#251=EDGE_CURVE('',#315,#330,#387,.T.);
#252=EDGE_CURVE('',#331,#330,#388,.T.);
#253=EDGE_CURVE('',#327,#331,#389,.T.);
#254=EDGE_CURVE('',#332,#320,#34,.T.);
#255=EDGE_CURVE('',#333,#332,#390,.T.);
#256=EDGE_CURVE('',#334,#333,#35,.T.);
#257=EDGE_CURVE('',#335,#334,#391,.T.);
#258=EDGE_CURVE('',#335,#336,#36,.T.);
#259=EDGE_CURVE('',#337,#336,#392,.T.);
#260=EDGE_CURVE('',#330,#337,#37,.T.);
#261=EDGE_CURVE('',#323,#338,#38,.T.);
#262=EDGE_CURVE('',#306,#338,#393,.T.);
#263=EDGE_CURVE('',#339,#338,#394,.T.);
#264=EDGE_CURVE('',#307,#339,#395,.T.);
#265=EDGE_CURVE('',#339,#340,#39,.T.);
#266=EDGE_CURVE('',#308,#340,#396,.T.);
#267=EDGE_CURVE('',#341,#340,#397,.T.);
#268=EDGE_CURVE('',#309,#341,#398,.T.);
#269=EDGE_CURVE('',#342,#341,#40,.T.);
#270=EDGE_CURVE('',#310,#342,#399,.T.);
#271=EDGE_CURVE('',#343,#342,#400,.T.);
#272=EDGE_CURVE('',#311,#343,#401,.T.);
#273=EDGE_CURVE('',#343,#329,#41,.T.);
#274=EDGE_CURVE('',#344,#337,#402,.T.);
#275=EDGE_CURVE('',#331,#344,#42,.T.);
#276=EDGE_CURVE('',#345,#336,#403,.T.);
#277=EDGE_CURVE('',#344,#345,#404,.T.);
#278=EDGE_CURVE('',#346,#335,#405,.T.);
#279=EDGE_CURVE('',#346,#345,#43,.T.);
#280=EDGE_CURVE('',#347,#334,#406,.T.);
#281=EDGE_CURVE('',#346,#347,#407,.T.);
#282=EDGE_CURVE('',#348,#333,#408,.T.);
#283=EDGE_CURVE('',#347,#348,#44,.T.);
#284=EDGE_CURVE('',#349,#332,#409,.T.);
#285=EDGE_CURVE('',#348,#349,#410,.T.);
#286=EDGE_CURVE('',#349,#319,#45,.T.);
#287=EDGE_CURVE('',#327,#318,#411,.T.);
#288=EDGE_CURVE('',#328,#316,#412,.T.);
#289=EDGE_CURVE('',#317,#326,#413,.F.);
#290=EDGE_CURVE('',#350,#350,#46,.T.);
#291=EDGE_CURVE('',#351,#352,#414,.T.);
#292=EDGE_CURVE('',#352,#353,#415,.F.);
#293=EDGE_CURVE('',#353,#354,#416,.F.);
#294=EDGE_CURVE('',#354,#351,#417,.T.);
#295=EDGE_CURVE('',#351,#326,#12,.F.);
#296=EDGE_CURVE('',#328,#354,#13,.T.);
#297=EDGE_CURVE('',#316,#353,#14,.T.);
#298=EDGE_CURVE('',#352,#317,#15,.F.);
#299=EDGE_CURVE('',#355,#355,#47,.T.);
#300=EDGE_CURVE('',#356,#356,#48,.T.);
#301=EDGE_CURVE('',#357,#357,#49,.T.);
#302=VERTEX_POINT('',#860);
#303=VERTEX_POINT('',#861);
#304=VERTEX_POINT('',#863);
#305=VERTEX_POINT('',#865);
#306=VERTEX_POINT('',#867);
#307=VERTEX_POINT('',#869);
#308=VERTEX_POINT('',#871);
#309=VERTEX_POINT('',#873);
#310=VERTEX_POINT('',#875);
#311=VERTEX_POINT('',#877);
#312=VERTEX_POINT('',#881);
#313=VERTEX_POINT('',#882);
#314=VERTEX_POINT('',#884);
#315=VERTEX_POINT('',#886);
#316=VERTEX_POINT('',#890);
#317=VERTEX_POINT('',#892);
#318=VERTEX_POINT('',#894);
#319=VERTEX_POINT('',#896);
#320=VERTEX_POINT('',#898);
#321=VERTEX_POINT('',#901);
#322=VERTEX_POINT('',#903);
#323=VERTEX_POINT('',#905);
#324=VERTEX_POINT('',#909);
#325=VERTEX_POINT('',#911);
#326=VERTEX_POINT('',#915);
#327=VERTEX_POINT('',#916);
#328=VERTEX_POINT('',#918);
#329=VERTEX_POINT('',#921);
#330=VERTEX_POINT('',#925);
#331=VERTEX_POINT('',#927);
#332=VERTEX_POINT('',#932);
#333=VERTEX_POINT('',#934);
#334=VERTEX_POINT('',#936);
#335=VERTEX_POINT('',#938);
#336=VERTEX_POINT('',#940);
#337=VERTEX_POINT('',#942);
#338=VERTEX_POINT('',#946);
#339=VERTEX_POINT('',#950);
#340=VERTEX_POINT('',#954);
#341=VERTEX_POINT('',#958);
#342=VERTEX_POINT('',#962);
#343=VERTEX_POINT('',#966);
#344=VERTEX_POINT('',#972);
#345=VERTEX_POINT('',#976);
#346=VERTEX_POINT('',#980);
#347=VERTEX_POINT('',#984);
#348=VERTEX_POINT('',#988);
#349=VERTEX_POINT('',#992);
#350=VERTEX_POINT('',#1005);
#351=VERTEX_POINT('',#1007);
#352=VERTEX_POINT('',#1008);
#353=VERTEX_POINT('',#1010);
#354=VERTEX_POINT('',#1012);
#355=VERTEX_POINT('',#1024);
#356=VERTEX_POINT('',#1027);
#357=VERTEX_POINT('',#1029);
#358=LINE('',#859,#418);
#359=LINE('',#862,#419);
#360=LINE('',#864,#420);
#361=LINE('',#868,#421);
#362=LINE('',#872,#422);
#363=LINE('',#876,#423);
#364=LINE('',#880,#424);
#365=LINE('',#883,#425);
#366=LINE('',#885,#426);
#367=LINE('',#887,#427);
#368=LINE('',#889,#428);
#369=LINE('',#891,#429);
#370=LINE('',#893,#430);
#371=LINE('',#895,#431);
#372=LINE('',#897,#432);
#373=LINE('',#899,#433);
#374=LINE('',#900,#434);
#375=LINE('',#902,#435);
#376=LINE('',#904,#436);
#377=LINE('',#906,#437);
#378=LINE('',#908,#438);
#379=LINE('',#910,#439);
#380=LINE('',#912,#440);
#381=LINE('',#914,#441);
#382=LINE('',#917,#442);
#383=LINE('',#919,#443);
#384=LINE('',#920,#444);
#385=LINE('',#922,#445);
#386=LINE('',#923,#446);
#387=LINE('',#924,#447);
#388=LINE('',#926,#448);
#389=LINE('',#928,#449);
#390=LINE('',#933,#450);
#391=LINE('',#937,#451);
#392=LINE('',#941,#452);
#393=LINE('',#947,#453);
#394=LINE('',#949,#454);
#395=LINE('',#951,#455);
#396=LINE('',#955,#456);
#397=LINE('',#957,#457);
#398=LINE('',#959,#458);
#399=LINE('',#963,#459);
#400=LINE('',#965,#460);
#401=LINE('',#967,#461);
#402=LINE('',#971,#462);
#403=LINE('',#975,#463);
#404=LINE('',#977,#464);
#405=LINE('',#979,#465);
#406=LINE('',#983,#466);
#407=LINE('',#985,#467);
#408=LINE('',#987,#468);
#409=LINE('',#991,#469);
#410=LINE('',#993,#470);
#411=LINE('',#997,#471);
#412=LINE('',#1000,#472);
#413=LINE('',#1002,#473);
#414=LINE('',#1006,#474);
#415=LINE('',#1009,#475);
#416=LINE('',#1011,#476);
#417=LINE('',#1013,#477);
#418=VECTOR('',#683,1.);
#419=VECTOR('',#684,1.);
#420=VECTOR('',#685,1.);
#421=VECTOR('',#688,1.);
#422=VECTOR('',#691,1.);
#423=VECTOR('',#694,1.);
#424=VECTOR('',#699,1.);
#425=VECTOR('',#700,1.);
#426=VECTOR('',#701,1.);
#427=VECTOR('',#702,1.);
#428=VECTOR('',#705,1.);
#429=VECTOR('',#706,1.);
#430=VECTOR('',#707,1.);
#431=VECTOR('',#708,1.);
#432=VECTOR('',#709,1.);
#433=VECTOR('',#710,1.);
#434=VECTOR('',#711,1.);
#435=VECTOR('',#712,1.);
#436=VECTOR('',#713,1.);
#437=VECTOR('',#714,1.);
#438=VECTOR('',#717,1.);
#439=VECTOR('',#718,1.);
#440=VECTOR('',#719,1.);
#441=VECTOR('',#722,1.);
#442=VECTOR('',#723,1.);
#443=VECTOR('',#724,1.);
#444=VECTOR('',#725,1.);
#445=VECTOR('',#726,1.);
#446=VECTOR('',#727,1.);
#447=VECTOR('',#728,1.);
#448=VECTOR('',#729,1.);
#449=VECTOR('',#730,1.);
#450=VECTOR('',#737,1.);
#451=VECTOR('',#740,1.);
#452=VECTOR('',#743,1.);
#453=VECTOR('',#750,1.);
#454=VECTOR('',#753,1.);
#455=VECTOR('',#754,1.);
#456=VECTOR('',#759,1.);
#457=VECTOR('',#762,1.);
#458=VECTOR('',#763,1.);
#459=VECTOR('',#768,1.);
#460=VECTOR('',#771,1.);
#461=VECTOR('',#772,1.);
#462=VECTOR('',#779,1.);
#463=VECTOR('',#784,1.);
#464=VECTOR('',#785,1.);
#465=VECTOR('',#788,1.);
#466=VECTOR('',#793,1.);
#467=VECTOR('',#794,1.);
#468=VECTOR('',#797,1.);
#469=VECTOR('',#802,1.);
#470=VECTOR('',#803,1.);
#471=VECTOR('',#810,1.);
#472=VECTOR('',#815,1.);
#473=VECTOR('',#818,1.);
#474=VECTOR('',#823,1.);
#475=VECTOR('',#824,1.);
#476=VECTOR('',#825,1.);
#477=VECTOR('',#826,1.);
#478=EDGE_LOOP('',(#50,#51,#52,#53,#54,#55,#56,#57,#58,#59));
#479=EDGE_LOOP('',(#60,#61,#62,#63));
#480=EDGE_LOOP('',(#64,#65,#66,#67,#68,#69,#70,#71,#72,#73,#74,#75));
#481=EDGE_LOOP('',(#76,#77,#78,#79));
#482=EDGE_LOOP('',(#80,#81,#82,#83,#84,#85,#86,#87,#88,#89,#90,#91));
#483=EDGE_LOOP('',(#92,#93,#94,#95));
#484=EDGE_LOOP('',(#96,#97,#98,#99,#100,#101,#102,#103,#104,#105));
#485=EDGE_LOOP('',(#106,#107,#108,#109));
#486=EDGE_LOOP('',(#110,#111,#112,#113));
#487=EDGE_LOOP('',(#114,#115,#116,#117));
#488=EDGE_LOOP('',(#118,#119,#120,#121));
#489=EDGE_LOOP('',(#122,#123,#124,#125));
#490=EDGE_LOOP('',(#126,#127,#128,#129));
#491=EDGE_LOOP('',(#130,#131,#132,#133));
#492=EDGE_LOOP('',(#134,#135,#136,#137));
#493=EDGE_LOOP('',(#138,#139,#140,#141));
#494=EDGE_LOOP('',(#142,#143,#144,#145));
#495=EDGE_LOOP('',(#146,#147,#148,#149));
#496=EDGE_LOOP('',(#150,#151,#152,#153));
#497=EDGE_LOOP('',(#154,#155,#156,#157));
#498=EDGE_LOOP('',(#158,#159,#160,#161));
#499=EDGE_LOOP('',(#162,#163,#164,#165,#166,#167,#168,#169,#170,#171));
#500=EDGE_LOOP('',(#172,#173,#174,#175,#176,#177,#178,#179,#180,#181));
#501=EDGE_LOOP('',(#182,#183,#184,#185));
#502=EDGE_LOOP('',(#186,#187,#188,#189));
#503=EDGE_LOOP('',(#190));
#504=EDGE_LOOP('',(#191,#192,#193,#194));
#505=EDGE_LOOP('',(#195,#196,#197,#198));
#506=EDGE_LOOP('',(#199,#200,#201,#202));
#507=EDGE_LOOP('',(#203,#204,#205,#206));
#508=EDGE_LOOP('',(#207,#208,#209,#210));
#509=EDGE_LOOP('',(#211));
#510=EDGE_LOOP('',(#212));
#511=EDGE_LOOP('',(#213));
#512=EDGE_LOOP('',(#214));
#513=EDGE_LOOP('',(#215));
#514=EDGE_LOOP('',(#216));
#515=EDGE_LOOP('',(#217));
#516=FACE_BOUND('',#478,.T.);
#517=FACE_BOUND('',#479,.T.);
#518=FACE_BOUND('',#480,.T.);
#519=FACE_BOUND('',#481,.T.);
#520=FACE_BOUND('',#482,.T.);
#521=FACE_BOUND('',#483,.T.);
#522=FACE_BOUND('',#484,.T.);
#523=FACE_BOUND('',#485,.T.);
#524=FACE_BOUND('',#486,.T.);
#525=FACE_BOUND('',#487,.T.);
#526=FACE_BOUND('',#488,.T.);
#527=FACE_BOUND('',#489,.T.);
#528=FACE_BOUND('',#490,.T.);
#529=FACE_BOUND('',#491,.T.);
#530=FACE_BOUND('',#492,.T.);
#531=FACE_BOUND('',#493,.T.);
#532=FACE_BOUND('',#494,.T.);
#533=FACE_BOUND('',#495,.T.);
#534=FACE_BOUND('',#496,.T.);
#535=FACE_BOUND('',#497,.T.);
#536=FACE_BOUND('',#498,.T.);
#537=FACE_BOUND('',#499,.T.);
#538=FACE_BOUND('',#500,.T.);
#539=FACE_BOUND('',#501,.T.);
#540=FACE_BOUND('',#502,.T.);
#541=FACE_BOUND('',#503,.T.);
#542=FACE_BOUND('',#504,.T.);
#543=FACE_BOUND('',#505,.T.);
#544=FACE_BOUND('',#506,.T.);
#545=FACE_BOUND('',#507,.T.);
#546=FACE_BOUND('',#508,.T.);
#547=FACE_BOUND('',#509,.T.);
#548=FACE_BOUND('',#510,.T.);
#549=FACE_BOUND('',#511,.T.);
#550=FACE_BOUND('',#512,.T.);
#551=FACE_BOUND('',#513,.T.);
#552=FACE_BOUND('',#514,.T.);
#553=FACE_BOUND('',#515,.T.);
#554=PLANE('',#621);
#555=PLANE('',#626);
#556=PLANE('',#627);
#557=PLANE('',#628);
#558=PLANE('',#629);
#559=PLANE('',#630);
#560=PLANE('',#631);
#561=PLANE('',#638);
#562=PLANE('',#641);
#563=PLANE('',#644);
#564=PLANE('',#649);
#565=PLANE('',#652);
#566=PLANE('',#655);
#567=PLANE('',#658);
#568=PLANE('',#659);
#569=PLANE('',#660);
#570=PLANE('',#661);
#571=PLANE('',#662);
#572=PLANE('',#677);
#573=PLANE('',#678);
#574=ADVANCED_FACE('',(#516),#554,.T.);
#575=ADVANCED_FACE('',(#517),#555,.F.);
#576=ADVANCED_FACE('',(#518),#556,.T.);
#577=ADVANCED_FACE('',(#519),#557,.T.);
#578=ADVANCED_FACE('',(#520),#558,.F.);
#579=ADVANCED_FACE('',(#521),#559,.F.);
#580=ADVANCED_FACE('',(#522),#560,.F.);
#581=ADVANCED_FACE('',(#523),#16,.T.);
#582=ADVANCED_FACE('',(#524),#561,.T.);
#583=ADVANCED_FACE('',(#525),#17,.F.);
#584=ADVANCED_FACE('',(#526),#562,.T.);
#585=ADVANCED_FACE('',(#527),#18,.F.);
#586=ADVANCED_FACE('',(#528),#563,.T.);
#587=ADVANCED_FACE('',(#529),#19,.T.);
#588=ADVANCED_FACE('',(#530),#20,.T.);
#589=ADVANCED_FACE('',(#531),#564,.F.);
#590=ADVANCED_FACE('',(#532),#21,.F.);
#591=ADVANCED_FACE('',(#533),#565,.F.);
#592=ADVANCED_FACE('',(#534),#22,.F.);
#593=ADVANCED_FACE('',(#535),#566,.F.);
#594=ADVANCED_FACE('',(#536),#23,.T.);
#595=ADVANCED_FACE('',(#537),#567,.T.);
#596=ADVANCED_FACE('',(#538),#568,.F.);
#597=ADVANCED_FACE('',(#539),#569,.T.);
#598=ADVANCED_FACE('',(#540),#570,.F.);
#599=ADVANCED_FACE('',(#541,#542),#571,.T.);
#600=ADVANCED_FACE('',(#543),#24,.T.);
#601=ADVANCED_FACE('',(#544),#25,.T.);
#602=ADVANCED_FACE('',(#545),#26,.T.);
#603=ADVANCED_FACE('',(#546),#27,.T.);
#604=ADVANCED_FACE('',(#547,#548),#28,.T.);
#605=ADVANCED_FACE('',(#549,#550),#29,.T.);
#606=ADVANCED_FACE('',(#551),#572,.T.);
#607=ADVANCED_FACE('',(#552,#553),#573,.F.);
#608=CLOSED_SHELL('',(#574,#575,#576,#577,#578,#579,#580,#581,#582,#583,
#584,#585,#586,#587,#588,#589,#590,#591,#592,#593,#594,#595,#596,#597,#598,
#599,#600,#601,#602,#603,#604,#605,#606,#607));
#609=STYLED_ITEM('',(#610),#617);
#610=PRESENTATION_STYLE_ASSIGNMENT((#611));
#611=SURFACE_STYLE_USAGE(.BOTH.,#612);
#612=SURFACE_SIDE_STYLE('',(#613));
#613=SURFACE_STYLE_FILL_AREA(#614);
#614=FILL_AREA_STYLE('',(#615));
#615=FILL_AREA_STYLE_COLOUR('',#616);
#616=COLOUR_RGB('',0.6,0.6,0.6);
#617=MANIFOLD_SOLID_BREP('Part 1',#608);
#618=SHAPE_DEFINITION_REPRESENTATION(#1038,#619);
#619=SHAPE_REPRESENTATION('Part 1',(#620),#1033);
#620=AXIS2_PLACEMENT_3D('',#857,#679,#680);
#621=AXIS2_PLACEMENT_3D('',#858,#681,#682);
#622=AXIS2_PLACEMENT_3D('',#866,#686,#687);
#623=AXIS2_PLACEMENT_3D('',#870,#689,#690);
#624=AXIS2_PLACEMENT_3D('',#874,#692,#693);
#625=AXIS2_PLACEMENT_3D('',#878,#695,#696);
#626=AXIS2_PLACEMENT_3D('',#879,#697,#698);
#627=AXIS2_PLACEMENT_3D('',#888,#703,#704);
#628=AXIS2_PLACEMENT_3D('',#907,#715,#716);
#629=AXIS2_PLACEMENT_3D('',#913,#720,#721);
#630=AXIS2_PLACEMENT_3D('',#929,#731,#732);
#631=AXIS2_PLACEMENT_3D('',#930,#733,#734);
#632=AXIS2_PLACEMENT_3D('',#931,#735,#736);
#633=AXIS2_PLACEMENT_3D('',#935,#738,#739);
#634=AXIS2_PLACEMENT_3D('',#939,#741,#742);
#635=AXIS2_PLACEMENT_3D('',#943,#744,#745);
#636=AXIS2_PLACEMENT_3D('',#944,#746,#747);
#637=AXIS2_PLACEMENT_3D('',#945,#748,#749);
#638=AXIS2_PLACEMENT_3D('',#948,#751,#752);
#639=AXIS2_PLACEMENT_3D('',#952,#755,#756);
#640=AXIS2_PLACEMENT_3D('',#953,#757,#758);
#641=AXIS2_PLACEMENT_3D('',#956,#760,#761);
#642=AXIS2_PLACEMENT_3D('',#960,#764,#765);
#643=AXIS2_PLACEMENT_3D('',#961,#766,#767);
#644=AXIS2_PLACEMENT_3D('',#964,#769,#770);
#645=AXIS2_PLACEMENT_3D('',#968,#773,#774);
#646=AXIS2_PLACEMENT_3D('',#969,#775,#776);
#647=AXIS2_PLACEMENT_3D('',#970,#777,#778);
#648=AXIS2_PLACEMENT_3D('',#973,#780,#781);
#649=AXIS2_PLACEMENT_3D('',#974,#782,#783);
#650=AXIS2_PLACEMENT_3D('',#978,#786,#787);
#651=AXIS2_PLACEMENT_3D('',#981,#789,#790);
#652=AXIS2_PLACEMENT_3D('',#982,#791,#792);
#653=AXIS2_PLACEMENT_3D('',#986,#795,#796);
#654=AXIS2_PLACEMENT_3D('',#989,#798,#799);
#655=AXIS2_PLACEMENT_3D('',#990,#800,#801);
#656=AXIS2_PLACEMENT_3D('',#994,#804,#805);
#657=AXIS2_PLACEMENT_3D('',#995,#806,#807);
#658=AXIS2_PLACEMENT_3D('',#996,#808,#809);
#659=AXIS2_PLACEMENT_3D('',#998,#811,#812);
#660=AXIS2_PLACEMENT_3D('',#999,#813,#814);
#661=AXIS2_PLACEMENT_3D('',#1001,#816,#817);
#662=AXIS2_PLACEMENT_3D('',#1003,#819,#820);
#663=AXIS2_PLACEMENT_3D('',#1004,#821,#822);
#664=AXIS2_PLACEMENT_3D('',#1014,#827,#828);
#665=AXIS2_PLACEMENT_3D('',#1015,#829,#830);
#666=AXIS2_PLACEMENT_3D('',#1016,#831,#832);
#667=AXIS2_PLACEMENT_3D('',#1017,#833,#834);
#668=AXIS2_PLACEMENT_3D('',#1018,#835,#836);
#669=AXIS2_PLACEMENT_3D('',#1019,#837,#838);
#670=AXIS2_PLACEMENT_3D('',#1020,#839,#840);
#671=AXIS2_PLACEMENT_3D('',#1021,#841,#842);
#672=AXIS2_PLACEMENT_3D('',#1022,#843,#844);
#673=AXIS2_PLACEMENT_3D('',#1023,#845,#846);
#674=AXIS2_PLACEMENT_3D('',#1025,#847,#848);
#675=AXIS2_PLACEMENT_3D('',#1026,#849,#850);
#676=AXIS2_PLACEMENT_3D('',#1028,#851,#852);
#677=AXIS2_PLACEMENT_3D('',#1030,#853,#854);
#678=AXIS2_PLACEMENT_3D('',#1031,#855,#856);
#679=DIRECTION('',(0.,0.,1.));
#680=DIRECTION('',(1.,0.,0.));
#681=DIRECTION('',(0.,0.,1.));
#682=DIRECTION('',(1.,0.,0.));
#683=DIRECTION('',(6.87019198406656E-17,-1.,0.));
#684=DIRECTION('',(1.,0.,0.));
#685=DIRECTION('',(6.87019198406656E-17,-1.,0.));
#686=DIRECTION('',(0.,0.,1.));
#687=DIRECTION('',(1.,0.,0.));
#688=DIRECTION('',(1.,0.,0.));
#689=DIRECTION('',(0.,0.,-1.));
#690=DIRECTION('',(1.,0.,0.));
#691=DIRECTION('',(1.,0.,0.));
#692=DIRECTION('',(0.,0.,1.));
#693=DIRECTION('',(1.,0.,0.));
#694=DIRECTION('',(1.,0.,0.));
#695=DIRECTION('',(0.,0.,1.));
#696=DIRECTION('',(1.,0.,0.));
#697=DIRECTION('',(0.,1.,0.));
#698=DIRECTION('',(0.,0.,1.));
#699=DIRECTION('',(1.,0.,0.));
#700=DIRECTION('',(0.,0.,-1.));
#701=DIRECTION('',(1.,0.,0.));
#702=DIRECTION('',(0.,0.,-1.));
#703=DIRECTION('',(1.,0.,0.));
#704=DIRECTION('',(0.,0.,-1.));
#705=DIRECTION('',(0.,0.,-1.));
#706=DIRECTION('',(0.,-1.,0.));
#707=DIRECTION('',(0.,0.,-1.));
#708=DIRECTION('',(6.87019198406656E-17,-1.,0.));
#709=DIRECTION('',(0.,0.,-1.));
#710=DIRECTION('',(6.87019198406656E-17,-1.,0.));
#711=DIRECTION('',(0.,-1.,0.));
#712=DIRECTION('',(0.,0.,-1.));
#713=DIRECTION('',(6.87019198406656E-17,-1.,0.));
#714=DIRECTION('',(0.,0.,-1.));
#715=DIRECTION('',(0.,1.,0.));
#716=DIRECTION('',(0.,0.,1.));
#717=DIRECTION('',(1.,0.,0.));
#718=DIRECTION('',(0.,0.,-1.));
#719=DIRECTION('',(1.,0.,0.));
#720=DIRECTION('',(1.,0.,0.));
#721=DIRECTION('',(0.,0.,-1.));
#722=DIRECTION('',(0.,0.,-1.));
#723=DIRECTION('',(0.,-1.,0.));
#724=DIRECTION('',(0.,0.,-1.));
#725=DIRECTION('',(0.,0.,-1.));
#726=DIRECTION('',(6.87019198406656E-17,-1.,0.));
#727=DIRECTION('',(0.,-1.,0.));
#728=DIRECTION('',(6.87019198406656E-17,-1.,0.));
#729=DIRECTION('',(0.,0.,-1.));
#730=DIRECTION('',(6.87019198406656E-17,-1.,0.));
#731=DIRECTION('',(0.,0.,1.));
#732=DIRECTION('',(1.,0.,0.));
#733=DIRECTION('',(0.,0.,1.));
#734=DIRECTION('',(1.,0.,0.));
#735=DIRECTION('',(0.,0.,1.));
#736=DIRECTION('',(1.,0.,0.));
#737=DIRECTION('',(1.,0.,0.));
#738=DIRECTION('',(0.,0.,-1.));
#739=DIRECTION('',(1.,0.,0.));
#740=DIRECTION('',(1.,0.,0.));
#741=DIRECTION('',(0.,0.,1.));
#742=DIRECTION('',(1.,0.,0.));
#743=DIRECTION('',(1.,0.,0.));
#744=DIRECTION('',(0.,0.,1.));
#745=DIRECTION('',(1.,0.,0.));
#746=DIRECTION('',(0.,0.,-1.));
#747=DIRECTION('',(-1.,0.,0.));
#748=DIRECTION('',(0.,0.,1.));
#749=DIRECTION('',(1.,0.,0.));
#750=DIRECTION('',(0.,0.,-1.));
#751=DIRECTION('',(0.,1.,0.));
#752=DIRECTION('',(0.,0.,1.));
#753=DIRECTION('',(1.,0.,0.));
#754=DIRECTION('',(0.,0.,-1.));
#755=DIRECTION('',(0.,0.,-1.));
#756=DIRECTION('',(-1.,0.,0.));
#757=DIRECTION('',(0.,0.,-1.));
#758=DIRECTION('',(1.,0.,0.));
#759=DIRECTION('',(0.,0.,-1.));
#760=DIRECTION('',(0.,1.,0.));
#761=DIRECTION('',(0.,0.,1.));
#762=DIRECTION('',(1.,0.,0.));
#763=DIRECTION('',(0.,0.,-1.));
#764=DIRECTION('',(0.,0.,-1.));
#765=DIRECTION('',(-1.,0.,0.));
#766=DIRECTION('',(0.,0.,1.));
#767=DIRECTION('',(1.,0.,0.));
#768=DIRECTION('',(0.,0.,-1.));
#769=DIRECTION('',(0.,1.,0.));
#770=DIRECTION('',(0.,0.,1.));
#771=DIRECTION('',(1.,0.,0.));
#772=DIRECTION('',(0.,0.,-1.));
#773=DIRECTION('',(0.,0.,-1.));
#774=DIRECTION('',(-1.,0.,0.));
#775=DIRECTION('',(0.,0.,1.));
#776=DIRECTION('',(1.,0.,0.));
#777=DIRECTION('',(0.,0.,-1.));
#778=DIRECTION('',(-1.,0.,0.));
#779=DIRECTION('',(0.,0.,-1.));
#780=DIRECTION('',(0.,0.,1.));
#781=DIRECTION('',(1.,0.,0.));
#782=DIRECTION('',(0.,1.,0.));
#783=DIRECTION('',(0.,0.,1.));
#784=DIRECTION('',(0.,0.,-1.));
#785=DIRECTION('',(1.,0.,0.));
#786=DIRECTION('',(0.,0.,-1.));
#787=DIRECTION('',(-1.,0.,0.));
#788=DIRECTION('',(0.,0.,-1.));
#789=DIRECTION('',(0.,0.,1.));
#790=DIRECTION('',(1.,0.,0.));
#791=DIRECTION('',(0.,1.,0.));
#792=DIRECTION('',(0.,0.,1.));
#793=DIRECTION('',(0.,0.,-1.));
#794=DIRECTION('',(1.,0.,0.));
#795=DIRECTION('',(0.,0.,-1.));
#796=DIRECTION('',(-1.,0.,0.));
#797=DIRECTION('',(0.,0.,-1.));
#798=DIRECTION('',(0.,0.,-1.));
#799=DIRECTION('',(1.,0.,0.));
#800=DIRECTION('',(0.,1.,0.));
#801=DIRECTION('',(0.,0.,1.));
#802=DIRECTION('',(0.,0.,-1.));
#803=DIRECTION('',(1.,0.,0.));
#804=DIRECTION('',(0.,0.,-1.));
#805=DIRECTION('',(-1.,0.,0.));
#806=DIRECTION('',(0.,0.,1.));
#807=DIRECTION('',(1.,0.,0.));
#808=DIRECTION('',(0.,0.,1.));
#809=DIRECTION('',(1.,0.,0.));
#810=DIRECTION('',(1.,0.,0.));
#811=DIRECTION('',(0.,0.,1.));
#812=DIRECTION('',(1.,0.,0.));
#813=DIRECTION('',(0.,1.,0.));
#814=DIRECTION('',(0.,0.,1.));
#815=DIRECTION('',(1.,0.,0.));
#816=DIRECTION('',(0.,1.,0.));
#817=DIRECTION('',(0.,0.,1.));
#818=DIRECTION('',(1.,0.,0.));
#819=DIRECTION('',(0.,0.,1.));
#820=DIRECTION('',(1.,0.,0.));
#821=DIRECTION('',(0.,0.,1.));
#822=DIRECTION('',(1.,0.,0.));
#823=DIRECTION('',(1.,0.,0.));
#824=DIRECTION('',(0.,-1.,0.));
#825=DIRECTION('',(1.,0.,0.));
#826=DIRECTION('',(0.,-1.,0.));
#827=DIRECTION('',(0.,1.,0.));
#828=DIRECTION('',(0.,0.,1.));
#829=DIRECTION('',(-0.707106781186548,0.707106781186548,0.));
#830=DIRECTION('',(-0.707106781186548,-0.707106781186548,0.));
#831=DIRECTION('',(0.707106781186548,0.707106781186548,0.));
#832=DIRECTION('',(-0.707106781186548,0.707106781186548,0.));
#833=DIRECTION('',(1.,0.,0.));
#834=DIRECTION('',(0.,0.,-1.));
#835=DIRECTION('',(0.707106781186548,-0.707106781186548,0.));
#836=DIRECTION('',(0.707106781186548,0.707106781186548,0.));
#837=DIRECTION('',(-1.,0.,0.));
#838=DIRECTION('',(0.,0.,1.));
#839=DIRECTION('',(-0.707106781186548,-0.707106781186548,0.));
#840=DIRECTION('',(-0.707106781186548,0.707106781186548,0.));
#841=DIRECTION('',(0.,-1.,0.));
#842=DIRECTION('',(0.,0.,-1.));
#843=DIRECTION('',(0.,0.,-1.));
#844=DIRECTION('',(-1.,0.,0.));
#845=DIRECTION('',(0.,0.,1.));
#846=DIRECTION('',(1.,0.,0.));
#847=DIRECTION('',(0.,0.,-1.));
#848=DIRECTION('',(-1.,0.,0.));
#849=DIRECTION('',(0.,0.,1.));
#850=DIRECTION('',(1.,0.,0.));
#851=DIRECTION('',(0.,0.,1.));
#852=DIRECTION('',(1.,0.,0.));
#853=DIRECTION('',(0.,0.,1.));
#854=DIRECTION('',(1.,0.,0.));
#855=DIRECTION('',(0.,0.,1.));
#856=DIRECTION('',(1.,0.,0.));
#857=CARTESIAN_POINT('',(0.,0.,0.));
#858=CARTESIAN_POINT('',(-3.46944695195361E-18,0.01,0.0315));
#859=CARTESIAN_POINT('',(-0.01,0.01,0.0315));
#860=CARTESIAN_POINT('',(-0.01,0.03525,0.0315));
#861=CARTESIAN_POINT('',(-0.01,0.03,0.0315));
#862=CARTESIAN_POINT('',(-3.46944695195361E-18,0.03,0.0315));
#863=CARTESIAN_POINT('',(0.01,0.03,0.0315));
#864=CARTESIAN_POINT('',(0.01,0.01,0.0315));
#865=CARTESIAN_POINT('',(0.01,0.03525,0.0315));
#866=CARTESIAN_POINT('',(0.008,0.03525,0.0315));
#867=CARTESIAN_POINT('',(0.008,0.03725,0.0315));
#868=CARTESIAN_POINT('',(0.00685707142142715,0.03725,0.0315));
#869=CARTESIAN_POINT('',(0.0057141428428543,0.03725,0.0315));
#870=CARTESIAN_POINT('',(0.005,0.03475,0.0315));
#871=CARTESIAN_POINT('',(0.0042858571571457,0.03725,0.0315));
#872=CARTESIAN_POINT('',(0.,0.03725,0.0315));
#873=CARTESIAN_POINT('',(-0.0042858571571457,0.03725,0.0315));
#874=CARTESIAN_POINT('',(-0.005,0.03475,0.0315));
#875=CARTESIAN_POINT('',(-0.0057141428428543,0.03725,0.0315));
#876=CARTESIAN_POINT('',(-0.00685707142142716,0.03725,0.0315));
#877=CARTESIAN_POINT('',(-0.008,0.03725,0.0315));
#878=CARTESIAN_POINT('',(-0.008,0.03525,0.0315));
#879=CARTESIAN_POINT('',(-0.00660078105935821,-0.01,0.0285));
#880=CARTESIAN_POINT('',(-0.00660078105935821,-0.01,0.));
#881=CARTESIAN_POINT('',(-0.01,-0.01,0.));
#882=CARTESIAN_POINT('',(0.01,-0.01,0.));
#883=CARTESIAN_POINT('',(0.01,-0.01,0.0285));
#884=CARTESIAN_POINT('',(0.01,-0.01,0.0285));
#885=CARTESIAN_POINT('',(-0.00660078105935821,-0.01,0.0285));
#886=CARTESIAN_POINT('',(-0.01,-0.01,0.0285));
#887=CARTESIAN_POINT('',(-0.01,-0.01,0.0285));
#888=CARTESIAN_POINT('',(0.01,-0.00660078105935821,0.0285));
#889=CARTESIAN_POINT('',(0.01,0.03,0.0372));
#890=CARTESIAN_POINT('',(0.01,0.03,0.0352));
#891=CARTESIAN_POINT('',(0.01,-0.00660078105935821,0.0352));
#892=CARTESIAN_POINT('',(0.01,-0.01,0.0352));
#893=CARTESIAN_POINT('',(0.01,-0.01,0.0372));
#894=CARTESIAN_POINT('',(0.01,-0.01,0.0315));
#895=CARTESIAN_POINT('',(0.01,0.01,0.0315));
#896=CARTESIAN_POINT('',(0.01,-0.01525,0.0315));
#897=CARTESIAN_POINT('',(0.01,-0.01525,0.0315));
#898=CARTESIAN_POINT('',(0.01,-0.01525,0.0285));
#899=CARTESIAN_POINT('',(0.01,0.01,0.0285));
#900=CARTESIAN_POINT('',(0.01,-0.00660078105935821,0.));
#901=CARTESIAN_POINT('',(0.01,0.03,0.));
#902=CARTESIAN_POINT('',(0.01,0.03,0.0285));
#903=CARTESIAN_POINT('',(0.01,0.03,0.0285));
#904=CARTESIAN_POINT('',(0.01,0.01,0.0285));
#905=CARTESIAN_POINT('',(0.01,0.03525,0.0285));
#906=CARTESIAN_POINT('',(0.01,0.03525,0.0315));
#907=CARTESIAN_POINT('',(-1.7347234759768E-18,0.03,0.0285));
#908=CARTESIAN_POINT('',(-1.7347234759768E-18,0.03,0.));
#909=CARTESIAN_POINT('',(-0.01,0.03,0.));
#910=CARTESIAN_POINT('',(-0.01,0.03,0.0285));
#911=CARTESIAN_POINT('',(-0.01,0.03,0.0285));
#912=CARTESIAN_POINT('',(-1.7347234759768E-18,0.03,0.0285));
#913=CARTESIAN_POINT('',(-0.01,-0.00660078105935821,0.0285));
#914=CARTESIAN_POINT('',(-0.01,-0.01,0.0372));
#915=CARTESIAN_POINT('',(-0.01,-0.01,0.0352));
#916=CARTESIAN_POINT('',(-0.01,-0.01,0.0315));
#917=CARTESIAN_POINT('',(-0.01,0.03,0.0352));
#918=CARTESIAN_POINT('',(-0.01,0.03,0.0352));
#919=CARTESIAN_POINT('',(-0.01,0.03,0.0372));
#920=CARTESIAN_POINT('',(-0.01,0.03525,0.0315));
#921=CARTESIAN_POINT('',(-0.01,0.03525,0.0285));
#922=CARTESIAN_POINT('',(-0.01,0.01,0.0285));
#923=CARTESIAN_POINT('',(-0.01,-0.00660078105935821,0.));
#924=CARTESIAN_POINT('',(-0.01,0.01,0.0285));
#925=CARTESIAN_POINT('',(-0.01,-0.01525,0.0285));
#926=CARTESIAN_POINT('',(-0.01,-0.01525,0.0315));
#927=CARTESIAN_POINT('',(-0.01,-0.01525,0.0315));
#928=CARTESIAN_POINT('',(-0.01,0.01,0.0315));
#929=CARTESIAN_POINT('',(0.,0.00975,0.));
#930=CARTESIAN_POINT('',(-3.46944695195361E-18,0.01,0.0285));
#931=CARTESIAN_POINT('',(0.008,-0.01525,0.0285));
#932=CARTESIAN_POINT('',(0.008,-0.01725,0.0285));
#933=CARTESIAN_POINT('',(0.00685707142142715,-0.01725,0.0285));
#934=CARTESIAN_POINT('',(0.00571414284285429,-0.01725,0.0285));
#935=CARTESIAN_POINT('',(0.005,-0.01475,0.0285));
#936=CARTESIAN_POINT('',(0.00428585715714571,-0.01725,0.0285));
#937=CARTESIAN_POINT('',(0.,-0.01725,0.0285));
#938=CARTESIAN_POINT('',(-0.00428585715714571,-0.01725,0.0285));
#939=CARTESIAN_POINT('',(-0.005,-0.01475,0.0285));
#940=CARTESIAN_POINT('',(-0.00571414284285429,-0.01725,0.0285));
#941=CARTESIAN_POINT('',(-0.00685707142142715,-0.01725,0.0285));
#942=CARTESIAN_POINT('',(-0.008,-0.01725,0.0285));
#943=CARTESIAN_POINT('',(-0.008,-0.01525,0.0285));
#944=CARTESIAN_POINT('',(0.008,0.03525,0.0315));
#945=CARTESIAN_POINT('',(0.008,0.03525,0.0285));
#946=CARTESIAN_POINT('',(0.008,0.03725,0.0285));
#947=CARTESIAN_POINT('',(0.008,0.03725,0.0315));
#948=CARTESIAN_POINT('',(0.00685707142142715,0.03725,0.0315));
#949=CARTESIAN_POINT('',(0.00685707142142715,0.03725,0.0285));
#950=CARTESIAN_POINT('',(0.0057141428428543,0.03725,0.0285));
#951=CARTESIAN_POINT('',(0.0057141428428543,0.03725,0.0315));
#952=CARTESIAN_POINT('',(0.005,0.03475,0.0315));
#953=CARTESIAN_POINT('',(0.005,0.03475,0.0285));
#954=CARTESIAN_POINT('',(0.0042858571571457,0.03725,0.0285));
#955=CARTESIAN_POINT('',(0.0042858571571457,0.03725,0.0315));
#956=CARTESIAN_POINT('',(0.,0.03725,0.0315));
#957=CARTESIAN_POINT('',(0.,0.03725,0.0285));
#958=CARTESIAN_POINT('',(-0.0042858571571457,0.03725,0.0285));
#959=CARTESIAN_POINT('',(-0.0042858571571457,0.03725,0.0315));
#960=CARTESIAN_POINT('',(-0.005,0.03475,0.0315));
#961=CARTESIAN_POINT('',(-0.005,0.03475,0.0285));
#962=CARTESIAN_POINT('',(-0.0057141428428543,0.03725,0.0285));
#963=CARTESIAN_POINT('',(-0.0057141428428543,0.03725,0.0315));
#964=CARTESIAN_POINT('',(-0.00685707142142716,0.03725,0.0315));
#965=CARTESIAN_POINT('',(-0.00685707142142716,0.03725,0.0285));
#966=CARTESIAN_POINT('',(-0.008,0.03725,0.0285));
#967=CARTESIAN_POINT('',(-0.008,0.03725,0.0315));
#968=CARTESIAN_POINT('',(-0.008,0.03525,0.0315));
#969=CARTESIAN_POINT('',(-0.008,0.03525,0.0285));
#970=CARTESIAN_POINT('',(-0.008,-0.01525,0.0315));
#971=CARTESIAN_POINT('',(-0.008,-0.01725,0.0315));
#972=CARTESIAN_POINT('',(-0.008,-0.01725,0.0315));
#973=CARTESIAN_POINT('',(-0.008,-0.01525,0.0315));
#974=CARTESIAN_POINT('',(-0.00685707142142715,-0.01725,0.0315));
#975=CARTESIAN_POINT('',(-0.00571414284285429,-0.01725,0.0315));
#976=CARTESIAN_POINT('',(-0.00571414284285429,-0.01725,0.0315));
#977=CARTESIAN_POINT('',(-0.00685707142142715,-0.01725,0.0315));
#978=CARTESIAN_POINT('',(-0.005,-0.01475,0.0315));
#979=CARTESIAN_POINT('',(-0.00428585715714571,-0.01725,0.0315));
#980=CARTESIAN_POINT('',(-0.00428585715714571,-0.01725,0.0315));
#981=CARTESIAN_POINT('',(-0.005,-0.01475,0.0315));
#982=CARTESIAN_POINT('',(0.,-0.01725,0.0315));
#983=CARTESIAN_POINT('',(0.00428585715714571,-0.01725,0.0315));
#984=CARTESIAN_POINT('',(0.00428585715714571,-0.01725,0.0315));
#985=CARTESIAN_POINT('',(0.,-0.01725,0.0315));
#986=CARTESIAN_POINT('',(0.005,-0.01475,0.0315));
#987=CARTESIAN_POINT('',(0.00571414284285429,-0.01725,0.0315));
#988=CARTESIAN_POINT('',(0.00571414284285429,-0.01725,0.0315));
#989=CARTESIAN_POINT('',(0.005,-0.01475,0.0315));
#990=CARTESIAN_POINT('',(0.00685707142142715,-0.01725,0.0315));
#991=CARTESIAN_POINT('',(0.008,-0.01725,0.0315));
#992=CARTESIAN_POINT('',(0.008,-0.01725,0.0315));
#993=CARTESIAN_POINT('',(0.00685707142142715,-0.01725,0.0315));
#994=CARTESIAN_POINT('',(0.008,-0.01525,0.0315));
#995=CARTESIAN_POINT('',(0.008,-0.01525,0.0315));
#996=CARTESIAN_POINT('',(-3.46944695195361E-18,0.01,0.0315));
#997=CARTESIAN_POINT('',(0.,-0.01,0.0315));
#998=CARTESIAN_POINT('',(-3.46944695195361E-18,0.01,0.0285));
#999=CARTESIAN_POINT('',(-3.46944695195361E-18,0.03,0.0372));
#1000=CARTESIAN_POINT('',(-3.46944695195361E-18,0.03,0.0352));
#1001=CARTESIAN_POINT('',(0.,-0.01,0.0372));
#1002=CARTESIAN_POINT('',(-0.01,-0.01,0.0352));
#1003=CARTESIAN_POINT('',(0.,0.01,0.0372));
#1004=CARTESIAN_POINT('',(0.,1.83697019872103E-19,0.0372));
#1005=CARTESIAN_POINT('',(0.003,1.83697019872103E-19,0.0372));
#1006=CARTESIAN_POINT('',(0.01,-0.008,0.0372));
#1007=CARTESIAN_POINT('',(-0.008,-0.008,0.0372));
#1008=CARTESIAN_POINT('',(0.008,-0.008,0.0372));
#1009=CARTESIAN_POINT('',(0.008,0.01,0.0372));
#1010=CARTESIAN_POINT('',(0.008,0.028,0.0372));
#1011=CARTESIAN_POINT('',(0.,0.028,0.0372));
#1012=CARTESIAN_POINT('',(-0.008,0.028,0.0372));
#1013=CARTESIAN_POINT('',(-0.008,-0.01,0.0372));
#1014=CARTESIAN_POINT('',(-0.008,0.01,0.0352));
#1015=CARTESIAN_POINT('',(-0.008,-0.008,0.0352));
#1016=CARTESIAN_POINT('',(-0.008,0.028,0.0352));
#1017=CARTESIAN_POINT('',(-3.46944695195361E-18,0.028,0.0352));
#1018=CARTESIAN_POINT('',(0.008,0.028,0.0352));
#1019=CARTESIAN_POINT('',(0.,-0.008,0.0352));
#1020=CARTESIAN_POINT('',(0.008,-0.008,0.0352));
#1021=CARTESIAN_POINT('',(0.008,-0.00660078105935821,0.0352));
#1022=CARTESIAN_POINT('',(0.,1.83697019872103E-19,0.0412));
#1023=CARTESIAN_POINT('',(0.,1.83697019872103E-19,0.0412));
#1024=CARTESIAN_POINT('',(0.003,1.83697019872103E-19,0.0412));
#1025=CARTESIAN_POINT('',(0.,8.26636589424463E-19,0.0432));
#1026=CARTESIAN_POINT('',(0.,8.26636589424463E-19,0.0432));
#1027=CARTESIAN_POINT('',(0.0105,8.26636589424463E-19,0.0432));
#1028=CARTESIAN_POINT('',(0.,8.26636589424463E-19,0.0412));
#1029=CARTESIAN_POINT('',(0.0105,8.26636589424463E-19,0.0412));
#1030=CARTESIAN_POINT('',(0.,0.,0.0432));
#1031=CARTESIAN_POINT('',(0.,0.,0.0412));
#1032=MECHANICAL_DESIGN_GEOMETRIC_PRESENTATION_REPRESENTATION('',(#609),
#1033);
#1033=(
GEOMETRIC_REPRESENTATION_CONTEXT(3)
GLOBAL_UNCERTAINTY_ASSIGNED_CONTEXT((#1034))
GLOBAL_UNIT_ASSIGNED_CONTEXT((#1037,#1036,#1035))
REPRESENTATION_CONTEXT('Part 1','TOP_LEVEL_ASSEMBLY_PART')
);
#1034=UNCERTAINTY_MEASURE_WITH_UNIT(LENGTH_MEASURE(1.E-8),#1037,
'DISTANCE_ACCURACY_VALUE','Maximum Tolerance applied to model');
#1035=(
NAMED_UNIT(*)
SI_UNIT($,.STERADIAN.)
SOLID_ANGLE_UNIT()
);
#1036=(
NAMED_UNIT(*)
PLANE_ANGLE_UNIT()
SI_UNIT($,.RADIAN.)
);
#1037=(
LENGTH_UNIT()
NAMED_UNIT(*)
SI_UNIT($,.METRE.)
);
#1038=PRODUCT_DEFINITION_SHAPE('','',#1039);
#1039=PRODUCT_DEFINITION('','',#1041,#1040);
#1040=PRODUCT_DEFINITION_CONTEXT('',#1047,'design');
#1041=PRODUCT_DEFINITION_FORMATION_WITH_SPECIFIED_SOURCE('','',#1043,
 .NOT_KNOWN.);
#1042=PRODUCT_RELATED_PRODUCT_CATEGORY('','',(#1043));
#1043=PRODUCT('Part 1','Part 1','Part 1',(#1045));
#1044=PRODUCT_CATEGORY('','');
#1045=PRODUCT_CONTEXT('',#1047,'mechanical');
#1046=APPLICATION_PROTOCOL_DEFINITION('international standard',
'ap242_managed_model_based_3d_engineering',2011,#1047);
#1047=APPLICATION_CONTEXT('managed model based 3d engineering');
ENDSEC;
END-ISO-10303-21;
