ISO-10303-21;
HEADER;
/* Generated by software containing ST-Developer
 * from STEP Tools, Inc. (www.steptools.com) 
 */
/* OPTION: using custom renumber hook */

FILE_DESCRIPTION(
/* description */ ('STEP AP242',
'CAx-IF Rec.Pracs.---Representation and Presentation of Product Manufa
cturing Information (PMI)---4.0---2014-10-13',
'CAx-IF Rec.Pracs.---3D Tessellated Geometry---0.4---2014-09-14','2;1'),

/* implementation_level */ '2;1');

FILE_NAME(
/* name */ '6887aee820c7c16e74f30015',
/* time_stamp */ '2025-07-28T17:10:00Z',
/* author */ (''),
/* organization */ (''),
/* preprocessor_version */ 'ST-DEVELOPER v20',
/* originating_system */ 'ONSHAPE BY PTC INC, 1.201',
/* authorisation */ '  ');

FILE_SCHEMA (('AP242_MANAGED_MODEL_BASED_3D_ENGINEERING_MIM_LF { 1 0 10303 442 1 1 4 }'));
ENDSEC;

DATA;
#10=SHAPE_REPRESENTATION_RELATIONSHIP('','',#223,#11);
#11=ADVANCED_BREP_SHAPE_REPRESENTATION('',(#221),#395);
#12=PLANE('',#228);
#13=PLANE('',#233);
#14=PLANE('',#240);
#15=PLANE('',#243);
#16=PLANE('',#246);
#17=PLANE('',#249);
#18=PLANE('',#252);
#19=PLANE('',#255);
#20=PLANE('',#258);
#21=PLANE('',#261);
#22=ORIENTED_EDGE('',*,*,#58,.F.);
#23=ORIENTED_EDGE('',*,*,#59,.T.);
#24=ORIENTED_EDGE('',*,*,#60,.T.);
#25=ORIENTED_EDGE('',*,*,#61,.T.);
#26=ORIENTED_EDGE('',*,*,#62,.T.);
#27=ORIENTED_EDGE('',*,*,#63,.T.);
#28=ORIENTED_EDGE('',*,*,#58,.T.);
#29=ORIENTED_EDGE('',*,*,#64,.T.);
#30=ORIENTED_EDGE('',*,*,#65,.T.);
#31=ORIENTED_EDGE('',*,*,#66,.T.);
#32=ORIENTED_EDGE('',*,*,#67,.T.);
#33=ORIENTED_EDGE('',*,*,#59,.F.);
#34=ORIENTED_EDGE('',*,*,#63,.F.);
#35=ORIENTED_EDGE('',*,*,#68,.F.);
#36=ORIENTED_EDGE('',*,*,#68,.T.);
#37=ORIENTED_EDGE('',*,*,#62,.F.);
#38=ORIENTED_EDGE('',*,*,#69,.F.);
#39=ORIENTED_EDGE('',*,*,#69,.T.);
#40=ORIENTED_EDGE('',*,*,#61,.F.);
#41=ORIENTED_EDGE('',*,*,#70,.F.);
#42=ORIENTED_EDGE('',*,*,#70,.T.);
#43=ORIENTED_EDGE('',*,*,#60,.F.);
#44=ORIENTED_EDGE('',*,*,#71,.F.);
#45=ORIENTED_EDGE('',*,*,#71,.T.);
#46=ORIENTED_EDGE('',*,*,#72,.T.);
#47=ORIENTED_EDGE('',*,*,#67,.F.);
#48=ORIENTED_EDGE('',*,*,#72,.F.);
#49=ORIENTED_EDGE('',*,*,#73,.T.);
#50=ORIENTED_EDGE('',*,*,#66,.F.);
#51=ORIENTED_EDGE('',*,*,#73,.F.);
#52=ORIENTED_EDGE('',*,*,#74,.T.);
#53=ORIENTED_EDGE('',*,*,#65,.F.);
#54=ORIENTED_EDGE('',*,*,#74,.F.);
#55=ORIENTED_EDGE('',*,*,#75,.T.);
#56=ORIENTED_EDGE('',*,*,#64,.F.);
#57=ORIENTED_EDGE('',*,*,#75,.F.);
#58=EDGE_CURVE('',#76,#76,#94,.T.);
#59=EDGE_CURVE('',#77,#77,#95,.T.);
#60=EDGE_CURVE('',#78,#78,#96,.F.);
#61=EDGE_CURVE('',#79,#79,#97,.F.);
#62=EDGE_CURVE('',#80,#80,#98,.F.);
#63=EDGE_CURVE('',#81,#81,#99,.F.);
#64=EDGE_CURVE('',#82,#82,#100,.T.);
#65=EDGE_CURVE('',#83,#83,#101,.T.);
#66=EDGE_CURVE('',#84,#84,#102,.T.);
#67=EDGE_CURVE('',#85,#85,#103,.T.);
#68=EDGE_CURVE('',#86,#86,#104,.T.);
#69=EDGE_CURVE('',#87,#87,#105,.T.);
#70=EDGE_CURVE('',#88,#88,#106,.T.);
#71=EDGE_CURVE('',#89,#89,#107,.T.);
#72=EDGE_CURVE('',#90,#90,#108,.T.);
#73=EDGE_CURVE('',#91,#91,#109,.T.);
#74=EDGE_CURVE('',#92,#92,#110,.T.);
#75=EDGE_CURVE('',#93,#93,#111,.T.);
#76=VERTEX_POINT('',#341);
#77=VERTEX_POINT('',#343);
#78=VERTEX_POINT('',#346);
#79=VERTEX_POINT('',#348);
#80=VERTEX_POINT('',#350);
#81=VERTEX_POINT('',#352);
#82=VERTEX_POINT('',#355);
#83=VERTEX_POINT('',#357);
#84=VERTEX_POINT('',#359);
#85=VERTEX_POINT('',#361);
#86=VERTEX_POINT('',#364);
#87=VERTEX_POINT('',#368);
#88=VERTEX_POINT('',#372);
#89=VERTEX_POINT('',#376);
#90=VERTEX_POINT('',#380);
#91=VERTEX_POINT('',#384);
#92=VERTEX_POINT('',#388);
#93=VERTEX_POINT('',#392);
#94=CIRCLE('',#226,0.01);
#95=CIRCLE('',#227,0.01);
#96=CIRCLE('',#229,0.0015);
#97=CIRCLE('',#230,0.0015);
#98=CIRCLE('',#231,0.0015);
#99=CIRCLE('',#232,0.0015);
#100=CIRCLE('',#234,0.0015);
#101=CIRCLE('',#235,0.0015);
#102=CIRCLE('',#236,0.0015);
#103=CIRCLE('',#237,0.0015);
#104=CIRCLE('',#239,0.0015);
#105=CIRCLE('',#242,0.0015);
#106=CIRCLE('',#245,0.0015);
#107=CIRCLE('',#248,0.0015);
#108=CIRCLE('',#251,0.0015);
#109=CIRCLE('',#254,0.0015);
#110=CIRCLE('',#257,0.0015);
#111=CIRCLE('',#260,0.0015);
#112=EDGE_LOOP('',(#22));
#113=EDGE_LOOP('',(#23));
#114=EDGE_LOOP('',(#24));
#115=EDGE_LOOP('',(#25));
#116=EDGE_LOOP('',(#26));
#117=EDGE_LOOP('',(#27));
#118=EDGE_LOOP('',(#28));
#119=EDGE_LOOP('',(#29));
#120=EDGE_LOOP('',(#30));
#121=EDGE_LOOP('',(#31));
#122=EDGE_LOOP('',(#32));
#123=EDGE_LOOP('',(#33));
#124=EDGE_LOOP('',(#34));
#125=EDGE_LOOP('',(#35));
#126=EDGE_LOOP('',(#36));
#127=EDGE_LOOP('',(#37));
#128=EDGE_LOOP('',(#38));
#129=EDGE_LOOP('',(#39));
#130=EDGE_LOOP('',(#40));
#131=EDGE_LOOP('',(#41));
#132=EDGE_LOOP('',(#42));
#133=EDGE_LOOP('',(#43));
#134=EDGE_LOOP('',(#44));
#135=EDGE_LOOP('',(#45));
#136=EDGE_LOOP('',(#46));
#137=EDGE_LOOP('',(#47));
#138=EDGE_LOOP('',(#48));
#139=EDGE_LOOP('',(#49));
#140=EDGE_LOOP('',(#50));
#141=EDGE_LOOP('',(#51));
#142=EDGE_LOOP('',(#52));
#143=EDGE_LOOP('',(#53));
#144=EDGE_LOOP('',(#54));
#145=EDGE_LOOP('',(#55));
#146=EDGE_LOOP('',(#56));
#147=EDGE_LOOP('',(#57));
#148=FACE_BOUND('',#112,.T.);
#149=FACE_BOUND('',#113,.T.);
#150=FACE_BOUND('',#114,.T.);
#151=FACE_BOUND('',#115,.T.);
#152=FACE_BOUND('',#116,.T.);
#153=FACE_BOUND('',#117,.T.);
#154=FACE_BOUND('',#118,.T.);
#155=FACE_BOUND('',#119,.T.);
#156=FACE_BOUND('',#120,.T.);
#157=FACE_BOUND('',#121,.T.);
#158=FACE_BOUND('',#122,.T.);
#159=FACE_BOUND('',#123,.T.);
#160=FACE_BOUND('',#124,.T.);
#161=FACE_BOUND('',#125,.T.);
#162=FACE_BOUND('',#126,.T.);
#163=FACE_BOUND('',#127,.T.);
#164=FACE_BOUND('',#128,.T.);
#165=FACE_BOUND('',#129,.T.);
#166=FACE_BOUND('',#130,.T.);
#167=FACE_BOUND('',#131,.T.);
#168=FACE_BOUND('',#132,.T.);
#169=FACE_BOUND('',#133,.T.);
#170=FACE_BOUND('',#134,.T.);
#171=FACE_BOUND('',#135,.T.);
#172=FACE_BOUND('',#136,.T.);
#173=FACE_BOUND('',#137,.T.);
#174=FACE_BOUND('',#138,.T.);
#175=FACE_BOUND('',#139,.T.);
#176=FACE_BOUND('',#140,.T.);
#177=FACE_BOUND('',#141,.T.);
#178=FACE_BOUND('',#142,.T.);
#179=FACE_BOUND('',#143,.T.);
#180=FACE_BOUND('',#144,.T.);
#181=FACE_BOUND('',#145,.T.);
#182=FACE_BOUND('',#146,.T.);
#183=FACE_BOUND('',#147,.T.);
#184=CYLINDRICAL_SURFACE('',#225,0.01);
#185=CYLINDRICAL_SURFACE('',#238,0.0015);
#186=CYLINDRICAL_SURFACE('',#241,0.0015);
#187=CYLINDRICAL_SURFACE('',#244,0.0015);
#188=CYLINDRICAL_SURFACE('',#247,0.0015);
#189=CYLINDRICAL_SURFACE('',#250,0.0015);
#190=CYLINDRICAL_SURFACE('',#253,0.0015);
#191=CYLINDRICAL_SURFACE('',#256,0.0015);
#192=CYLINDRICAL_SURFACE('',#259,0.0015);
#193=ADVANCED_FACE('',(#148,#149),#184,.T.);
#194=ADVANCED_FACE('',(#150,#151,#152,#153,#154),#12,.T.);
#195=ADVANCED_FACE('',(#155,#156,#157,#158,#159),#13,.F.);
#196=ADVANCED_FACE('',(#160,#161),#185,.T.);
#197=ADVANCED_FACE('',(#162),#14,.T.);
#198=ADVANCED_FACE('',(#163,#164),#186,.T.);
#199=ADVANCED_FACE('',(#165),#15,.T.);
#200=ADVANCED_FACE('',(#166,#167),#187,.T.);
#201=ADVANCED_FACE('',(#168),#16,.T.);
#202=ADVANCED_FACE('',(#169,#170),#188,.T.);
#203=ADVANCED_FACE('',(#171),#17,.T.);
#204=ADVANCED_FACE('',(#172,#173),#189,.T.);
#205=ADVANCED_FACE('',(#174),#18,.F.);
#206=ADVANCED_FACE('',(#175,#176),#190,.T.);
#207=ADVANCED_FACE('',(#177),#19,.F.);
#208=ADVANCED_FACE('',(#178,#179),#191,.T.);
#209=ADVANCED_FACE('',(#180),#20,.F.);
#210=ADVANCED_FACE('',(#181,#182),#192,.T.);
#211=ADVANCED_FACE('',(#183),#21,.F.);
#212=CLOSED_SHELL('',(#193,#194,#195,#196,#197,#198,#199,#200,#201,#202,
#203,#204,#205,#206,#207,#208,#209,#210,#211));
#213=STYLED_ITEM('',(#214),#221);
#214=PRESENTATION_STYLE_ASSIGNMENT((#215));
#215=SURFACE_STYLE_USAGE(.BOTH.,#216);
#216=SURFACE_SIDE_STYLE('',(#217));
#217=SURFACE_STYLE_FILL_AREA(#218);
#218=FILL_AREA_STYLE('',(#219));
#219=FILL_AREA_STYLE_COLOUR('',#220);
#220=COLOUR_RGB('',0.4,0.4,0.4);
#221=MANIFOLD_SOLID_BREP('Part 1',#212);
#222=SHAPE_DEFINITION_REPRESENTATION(#400,#223);
#223=SHAPE_REPRESENTATION('Part 1',(#224),#395);
#224=AXIS2_PLACEMENT_3D('',#338,#262,#263);
#225=AXIS2_PLACEMENT_3D('',#339,#264,#265);
#226=AXIS2_PLACEMENT_3D('',#340,#266,#267);
#227=AXIS2_PLACEMENT_3D('',#342,#268,#269);
#228=AXIS2_PLACEMENT_3D('',#344,#270,#271);
#229=AXIS2_PLACEMENT_3D('',#345,#272,#273);
#230=AXIS2_PLACEMENT_3D('',#347,#274,#275);
#231=AXIS2_PLACEMENT_3D('',#349,#276,#277);
#232=AXIS2_PLACEMENT_3D('',#351,#278,#279);
#233=AXIS2_PLACEMENT_3D('',#353,#280,#281);
#234=AXIS2_PLACEMENT_3D('',#354,#282,#283);
#235=AXIS2_PLACEMENT_3D('',#356,#284,#285);
#236=AXIS2_PLACEMENT_3D('',#358,#286,#287);
#237=AXIS2_PLACEMENT_3D('',#360,#288,#289);
#238=AXIS2_PLACEMENT_3D('',#362,#290,#291);
#239=AXIS2_PLACEMENT_3D('',#363,#292,#293);
#240=AXIS2_PLACEMENT_3D('',#365,#294,#295);
#241=AXIS2_PLACEMENT_3D('',#366,#296,#297);
#242=AXIS2_PLACEMENT_3D('',#367,#298,#299);
#243=AXIS2_PLACEMENT_3D('',#369,#300,#301);
#244=AXIS2_PLACEMENT_3D('',#370,#302,#303);
#245=AXIS2_PLACEMENT_3D('',#371,#304,#305);
#246=AXIS2_PLACEMENT_3D('',#373,#306,#307);
#247=AXIS2_PLACEMENT_3D('',#374,#308,#309);
#248=AXIS2_PLACEMENT_3D('',#375,#310,#311);
#249=AXIS2_PLACEMENT_3D('',#377,#312,#313);
#250=AXIS2_PLACEMENT_3D('',#378,#314,#315);
#251=AXIS2_PLACEMENT_3D('',#379,#316,#317);
#252=AXIS2_PLACEMENT_3D('',#381,#318,#319);
#253=AXIS2_PLACEMENT_3D('',#382,#320,#321);
#254=AXIS2_PLACEMENT_3D('',#383,#322,#323);
#255=AXIS2_PLACEMENT_3D('',#385,#324,#325);
#256=AXIS2_PLACEMENT_3D('',#386,#326,#327);
#257=AXIS2_PLACEMENT_3D('',#387,#328,#329);
#258=AXIS2_PLACEMENT_3D('',#389,#330,#331);
#259=AXIS2_PLACEMENT_3D('',#390,#332,#333);
#260=AXIS2_PLACEMENT_3D('',#391,#334,#335);
#261=AXIS2_PLACEMENT_3D('',#393,#336,#337);
#262=DIRECTION('',(0.,0.,1.));
#263=DIRECTION('',(1.,0.,0.));
#264=DIRECTION('',(0.,0.,-1.));
#265=DIRECTION('',(-1.,0.,0.));
#266=DIRECTION('',(0.,0.,1.));
#267=DIRECTION('',(1.,0.,0.));
#268=DIRECTION('',(0.,0.,1.));
#269=DIRECTION('',(1.,0.,0.));
#270=DIRECTION('',(0.,0.,1.));
#271=DIRECTION('',(1.,0.,0.));
#272=DIRECTION('',(0.,0.,1.));
#273=DIRECTION('',(1.,0.,0.));
#274=DIRECTION('',(0.,0.,1.));
#275=DIRECTION('',(1.,0.,0.));
#276=DIRECTION('',(0.,0.,1.));
#277=DIRECTION('',(1.,0.,0.));
#278=DIRECTION('',(0.,0.,1.));
#279=DIRECTION('',(1.,0.,0.));
#280=DIRECTION('',(0.,0.,1.));
#281=DIRECTION('',(1.,0.,0.));
#282=DIRECTION('',(0.,0.,1.));
#283=DIRECTION('',(1.,0.,0.));
#284=DIRECTION('',(0.,0.,1.));
#285=DIRECTION('',(1.,0.,0.));
#286=DIRECTION('',(0.,0.,1.));
#287=DIRECTION('',(1.,0.,0.));
#288=DIRECTION('',(0.,0.,1.));
#289=DIRECTION('',(1.,0.,0.));
#290=DIRECTION('',(0.,0.,-1.));
#291=DIRECTION('',(-1.,0.,0.));
#292=DIRECTION('',(0.,0.,1.));
#293=DIRECTION('',(1.,0.,0.));
#294=DIRECTION('',(0.,0.,1.));
#295=DIRECTION('',(1.,0.,0.));
#296=DIRECTION('',(0.,0.,-1.));
#297=DIRECTION('',(-1.,0.,0.));
#298=DIRECTION('',(0.,0.,1.));
#299=DIRECTION('',(1.,0.,0.));
#300=DIRECTION('',(0.,0.,1.));
#301=DIRECTION('',(1.,0.,0.));
#302=DIRECTION('',(0.,0.,-1.));
#303=DIRECTION('',(-1.,0.,0.));
#304=DIRECTION('',(0.,0.,1.));
#305=DIRECTION('',(1.,0.,0.));
#306=DIRECTION('',(0.,0.,1.));
#307=DIRECTION('',(1.,0.,0.));
#308=DIRECTION('',(0.,0.,-1.));
#309=DIRECTION('',(-1.,0.,0.));
#310=DIRECTION('',(0.,0.,1.));
#311=DIRECTION('',(1.,0.,0.));
#312=DIRECTION('',(0.,0.,1.));
#313=DIRECTION('',(1.,0.,0.));
#314=DIRECTION('',(0.,0.,1.));
#315=DIRECTION('',(1.,0.,0.));
#316=DIRECTION('',(0.,0.,1.));
#317=DIRECTION('',(1.,0.,0.));
#318=DIRECTION('',(0.,0.,1.));
#319=DIRECTION('',(1.,0.,0.));
#320=DIRECTION('',(0.,0.,1.));
#321=DIRECTION('',(1.,0.,0.));
#322=DIRECTION('',(0.,0.,1.));
#323=DIRECTION('',(1.,0.,0.));
#324=DIRECTION('',(0.,0.,1.));
#325=DIRECTION('',(1.,0.,0.));
#326=DIRECTION('',(0.,0.,1.));
#327=DIRECTION('',(1.,0.,0.));
#328=DIRECTION('',(0.,0.,1.));
#329=DIRECTION('',(1.,0.,0.));
#330=DIRECTION('',(0.,0.,1.));
#331=DIRECTION('',(1.,0.,0.));
#332=DIRECTION('',(0.,0.,1.));
#333=DIRECTION('',(1.,0.,0.));
#334=DIRECTION('',(0.,0.,1.));
#335=DIRECTION('',(1.,0.,0.));
#336=DIRECTION('',(0.,0.,1.));
#337=DIRECTION('',(1.,0.,0.));
#338=CARTESIAN_POINT('',(0.,0.,0.));
#339=CARTESIAN_POINT('',(0.,6.12323399573677E-19,0.002));
#340=CARTESIAN_POINT('',(0.,6.12323399573677E-19,0.002));
#341=CARTESIAN_POINT('',(0.01,6.12323399573677E-19,0.002));
#342=CARTESIAN_POINT('',(0.,6.12323399573677E-19,0.));
#343=CARTESIAN_POINT('',(0.01,6.12323399573677E-19,0.));
#344=CARTESIAN_POINT('',(0.,0.,0.002));
#345=CARTESIAN_POINT('',(0.,0.00675,0.002));
#346=CARTESIAN_POINT('',(0.0015,0.00675,0.002));
#347=CARTESIAN_POINT('',(-0.00675,4.33680868994202E-19,0.002));
#348=CARTESIAN_POINT('',(-0.00525,4.33680868994202E-19,0.002));
#349=CARTESIAN_POINT('',(-8.67361737988404E-19,-0.00675,0.002));
#350=CARTESIAN_POINT('',(0.0015,-0.00675,0.002));
#351=CARTESIAN_POINT('',(0.00675,-1.3010426069826E-18,0.002));
#352=CARTESIAN_POINT('',(0.00825,-1.3010426069826E-18,0.002));
#353=CARTESIAN_POINT('',(0.,0.,0.));
#354=CARTESIAN_POINT('',(0.,0.00675,0.));
#355=CARTESIAN_POINT('',(0.0015,0.00675,0.));
#356=CARTESIAN_POINT('',(-0.00675,4.33680868994202E-19,0.));
#357=CARTESIAN_POINT('',(-0.00525,4.33680868994202E-19,0.));
#358=CARTESIAN_POINT('',(-8.67361737988404E-19,-0.00675,0.));
#359=CARTESIAN_POINT('',(0.0015,-0.00675,0.));
#360=CARTESIAN_POINT('',(0.00675,-1.3010426069826E-18,0.));
#361=CARTESIAN_POINT('',(0.00825,-1.3010426069826E-18,0.));
#362=CARTESIAN_POINT('',(0.00675,-1.3010426069826E-18,0.011));
#363=CARTESIAN_POINT('',(0.00675,-1.3010426069826E-18,0.011));
#364=CARTESIAN_POINT('',(0.00825,-1.3010426069826E-18,0.011));
#365=CARTESIAN_POINT('',(0.,0.,0.011));
#366=CARTESIAN_POINT('',(-8.67361737988404E-19,-0.00675,0.011));
#367=CARTESIAN_POINT('',(-8.67361737988404E-19,-0.00675,0.011));
#368=CARTESIAN_POINT('',(0.0015,-0.00675,0.011));
#369=CARTESIAN_POINT('',(0.,0.,0.011));
#370=CARTESIAN_POINT('',(-0.00675,4.33680868994202E-19,0.011));
#371=CARTESIAN_POINT('',(-0.00675,4.33680868994202E-19,0.011));
#372=CARTESIAN_POINT('',(-0.00525,4.33680868994202E-19,0.011));
#373=CARTESIAN_POINT('',(0.,0.,0.011));
#374=CARTESIAN_POINT('',(0.,0.00675,0.011));
#375=CARTESIAN_POINT('',(0.,0.00675,0.011));
#376=CARTESIAN_POINT('',(0.0015,0.00675,0.011));
#377=CARTESIAN_POINT('',(0.,0.,0.011));
#378=CARTESIAN_POINT('',(0.00675,-1.3010426069826E-18,-0.002));
#379=CARTESIAN_POINT('',(0.00675,-1.3010426069826E-18,-0.002));
#380=CARTESIAN_POINT('',(0.00825,-1.3010426069826E-18,-0.002));
#381=CARTESIAN_POINT('',(0.,0.,-0.002));
#382=CARTESIAN_POINT('',(-8.67361737988404E-19,-0.00675,-0.002));
#383=CARTESIAN_POINT('',(-8.67361737988404E-19,-0.00675,-0.002));
#384=CARTESIAN_POINT('',(0.0015,-0.00675,-0.002));
#385=CARTESIAN_POINT('',(0.,0.,-0.002));
#386=CARTESIAN_POINT('',(-0.00675,4.33680868994202E-19,-0.002));
#387=CARTESIAN_POINT('',(-0.00675,4.33680868994202E-19,-0.002));
#388=CARTESIAN_POINT('',(-0.00525,4.33680868994202E-19,-0.002));
#389=CARTESIAN_POINT('',(0.,0.,-0.002));
#390=CARTESIAN_POINT('',(0.,0.00675,-0.002));
#391=CARTESIAN_POINT('',(0.,0.00675,-0.002));
#392=CARTESIAN_POINT('',(0.0015,0.00675,-0.002));
#393=CARTESIAN_POINT('',(0.,0.,-0.002));
#394=MECHANICAL_DESIGN_GEOMETRIC_PRESENTATION_REPRESENTATION('',(#213),
#395);
#395=(
GEOMETRIC_REPRESENTATION_CONTEXT(3)
GLOBAL_UNCERTAINTY_ASSIGNED_CONTEXT((#396))
GLOBAL_UNIT_ASSIGNED_CONTEXT((#399,#398,#397))
REPRESENTATION_CONTEXT('Part 1','TOP_LEVEL_ASSEMBLY_PART')
);
#396=UNCERTAINTY_MEASURE_WITH_UNIT(LENGTH_MEASURE(1.E-8),#399,
'DISTANCE_ACCURACY_VALUE','Maximum Tolerance applied to model');
#397=(
NAMED_UNIT(*)
SI_UNIT($,.STERADIAN.)
SOLID_ANGLE_UNIT()
);
#398=(
NAMED_UNIT(*)
PLANE_ANGLE_UNIT()
SI_UNIT($,.RADIAN.)
);
#399=(
LENGTH_UNIT()
NAMED_UNIT(*)
SI_UNIT($,.METRE.)
);
#400=PRODUCT_DEFINITION_SHAPE('','',#401);
#401=PRODUCT_DEFINITION('','',#403,#402);
#402=PRODUCT_DEFINITION_CONTEXT('',#409,'design');
#403=PRODUCT_DEFINITION_FORMATION_WITH_SPECIFIED_SOURCE('','',#405,
 .NOT_KNOWN.);
#404=PRODUCT_RELATED_PRODUCT_CATEGORY('','',(#405));
#405=PRODUCT('Part 1','Part 1','Part 1',(#407));
#406=PRODUCT_CATEGORY('','');
#407=PRODUCT_CONTEXT('',#409,'mechanical');
#408=APPLICATION_PROTOCOL_DEFINITION('international standard',
'ap242_managed_model_based_3d_engineering',2011,#409);
#409=APPLICATION_CONTEXT('managed model based 3d engineering');
ENDSEC;
END-ISO-10303-21;
