ISO-10303-21;
HEADER;
/* Generated by software containing ST-Developer
 * from STEP Tools, Inc. (www.steptools.com) 
 */
/* OPTION: using custom renumber hook */

FILE_DESCRIPTION(
/* description */ ('STEP AP242',
'CAx-IF Rec.Pracs.---Representation and Presentation of Product Manufa
cturing Information (PMI)---4.0---2014-10-13',
'CAx-IF Rec.Pracs.---3D Tessellated Geometry---0.4---2014-09-14','2;1'),

/* implementation_level */ '2;1');

FILE_NAME(
/* name */ '6887aefa44961510ff3d1204',
/* time_stamp */ '2025-07-28T17:10:18Z',
/* author */ (''),
/* organization */ (''),
/* preprocessor_version */ 'ST-DEVELOPER v20',
/* originating_system */ 'ONSHAPE BY PTC INC, 1.201',
/* authorisation */ '  ');

FILE_SCHEMA (('AP242_MANAGED_MODEL_BASED_3D_ENGINEERING_MIM_LF { 1 0 10303 442 1 1 4 }'));
ENDSEC;

DATA;
#10=SHAPE_REPRESENTATION_RELATIONSHIP('','',#195,#11);
#11=ADVANCED_BREP_SHAPE_REPRESENTATION('',(#193),#337);
#12=CYLINDRICAL_SURFACE('',#201,0.0045);
#13=CYLINDRICAL_SURFACE('',#205,0.011);
#14=CYLINDRICAL_SURFACE('',#212,0.022);
#15=CYLINDRICAL_SURFACE('',#219,0.011);
#16=CYLINDRICAL_SURFACE('',#223,0.0045);
#17=CYLINDRICAL_SURFACE('',#224,0.0027);
#18=CYLINDRICAL_SURFACE('',#225,0.0027);
#19=CYLINDRICAL_SURFACE('',#226,0.0027);
#20=ORIENTED_EDGE('',*,*,#52,.F.);
#21=ORIENTED_EDGE('',*,*,#53,.T.);
#22=ORIENTED_EDGE('',*,*,#53,.F.);
#23=ORIENTED_EDGE('',*,*,#54,.T.);
#24=ORIENTED_EDGE('',*,*,#54,.F.);
#25=ORIENTED_EDGE('',*,*,#55,.T.);
#26=ORIENTED_EDGE('',*,*,#55,.F.);
#27=ORIENTED_EDGE('',*,*,#56,.T.);
#28=ORIENTED_EDGE('',*,*,#57,.T.);
#29=ORIENTED_EDGE('',*,*,#58,.T.);
#30=ORIENTED_EDGE('',*,*,#59,.T.);
#31=ORIENTED_EDGE('',*,*,#56,.F.);
#32=ORIENTED_EDGE('',*,*,#60,.T.);
#33=ORIENTED_EDGE('',*,*,#60,.F.);
#34=ORIENTED_EDGE('',*,*,#61,.T.);
#35=ORIENTED_EDGE('',*,*,#62,.F.);
#36=ORIENTED_EDGE('',*,*,#63,.F.);
#37=ORIENTED_EDGE('',*,*,#64,.F.);
#38=ORIENTED_EDGE('',*,*,#61,.F.);
#39=ORIENTED_EDGE('',*,*,#65,.T.);
#40=ORIENTED_EDGE('',*,*,#65,.F.);
#41=ORIENTED_EDGE('',*,*,#66,.T.);
#42=ORIENTED_EDGE('',*,*,#66,.F.);
#43=ORIENTED_EDGE('',*,*,#67,.T.);
#44=ORIENTED_EDGE('',*,*,#67,.F.);
#45=ORIENTED_EDGE('',*,*,#52,.T.);
#46=ORIENTED_EDGE('',*,*,#64,.T.);
#47=ORIENTED_EDGE('',*,*,#59,.F.);
#48=ORIENTED_EDGE('',*,*,#63,.T.);
#49=ORIENTED_EDGE('',*,*,#58,.F.);
#50=ORIENTED_EDGE('',*,*,#62,.T.);
#51=ORIENTED_EDGE('',*,*,#57,.F.);
#52=EDGE_CURVE('',#68,#68,#84,.T.);
#53=EDGE_CURVE('',#69,#69,#85,.T.);
#54=EDGE_CURVE('',#70,#70,#86,.T.);
#55=EDGE_CURVE('',#71,#71,#87,.T.);
#56=EDGE_CURVE('',#72,#72,#88,.T.);
#57=EDGE_CURVE('',#73,#73,#89,.T.);
#58=EDGE_CURVE('',#74,#74,#90,.T.);
#59=EDGE_CURVE('',#75,#75,#91,.T.);
#60=EDGE_CURVE('',#76,#76,#92,.T.);
#61=EDGE_CURVE('',#77,#77,#93,.T.);
#62=EDGE_CURVE('',#78,#78,#94,.T.);
#63=EDGE_CURVE('',#79,#79,#95,.T.);
#64=EDGE_CURVE('',#80,#80,#96,.T.);
#65=EDGE_CURVE('',#81,#81,#97,.T.);
#66=EDGE_CURVE('',#82,#82,#98,.T.);
#67=EDGE_CURVE('',#83,#83,#99,.T.);
#68=VERTEX_POINT('',#292);
#69=VERTEX_POINT('',#295);
#70=VERTEX_POINT('',#298);
#71=VERTEX_POINT('',#301);
#72=VERTEX_POINT('',#304);
#73=VERTEX_POINT('',#307);
#74=VERTEX_POINT('',#309);
#75=VERTEX_POINT('',#311);
#76=VERTEX_POINT('',#313);
#77=VERTEX_POINT('',#316);
#78=VERTEX_POINT('',#319);
#79=VERTEX_POINT('',#321);
#80=VERTEX_POINT('',#323);
#81=VERTEX_POINT('',#325);
#82=VERTEX_POINT('',#328);
#83=VERTEX_POINT('',#331);
#84=CIRCLE('',#198,0.0045);
#85=CIRCLE('',#200,0.0045);
#86=CIRCLE('',#202,0.0045);
#87=CIRCLE('',#204,0.011);
#88=CIRCLE('',#206,0.011);
#89=CIRCLE('',#208,0.0027);
#90=CIRCLE('',#209,0.0027);
#91=CIRCLE('',#210,0.0027);
#92=CIRCLE('',#211,0.022);
#93=CIRCLE('',#213,0.022);
#94=CIRCLE('',#215,0.0027);
#95=CIRCLE('',#216,0.0027);
#96=CIRCLE('',#217,0.0027);
#97=CIRCLE('',#218,0.011);
#98=CIRCLE('',#220,0.011);
#99=CIRCLE('',#222,0.0045);
#100=EDGE_LOOP('',(#20));
#101=EDGE_LOOP('',(#21));
#102=EDGE_LOOP('',(#22));
#103=EDGE_LOOP('',(#23));
#104=EDGE_LOOP('',(#24));
#105=EDGE_LOOP('',(#25));
#106=EDGE_LOOP('',(#26));
#107=EDGE_LOOP('',(#27));
#108=EDGE_LOOP('',(#28));
#109=EDGE_LOOP('',(#29));
#110=EDGE_LOOP('',(#30));
#111=EDGE_LOOP('',(#31));
#112=EDGE_LOOP('',(#32));
#113=EDGE_LOOP('',(#33));
#114=EDGE_LOOP('',(#34));
#115=EDGE_LOOP('',(#35));
#116=EDGE_LOOP('',(#36));
#117=EDGE_LOOP('',(#37));
#118=EDGE_LOOP('',(#38));
#119=EDGE_LOOP('',(#39));
#120=EDGE_LOOP('',(#40));
#121=EDGE_LOOP('',(#41));
#122=EDGE_LOOP('',(#42));
#123=EDGE_LOOP('',(#43));
#124=EDGE_LOOP('',(#44));
#125=EDGE_LOOP('',(#45));
#126=EDGE_LOOP('',(#46));
#127=EDGE_LOOP('',(#47));
#128=EDGE_LOOP('',(#48));
#129=EDGE_LOOP('',(#49));
#130=EDGE_LOOP('',(#50));
#131=EDGE_LOOP('',(#51));
#132=FACE_BOUND('',#100,.T.);
#133=FACE_BOUND('',#101,.T.);
#134=FACE_BOUND('',#102,.T.);
#135=FACE_BOUND('',#103,.T.);
#136=FACE_BOUND('',#104,.T.);
#137=FACE_BOUND('',#105,.T.);
#138=FACE_BOUND('',#106,.T.);
#139=FACE_BOUND('',#107,.T.);
#140=FACE_BOUND('',#108,.T.);
#141=FACE_BOUND('',#109,.T.);
#142=FACE_BOUND('',#110,.T.);
#143=FACE_BOUND('',#111,.T.);
#144=FACE_BOUND('',#112,.T.);
#145=FACE_BOUND('',#113,.T.);
#146=FACE_BOUND('',#114,.T.);
#147=FACE_BOUND('',#115,.T.);
#148=FACE_BOUND('',#116,.T.);
#149=FACE_BOUND('',#117,.T.);
#150=FACE_BOUND('',#118,.T.);
#151=FACE_BOUND('',#119,.T.);
#152=FACE_BOUND('',#120,.T.);
#153=FACE_BOUND('',#121,.T.);
#154=FACE_BOUND('',#122,.T.);
#155=FACE_BOUND('',#123,.T.);
#156=FACE_BOUND('',#124,.T.);
#157=FACE_BOUND('',#125,.T.);
#158=FACE_BOUND('',#126,.T.);
#159=FACE_BOUND('',#127,.T.);
#160=FACE_BOUND('',#128,.T.);
#161=FACE_BOUND('',#129,.T.);
#162=FACE_BOUND('',#130,.T.);
#163=FACE_BOUND('',#131,.T.);
#164=PLANE('',#197);
#165=PLANE('',#199);
#166=PLANE('',#203);
#167=PLANE('',#207);
#168=PLANE('',#214);
#169=PLANE('',#221);
#170=ADVANCED_FACE('',(#132),#164,.F.);
#171=ADVANCED_FACE('',(#133),#165,.F.);
#172=ADVANCED_FACE('',(#134,#135),#12,.T.);
#173=ADVANCED_FACE('',(#136,#137),#166,.F.);
#174=ADVANCED_FACE('',(#138,#139),#13,.T.);
#175=ADVANCED_FACE('',(#140,#141,#142,#143,#144),#167,.F.);
#176=ADVANCED_FACE('',(#145,#146),#14,.T.);
#177=ADVANCED_FACE('',(#147,#148,#149,#150,#151),#168,.F.);
#178=ADVANCED_FACE('',(#152,#153),#15,.T.);
#179=ADVANCED_FACE('',(#154,#155),#169,.F.);
#180=ADVANCED_FACE('',(#156,#157),#16,.T.);
#181=ADVANCED_FACE('',(#158,#159),#17,.F.);
#182=ADVANCED_FACE('',(#160,#161),#18,.F.);
#183=ADVANCED_FACE('',(#162,#163),#19,.F.);
#184=CLOSED_SHELL('',(#170,#171,#172,#173,#174,#175,#176,#177,#178,#179,
#180,#181,#182,#183));
#185=STYLED_ITEM('',(#186),#193);
#186=PRESENTATION_STYLE_ASSIGNMENT((#187));
#187=SURFACE_STYLE_USAGE(.BOTH.,#188);
#188=SURFACE_SIDE_STYLE('',(#189));
#189=SURFACE_STYLE_FILL_AREA(#190);
#190=FILL_AREA_STYLE('',(#191));
#191=FILL_AREA_STYLE_COLOUR('',#192);
#192=COLOUR_RGB('',0.4,0.4,0.4);
#193=MANIFOLD_SOLID_BREP('Part 1',#184);
#194=SHAPE_DEFINITION_REPRESENTATION(#342,#195);
#195=SHAPE_REPRESENTATION('Part 1',(#196),#337);
#196=AXIS2_PLACEMENT_3D('',#289,#227,#228);
#197=AXIS2_PLACEMENT_3D('',#290,#229,#230);
#198=AXIS2_PLACEMENT_3D('',#291,#231,#232);
#199=AXIS2_PLACEMENT_3D('',#293,#233,#234);
#200=AXIS2_PLACEMENT_3D('',#294,#235,#236);
#201=AXIS2_PLACEMENT_3D('',#296,#237,#238);
#202=AXIS2_PLACEMENT_3D('',#297,#239,#240);
#203=AXIS2_PLACEMENT_3D('',#299,#241,#242);
#204=AXIS2_PLACEMENT_3D('',#300,#243,#244);
#205=AXIS2_PLACEMENT_3D('',#302,#245,#246);
#206=AXIS2_PLACEMENT_3D('',#303,#247,#248);
#207=AXIS2_PLACEMENT_3D('',#305,#249,#250);
#208=AXIS2_PLACEMENT_3D('',#306,#251,#252);
#209=AXIS2_PLACEMENT_3D('',#308,#253,#254);
#210=AXIS2_PLACEMENT_3D('',#310,#255,#256);
#211=AXIS2_PLACEMENT_3D('',#312,#257,#258);
#212=AXIS2_PLACEMENT_3D('',#314,#259,#260);
#213=AXIS2_PLACEMENT_3D('',#315,#261,#262);
#214=AXIS2_PLACEMENT_3D('',#317,#263,#264);
#215=AXIS2_PLACEMENT_3D('',#318,#265,#266);
#216=AXIS2_PLACEMENT_3D('',#320,#267,#268);
#217=AXIS2_PLACEMENT_3D('',#322,#269,#270);
#218=AXIS2_PLACEMENT_3D('',#324,#271,#272);
#219=AXIS2_PLACEMENT_3D('',#326,#273,#274);
#220=AXIS2_PLACEMENT_3D('',#327,#275,#276);
#221=AXIS2_PLACEMENT_3D('',#329,#277,#278);
#222=AXIS2_PLACEMENT_3D('',#330,#279,#280);
#223=AXIS2_PLACEMENT_3D('',#332,#281,#282);
#224=AXIS2_PLACEMENT_3D('',#333,#283,#284);
#225=AXIS2_PLACEMENT_3D('',#334,#285,#286);
#226=AXIS2_PLACEMENT_3D('',#335,#287,#288);
#227=DIRECTION('',(0.,0.,1.));
#228=DIRECTION('',(1.,0.,0.));
#229=DIRECTION('',(0.,0.,-1.));
#230=DIRECTION('',(-1.,0.,0.));
#231=DIRECTION('',(0.,0.,-1.));
#232=DIRECTION('',(-1.,0.,0.));
#233=DIRECTION('',(0.,0.,1.));
#234=DIRECTION('',(1.,0.,0.));
#235=DIRECTION('',(0.,0.,-1.));
#236=DIRECTION('',(-1.,0.,0.));
#237=DIRECTION('',(0.,0.,-1.));
#238=DIRECTION('',(-1.,0.,0.));
#239=DIRECTION('',(0.,0.,-1.));
#240=DIRECTION('',(-1.,0.,0.));
#241=DIRECTION('',(0.,0.,1.));
#242=DIRECTION('',(1.,0.,0.));
#243=DIRECTION('',(0.,0.,-1.));
#244=DIRECTION('',(-1.,0.,0.));
#245=DIRECTION('',(0.,0.,-1.));
#246=DIRECTION('',(-1.,0.,0.));
#247=DIRECTION('',(0.,0.,-1.));
#248=DIRECTION('',(-1.,0.,0.));
#249=DIRECTION('',(0.,0.,1.));
#250=DIRECTION('',(1.,0.,0.));
#251=DIRECTION('',(0.,0.,1.));
#252=DIRECTION('',(1.,0.,0.));
#253=DIRECTION('',(0.,0.,1.));
#254=DIRECTION('',(1.,0.,0.));
#255=DIRECTION('',(0.,0.,1.));
#256=DIRECTION('',(1.,0.,0.));
#257=DIRECTION('',(0.,0.,-1.));
#258=DIRECTION('',(-1.,0.,0.));
#259=DIRECTION('',(0.,0.,-1.));
#260=DIRECTION('',(-1.,0.,0.));
#261=DIRECTION('',(0.,0.,-1.));
#262=DIRECTION('',(-1.,0.,0.));
#263=DIRECTION('',(0.,0.,-1.));
#264=DIRECTION('',(-1.,0.,0.));
#265=DIRECTION('',(0.,0.,1.));
#266=DIRECTION('',(1.,0.,0.));
#267=DIRECTION('',(0.,0.,1.));
#268=DIRECTION('',(1.,0.,0.));
#269=DIRECTION('',(0.,0.,1.));
#270=DIRECTION('',(1.,0.,0.));
#271=DIRECTION('',(0.,0.,-1.));
#272=DIRECTION('',(-1.,0.,0.));
#273=DIRECTION('',(0.,0.,-1.));
#274=DIRECTION('',(-1.,0.,0.));
#275=DIRECTION('',(0.,0.,-1.));
#276=DIRECTION('',(-1.,0.,0.));
#277=DIRECTION('',(0.,0.,-1.));
#278=DIRECTION('',(-1.,0.,0.));
#279=DIRECTION('',(0.,0.,-1.));
#280=DIRECTION('',(-1.,0.,0.));
#281=DIRECTION('',(0.,0.,-1.));
#282=DIRECTION('',(-1.,0.,0.));
#283=DIRECTION('',(0.,0.,1.));
#284=DIRECTION('',(1.,0.,0.));
#285=DIRECTION('',(0.,0.,1.));
#286=DIRECTION('',(1.,0.,0.));
#287=DIRECTION('',(0.,0.,1.));
#288=DIRECTION('',(1.,0.,0.));
#289=CARTESIAN_POINT('',(0.,0.,0.));
#290=CARTESIAN_POINT('',(0.00225,0.,-4.77048955893622E-18));
#291=CARTESIAN_POINT('',(0.,0.,0.));
#292=CARTESIAN_POINT('',(-0.0045,0.,0.));
#293=CARTESIAN_POINT('',(0.00225,0.,-0.0545));
#294=CARTESIAN_POINT('',(0.,0.,-0.0545));
#295=CARTESIAN_POINT('',(-0.0045,0.,-0.0545));
#296=CARTESIAN_POINT('',(0.,0.,-0.02725));
#297=CARTESIAN_POINT('',(0.,0.,-0.0305));
#298=CARTESIAN_POINT('',(-0.0045,0.,-0.0305));
#299=CARTESIAN_POINT('',(0.00775,0.,-0.0305));
#300=CARTESIAN_POINT('',(0.,0.,-0.0305));
#301=CARTESIAN_POINT('',(-0.011,0.,-0.0305));
#302=CARTESIAN_POINT('',(0.,0.,-0.02725));
#303=CARTESIAN_POINT('',(0.,0.,-0.0124));
#304=CARTESIAN_POINT('',(-0.011,0.,-0.0124));
#305=CARTESIAN_POINT('',(0.0165,0.,-0.0124));
#306=CARTESIAN_POINT('',(4.33680868994202E-19,0.0175,-0.0124));
#307=CARTESIAN_POINT('',(0.0027,0.0175,-0.0124));
#308=CARTESIAN_POINT('',(-0.0151554445662277,-0.00875,-0.0124));
#309=CARTESIAN_POINT('',(-0.0124554445662277,-0.00875,-0.0124));
#310=CARTESIAN_POINT('',(0.0151554445662277,-0.00875,-0.0124));
#311=CARTESIAN_POINT('',(0.0178554445662276,-0.00875,-0.0124));
#312=CARTESIAN_POINT('',(0.,0.,-0.0124));
#313=CARTESIAN_POINT('',(-0.022,0.,-0.0124));
#314=CARTESIAN_POINT('',(0.,0.,-0.02725));
#315=CARTESIAN_POINT('',(0.,0.,-0.01));
#316=CARTESIAN_POINT('',(-0.022,0.,-0.01));
#317=CARTESIAN_POINT('',(0.0165,0.,-0.01));
#318=CARTESIAN_POINT('',(4.33680868994202E-19,0.0175,-0.01));
#319=CARTESIAN_POINT('',(0.0027,0.0175,-0.01));
#320=CARTESIAN_POINT('',(-0.0151554445662277,-0.00875,-0.01));
#321=CARTESIAN_POINT('',(-0.0124554445662277,-0.00875,-0.01));
#322=CARTESIAN_POINT('',(0.0151554445662277,-0.00875,-0.01));
#323=CARTESIAN_POINT('',(0.0178554445662276,-0.00875,-0.01));
#324=CARTESIAN_POINT('',(0.,0.,-0.01));
#325=CARTESIAN_POINT('',(-0.011,0.,-0.01));
#326=CARTESIAN_POINT('',(0.,0.,-0.02725));
#327=CARTESIAN_POINT('',(0.,0.,-0.005));
#328=CARTESIAN_POINT('',(-0.011,0.,-0.005));
#329=CARTESIAN_POINT('',(0.00775,0.,-0.005));
#330=CARTESIAN_POINT('',(0.,0.,-0.005));
#331=CARTESIAN_POINT('',(-0.0045,0.,-0.005));
#332=CARTESIAN_POINT('',(0.,0.,-0.02725));
#333=CARTESIAN_POINT('',(0.0151554445662277,-0.00875,-0.035));
#334=CARTESIAN_POINT('',(-0.0151554445662277,-0.00875,-0.035));
#335=CARTESIAN_POINT('',(4.33680868994202E-19,0.0175,-0.035));
#336=MECHANICAL_DESIGN_GEOMETRIC_PRESENTATION_REPRESENTATION('',(#185),
#337);
#337=(
GEOMETRIC_REPRESENTATION_CONTEXT(3)
GLOBAL_UNCERTAINTY_ASSIGNED_CONTEXT((#338))
GLOBAL_UNIT_ASSIGNED_CONTEXT((#341,#340,#339))
REPRESENTATION_CONTEXT('Part 1','TOP_LEVEL_ASSEMBLY_PART')
);
#338=UNCERTAINTY_MEASURE_WITH_UNIT(LENGTH_MEASURE(1.E-8),#341,
'DISTANCE_ACCURACY_VALUE','Maximum Tolerance applied to model');
#339=(
NAMED_UNIT(*)
SI_UNIT($,.STERADIAN.)
SOLID_ANGLE_UNIT()
);
#340=(
NAMED_UNIT(*)
PLANE_ANGLE_UNIT()
SI_UNIT($,.RADIAN.)
);
#341=(
LENGTH_UNIT()
NAMED_UNIT(*)
SI_UNIT($,.METRE.)
);
#342=PRODUCT_DEFINITION_SHAPE('','',#343);
#343=PRODUCT_DEFINITION('','',#345,#344);
#344=PRODUCT_DEFINITION_CONTEXT('',#351,'design');
#345=PRODUCT_DEFINITION_FORMATION_WITH_SPECIFIED_SOURCE('','',#347,
 .NOT_KNOWN.);
#346=PRODUCT_RELATED_PRODUCT_CATEGORY('','',(#347));
#347=PRODUCT('Part 1','Part 1','Part 1',(#349));
#348=PRODUCT_CATEGORY('','');
#349=PRODUCT_CONTEXT('',#351,'mechanical');
#350=APPLICATION_PROTOCOL_DEFINITION('international standard',
'ap242_managed_model_based_3d_engineering',2011,#351);
#351=APPLICATION_CONTEXT('managed model based 3d engineering');
ENDSEC;
END-ISO-10303-21;
