ISO-10303-21;
HEADER;
/* Generated by software containing ST-Developer
 * from STEP Tools, Inc. (www.steptools.com) 
 */
/* OPTION: using custom renumber hook */

FILE_DESCRIPTION(
/* description */ ('STEP AP242',
'CAx-IF Rec.Pracs.---Representation and Presentation of Product Manufa
cturing Information (PMI)---4.0---2014-10-13',
'CAx-IF Rec.Pracs.---3D Tessellated Geometry---0.4---2014-09-14','2;1'),

/* implementation_level */ '2;1');

FILE_NAME(
/* name */ '6887adfcc2c7e47ac8c7e8c4',
/* time_stamp */ '2025-07-28T17:06:04Z',
/* author */ (''),
/* organization */ (''),
/* preprocessor_version */ 'ST-DEVELOPER v20',
/* originating_system */ 'ONSHAPE BY PTC INC, 1.201',
/* authorisation */ '  ');

FILE_SCHEMA (('AP242_MANAGED_MODEL_BASED_3D_ENGINEERING_MIM_LF { 1 0 10303 442 1 1 4 }'));
ENDSEC;

DATA;
#10=SHAPE_REPRESENTATION_RELATIONSHIP('','',#235,#11);
#11=ADVANCED_BREP_SHAPE_REPRESENTATION('',(#233),#381);
#12=CYLINDRICAL_SURFACE('',#239,0.0075);
#13=CYLINDRICAL_SURFACE('',#247,0.00375);
#14=CYLINDRICAL_SURFACE('',#255,0.002);
#15=CYLINDRICAL_SURFACE('',#256,0.002);
#16=LINE('',#323,#36);
#17=LINE('',#326,#37);
#18=LINE('',#328,#38);
#19=LINE('',#330,#39);
#20=LINE('',#334,#40);
#21=LINE('',#340,#41);
#22=LINE('',#342,#42);
#23=LINE('',#344,#43);
#24=LINE('',#346,#44);
#25=LINE('',#348,#45);
#26=LINE('',#350,#46);
#27=LINE('',#354,#47);
#28=LINE('',#356,#48);
#29=LINE('',#358,#49);
#30=LINE('',#362,#50);
#31=LINE('',#368,#51);
#32=LINE('',#370,#52);
#33=LINE('',#372,#53);
#34=LINE('',#374,#54);
#35=LINE('',#375,#55);
#36=VECTOR('',#263,1.);
#37=VECTOR('',#264,1.);
#38=VECTOR('',#265,1.);
#39=VECTOR('',#266,1.);
#40=VECTOR('',#271,1.);
#41=VECTOR('',#278,1.);
#42=VECTOR('',#279,1.);
#43=VECTOR('',#280,1.);
#44=VECTOR('',#283,1.);
#45=VECTOR('',#284,1.);
#46=VECTOR('',#285,1.);
#47=VECTOR('',#290,1.);
#48=VECTOR('',#291,1.);
#49=VECTOR('',#292,1.);
#50=VECTOR('',#297,1.);
#51=VECTOR('',#304,1.);
#52=VECTOR('',#305,1.);
#53=VECTOR('',#306,1.);
#54=VECTOR('',#309,1.);
#55=VECTOR('',#310,1.);
#56=ORIENTED_EDGE('',*,*,#112,.F.);
#57=ORIENTED_EDGE('',*,*,#113,.T.);
#58=ORIENTED_EDGE('',*,*,#114,.F.);
#59=ORIENTED_EDGE('',*,*,#115,.F.);
#60=ORIENTED_EDGE('',*,*,#116,.T.);
#61=ORIENTED_EDGE('',*,*,#117,.T.);
#62=ORIENTED_EDGE('',*,*,#118,.F.);
#63=ORIENTED_EDGE('',*,*,#119,.F.);
#64=ORIENTED_EDGE('',*,*,#114,.T.);
#65=ORIENTED_EDGE('',*,*,#120,.T.);
#66=ORIENTED_EDGE('',*,*,#121,.F.);
#67=ORIENTED_EDGE('',*,*,#122,.F.);
#68=ORIENTED_EDGE('',*,*,#123,.T.);
#69=ORIENTED_EDGE('',*,*,#118,.T.);
#70=ORIENTED_EDGE('',*,*,#124,.F.);
#71=ORIENTED_EDGE('',*,*,#125,.F.);
#72=ORIENTED_EDGE('',*,*,#126,.T.);
#73=ORIENTED_EDGE('',*,*,#122,.T.);
#74=ORIENTED_EDGE('',*,*,#127,.T.);
#75=ORIENTED_EDGE('',*,*,#128,.F.);
#76=ORIENTED_EDGE('',*,*,#129,.F.);
#77=ORIENTED_EDGE('',*,*,#130,.T.);
#78=ORIENTED_EDGE('',*,*,#125,.T.);
#79=ORIENTED_EDGE('',*,*,#131,.F.);
#80=ORIENTED_EDGE('',*,*,#132,.F.);
#81=ORIENTED_EDGE('',*,*,#133,.T.);
#82=ORIENTED_EDGE('',*,*,#129,.T.);
#83=ORIENTED_EDGE('',*,*,#134,.F.);
#84=ORIENTED_EDGE('',*,*,#135,.F.);
#85=ORIENTED_EDGE('',*,*,#136,.F.);
#86=ORIENTED_EDGE('',*,*,#137,.T.);
#87=ORIENTED_EDGE('',*,*,#132,.T.);
#88=ORIENTED_EDGE('',*,*,#138,.T.);
#89=ORIENTED_EDGE('',*,*,#116,.F.);
#90=ORIENTED_EDGE('',*,*,#139,.F.);
#91=ORIENTED_EDGE('',*,*,#136,.T.);
#92=ORIENTED_EDGE('',*,*,#115,.T.);
#93=ORIENTED_EDGE('',*,*,#119,.T.);
#94=ORIENTED_EDGE('',*,*,#123,.F.);
#95=ORIENTED_EDGE('',*,*,#126,.F.);
#96=ORIENTED_EDGE('',*,*,#130,.F.);
#97=ORIENTED_EDGE('',*,*,#133,.F.);
#98=ORIENTED_EDGE('',*,*,#137,.F.);
#99=ORIENTED_EDGE('',*,*,#139,.T.);
#100=ORIENTED_EDGE('',*,*,#113,.F.);
#101=ORIENTED_EDGE('',*,*,#138,.F.);
#102=ORIENTED_EDGE('',*,*,#135,.T.);
#103=ORIENTED_EDGE('',*,*,#131,.T.);
#104=ORIENTED_EDGE('',*,*,#128,.T.);
#105=ORIENTED_EDGE('',*,*,#124,.T.);
#106=ORIENTED_EDGE('',*,*,#121,.T.);
#107=ORIENTED_EDGE('',*,*,#117,.F.);
#108=ORIENTED_EDGE('',*,*,#134,.T.);
#109=ORIENTED_EDGE('',*,*,#112,.T.);
#110=ORIENTED_EDGE('',*,*,#127,.F.);
#111=ORIENTED_EDGE('',*,*,#120,.F.);
#112=EDGE_CURVE('',#140,#140,#160,.T.);
#113=EDGE_CURVE('',#141,#142,#16,.T.);
#114=EDGE_CURVE('',#143,#142,#17,.T.);
#115=EDGE_CURVE('',#144,#143,#18,.T.);
#116=EDGE_CURVE('',#144,#141,#19,.T.);
#117=EDGE_CURVE('',#142,#145,#161,.T.);
#118=EDGE_CURVE('',#146,#145,#20,.T.);
#119=EDGE_CURVE('',#143,#146,#162,.T.);
#120=EDGE_CURVE('',#147,#147,#163,.T.);
#121=EDGE_CURVE('',#148,#145,#21,.T.);
#122=EDGE_CURVE('',#149,#148,#22,.T.);
#123=EDGE_CURVE('',#149,#146,#23,.T.);
#124=EDGE_CURVE('',#150,#148,#24,.T.);
#125=EDGE_CURVE('',#151,#150,#25,.T.);
#126=EDGE_CURVE('',#151,#149,#26,.T.);
#127=EDGE_CURVE('',#152,#152,#164,.F.);
#128=EDGE_CURVE('',#153,#150,#27,.T.);
#129=EDGE_CURVE('',#154,#153,#28,.T.);
#130=EDGE_CURVE('',#154,#151,#29,.T.);
#131=EDGE_CURVE('',#155,#153,#165,.T.);
#132=EDGE_CURVE('',#156,#155,#30,.T.);
#133=EDGE_CURVE('',#156,#154,#166,.T.);
#134=EDGE_CURVE('',#157,#157,#167,.T.);
#135=EDGE_CURVE('',#158,#155,#31,.T.);
#136=EDGE_CURVE('',#159,#158,#32,.T.);
#137=EDGE_CURVE('',#159,#156,#33,.T.);
#138=EDGE_CURVE('',#158,#141,#34,.T.);
#139=EDGE_CURVE('',#159,#144,#35,.T.);
#140=VERTEX_POINT('',#322);
#141=VERTEX_POINT('',#324);
#142=VERTEX_POINT('',#325);
#143=VERTEX_POINT('',#327);
#144=VERTEX_POINT('',#329);
#145=VERTEX_POINT('',#333);
#146=VERTEX_POINT('',#335);
#147=VERTEX_POINT('',#339);
#148=VERTEX_POINT('',#341);
#149=VERTEX_POINT('',#343);
#150=VERTEX_POINT('',#347);
#151=VERTEX_POINT('',#349);
#152=VERTEX_POINT('',#353);
#153=VERTEX_POINT('',#355);
#154=VERTEX_POINT('',#357);
#155=VERTEX_POINT('',#361);
#156=VERTEX_POINT('',#363);
#157=VERTEX_POINT('',#367);
#158=VERTEX_POINT('',#369);
#159=VERTEX_POINT('',#371);
#160=CIRCLE('',#238,0.002);
#161=CIRCLE('',#240,0.0075);
#162=CIRCLE('',#241,0.0075);
#163=CIRCLE('',#243,0.002);
#164=CIRCLE('',#246,0.002);
#165=CIRCLE('',#248,0.00375);
#166=CIRCLE('',#249,0.00375);
#167=CIRCLE('',#251,0.002);
#168=EDGE_LOOP('',(#56));
#169=EDGE_LOOP('',(#57,#58,#59,#60));
#170=EDGE_LOOP('',(#61,#62,#63,#64));
#171=EDGE_LOOP('',(#65));
#172=EDGE_LOOP('',(#66,#67,#68,#69));
#173=EDGE_LOOP('',(#70,#71,#72,#73));
#174=EDGE_LOOP('',(#74));
#175=EDGE_LOOP('',(#75,#76,#77,#78));
#176=EDGE_LOOP('',(#79,#80,#81,#82));
#177=EDGE_LOOP('',(#83));
#178=EDGE_LOOP('',(#84,#85,#86,#87));
#179=EDGE_LOOP('',(#88,#89,#90,#91));
#180=EDGE_LOOP('',(#92,#93,#94,#95,#96,#97,#98,#99));
#181=EDGE_LOOP('',(#100,#101,#102,#103,#104,#105,#106,#107));
#182=EDGE_LOOP('',(#108));
#183=EDGE_LOOP('',(#109));
#184=EDGE_LOOP('',(#110));
#185=EDGE_LOOP('',(#111));
#186=FACE_BOUND('',#168,.T.);
#187=FACE_BOUND('',#169,.T.);
#188=FACE_BOUND('',#170,.T.);
#189=FACE_BOUND('',#171,.T.);
#190=FACE_BOUND('',#172,.T.);
#191=FACE_BOUND('',#173,.T.);
#192=FACE_BOUND('',#174,.T.);
#193=FACE_BOUND('',#175,.T.);
#194=FACE_BOUND('',#176,.T.);
#195=FACE_BOUND('',#177,.T.);
#196=FACE_BOUND('',#178,.T.);
#197=FACE_BOUND('',#179,.T.);
#198=FACE_BOUND('',#180,.T.);
#199=FACE_BOUND('',#181,.T.);
#200=FACE_BOUND('',#182,.T.);
#201=FACE_BOUND('',#183,.T.);
#202=FACE_BOUND('',#184,.T.);
#203=FACE_BOUND('',#185,.T.);
#204=PLANE('',#237);
#205=PLANE('',#242);
#206=PLANE('',#244);
#207=PLANE('',#245);
#208=PLANE('',#250);
#209=PLANE('',#252);
#210=PLANE('',#253);
#211=PLANE('',#254);
#212=ADVANCED_FACE('',(#186,#187),#204,.F.);
#213=ADVANCED_FACE('',(#188),#12,.T.);
#214=ADVANCED_FACE('',(#189,#190),#205,.T.);
#215=ADVANCED_FACE('',(#191),#206,.T.);
#216=ADVANCED_FACE('',(#192,#193),#207,.T.);
#217=ADVANCED_FACE('',(#194),#13,.F.);
#218=ADVANCED_FACE('',(#195,#196),#208,.T.);
#219=ADVANCED_FACE('',(#197),#209,.F.);
#220=ADVANCED_FACE('',(#198),#210,.T.);
#221=ADVANCED_FACE('',(#199),#211,.F.);
#222=ADVANCED_FACE('',(#200,#201),#14,.F.);
#223=ADVANCED_FACE('',(#202,#203),#15,.F.);
#224=CLOSED_SHELL('',(#212,#213,#214,#215,#216,#217,#218,#219,#220,#221,
#222,#223));
#225=STYLED_ITEM('',(#226),#233);
#226=PRESENTATION_STYLE_ASSIGNMENT((#227));
#227=SURFACE_STYLE_USAGE(.BOTH.,#228);
#228=SURFACE_SIDE_STYLE('',(#229));
#229=SURFACE_STYLE_FILL_AREA(#230);
#230=FILL_AREA_STYLE('',(#231));
#231=FILL_AREA_STYLE_COLOUR('',#232);
#232=COLOUR_RGB('',0.4,0.4,0.4);
#233=MANIFOLD_SOLID_BREP('Part 1',#224);
#234=SHAPE_DEFINITION_REPRESENTATION(#386,#235);
#235=SHAPE_REPRESENTATION('Part 1',(#236),#381);
#236=AXIS2_PLACEMENT_3D('',#319,#257,#258);
#237=AXIS2_PLACEMENT_3D('',#320,#259,#260);
#238=AXIS2_PLACEMENT_3D('',#321,#261,#262);
#239=AXIS2_PLACEMENT_3D('',#331,#267,#268);
#240=AXIS2_PLACEMENT_3D('',#332,#269,#270);
#241=AXIS2_PLACEMENT_3D('',#336,#272,#273);
#242=AXIS2_PLACEMENT_3D('',#337,#274,#275);
#243=AXIS2_PLACEMENT_3D('',#338,#276,#277);
#244=AXIS2_PLACEMENT_3D('',#345,#281,#282);
#245=AXIS2_PLACEMENT_3D('',#351,#286,#287);
#246=AXIS2_PLACEMENT_3D('',#352,#288,#289);
#247=AXIS2_PLACEMENT_3D('',#359,#293,#294);
#248=AXIS2_PLACEMENT_3D('',#360,#295,#296);
#249=AXIS2_PLACEMENT_3D('',#364,#298,#299);
#250=AXIS2_PLACEMENT_3D('',#365,#300,#301);
#251=AXIS2_PLACEMENT_3D('',#366,#302,#303);
#252=AXIS2_PLACEMENT_3D('',#373,#307,#308);
#253=AXIS2_PLACEMENT_3D('',#376,#311,#312);
#254=AXIS2_PLACEMENT_3D('',#377,#313,#314);
#255=AXIS2_PLACEMENT_3D('',#378,#315,#316);
#256=AXIS2_PLACEMENT_3D('',#379,#317,#318);
#257=DIRECTION('',(0.,0.,1.));
#258=DIRECTION('',(1.,0.,0.));
#259=DIRECTION('',(0.,-1.,0.));
#260=DIRECTION('',(0.,0.,-1.));
#261=DIRECTION('',(0.,1.,0.));
#262=DIRECTION('',(0.,0.,1.));
#263=DIRECTION('',(-1.,0.,0.));
#264=DIRECTION('',(0.,0.,-1.));
#265=DIRECTION('',(-1.,0.,0.));
#266=DIRECTION('',(0.,0.,-1.));
#267=DIRECTION('',(0.,0.,-1.));
#268=DIRECTION('',(-1.,0.,0.));
#269=DIRECTION('',(0.,0.,1.));
#270=DIRECTION('',(1.,0.,0.));
#271=DIRECTION('',(0.,0.,-1.));
#272=DIRECTION('',(0.,0.,1.));
#273=DIRECTION('',(1.,0.,0.));
#274=DIRECTION('',(0.,1.,0.));
#275=DIRECTION('',(0.,0.,1.));
#276=DIRECTION('',(0.,-1.,0.));
#277=DIRECTION('',(0.,0.,1.));
#278=DIRECTION('',(1.,0.,0.));
#279=DIRECTION('',(0.,0.,-1.));
#280=DIRECTION('',(1.,0.,0.));
#281=DIRECTION('',(-1.,0.,0.));
#282=DIRECTION('',(0.,0.,1.));
#283=DIRECTION('',(0.,1.,0.));
#284=DIRECTION('',(0.,0.,-1.));
#285=DIRECTION('',(0.,1.,0.));
#286=DIRECTION('',(0.,-1.,0.));
#287=DIRECTION('',(0.,0.,-1.));
#288=DIRECTION('',(0.,-1.,0.));
#289=DIRECTION('',(0.,0.,-1.));
#290=DIRECTION('',(-1.,0.,0.));
#291=DIRECTION('',(0.,0.,-1.));
#292=DIRECTION('',(-1.,0.,0.));
#293=DIRECTION('',(0.,0.,-1.));
#294=DIRECTION('',(-1.,0.,0.));
#295=DIRECTION('',(0.,0.,1.));
#296=DIRECTION('',(1.,0.,0.));
#297=DIRECTION('',(0.,0.,-1.));
#298=DIRECTION('',(0.,0.,1.));
#299=DIRECTION('',(1.,0.,0.));
#300=DIRECTION('',(0.,-1.,0.));
#301=DIRECTION('',(0.,0.,-1.));
#302=DIRECTION('',(0.,-1.,0.));
#303=DIRECTION('',(0.,0.,-1.));
#304=DIRECTION('',(-1.,0.,0.));
#305=DIRECTION('',(0.,0.,-1.));
#306=DIRECTION('',(-1.,0.,0.));
#307=DIRECTION('',(-1.,0.,0.));
#308=DIRECTION('',(0.,0.,1.));
#309=DIRECTION('',(0.,1.,0.));
#310=DIRECTION('',(0.,1.,0.));
#311=DIRECTION('',(0.,0.,1.));
#312=DIRECTION('',(1.,0.,0.));
#313=DIRECTION('',(0.,0.,1.));
#314=DIRECTION('',(1.,0.,0.));
#315=DIRECTION('',(0.,1.,0.));
#316=DIRECTION('',(0.,0.,1.));
#317=DIRECTION('',(0.,1.,0.));
#318=DIRECTION('',(0.,0.,1.));
#319=CARTESIAN_POINT('',(0.,0.,0.));
#320=CARTESIAN_POINT('',(0.0121869317712169,0.003,0.015));
#321=CARTESIAN_POINT('',(0.0125,0.003,0.0075));
#322=CARTESIAN_POINT('',(0.0125,0.003,0.0095));
#323=CARTESIAN_POINT('',(0.0121869317712169,0.003,0.));
#324=CARTESIAN_POINT('',(0.0175,0.003,0.));
#325=CARTESIAN_POINT('',(0.00687386354243376,0.003,0.));
#326=CARTESIAN_POINT('',(0.00687386354243376,0.003,0.015));
#327=CARTESIAN_POINT('',(0.00687386354243376,0.003,0.015));
#328=CARTESIAN_POINT('',(0.0121869317712169,0.003,0.015));
#329=CARTESIAN_POINT('',(0.0175,0.003,0.015));
#330=CARTESIAN_POINT('',(0.0175,0.003,0.015));
#331=CARTESIAN_POINT('',(6.93889390390723E-18,0.,0.015));
#332=CARTESIAN_POINT('',(6.93889390390723E-18,0.,0.));
#333=CARTESIAN_POINT('',(-0.00687386354243376,0.003,0.));
#334=CARTESIAN_POINT('',(-0.00687386354243376,0.003,0.015));
#335=CARTESIAN_POINT('',(-0.00687386354243376,0.003,0.015));
#336=CARTESIAN_POINT('',(6.93889390390723E-18,0.,0.015));
#337=CARTESIAN_POINT('',(-0.0121869317712169,0.003,0.015));
#338=CARTESIAN_POINT('',(-0.0125,0.003,0.0075));
#339=CARTESIAN_POINT('',(-0.0125,0.003,0.0095));
#340=CARTESIAN_POINT('',(-0.0121869317712169,0.003,0.));
#341=CARTESIAN_POINT('',(-0.0175,0.003,0.));
#342=CARTESIAN_POINT('',(-0.0175,0.003,0.015));
#343=CARTESIAN_POINT('',(-0.0175,0.003,0.015));
#344=CARTESIAN_POINT('',(-0.0121869317712169,0.003,0.015));
#345=CARTESIAN_POINT('',(-0.0175,0.0015,0.015));
#346=CARTESIAN_POINT('',(-0.0175,0.0015,0.));
#347=CARTESIAN_POINT('',(-0.0175,0.,0.));
#348=CARTESIAN_POINT('',(-0.0175,0.,0.015));
#349=CARTESIAN_POINT('',(-0.0175,0.,0.015));
#350=CARTESIAN_POINT('',(-0.0175,0.0015,0.015));
#351=CARTESIAN_POINT('',(-0.0125,0.,0.015));
#352=CARTESIAN_POINT('',(-0.0125,0.,0.0075));
#353=CARTESIAN_POINT('',(-0.0125,0.,0.0055));
#354=CARTESIAN_POINT('',(-0.0125,0.,0.));
#355=CARTESIAN_POINT('',(-0.00375,4.59242549680257E-19,0.));
#356=CARTESIAN_POINT('',(-0.00375,4.59242549680257E-19,0.015));
#357=CARTESIAN_POINT('',(-0.00375,4.59242549680257E-19,0.015));
#358=CARTESIAN_POINT('',(-0.0125,0.,0.015));
#359=CARTESIAN_POINT('',(0.,2.29621274840129E-19,0.015));
#360=CARTESIAN_POINT('',(0.,2.29621274840129E-19,0.));
#361=CARTESIAN_POINT('',(0.00375,0.,0.));
#362=CARTESIAN_POINT('',(0.00375,0.,0.015));
#363=CARTESIAN_POINT('',(0.00375,0.,0.015));
#364=CARTESIAN_POINT('',(0.,2.29621274840129E-19,0.015));
#365=CARTESIAN_POINT('',(0.005625,0.,0.015));
#366=CARTESIAN_POINT('',(0.0125,0.,0.0075));
#367=CARTESIAN_POINT('',(0.0125,0.,0.0055));
#368=CARTESIAN_POINT('',(0.005625,0.,0.));
#369=CARTESIAN_POINT('',(0.0175,0.,0.));
#370=CARTESIAN_POINT('',(0.0175,0.,0.015));
#371=CARTESIAN_POINT('',(0.0175,0.,0.015));
#372=CARTESIAN_POINT('',(0.005625,0.,0.015));
#373=CARTESIAN_POINT('',(0.0175,0.0015,0.015));
#374=CARTESIAN_POINT('',(0.0175,0.0015,0.));
#375=CARTESIAN_POINT('',(0.0175,0.0015,0.015));
#376=CARTESIAN_POINT('',(0.,0.00375,0.015));
#377=CARTESIAN_POINT('',(0.,0.00375,0.));
#378=CARTESIAN_POINT('',(0.0125,-0.022,0.0075));
#379=CARTESIAN_POINT('',(-0.0125,-0.022,0.0075));
#380=MECHANICAL_DESIGN_GEOMETRIC_PRESENTATION_REPRESENTATION('',(#225),
#381);
#381=(
GEOMETRIC_REPRESENTATION_CONTEXT(3)
GLOBAL_UNCERTAINTY_ASSIGNED_CONTEXT((#382))
GLOBAL_UNIT_ASSIGNED_CONTEXT((#385,#384,#383))
REPRESENTATION_CONTEXT('Part 1','TOP_LEVEL_ASSEMBLY_PART')
);
#382=UNCERTAINTY_MEASURE_WITH_UNIT(LENGTH_MEASURE(1.E-8),#385,
'DISTANCE_ACCURACY_VALUE','Maximum Tolerance applied to model');
#383=(
NAMED_UNIT(*)
SI_UNIT($,.STERADIAN.)
SOLID_ANGLE_UNIT()
);
#384=(
NAMED_UNIT(*)
PLANE_ANGLE_UNIT()
SI_UNIT($,.RADIAN.)
);
#385=(
LENGTH_UNIT()
NAMED_UNIT(*)
SI_UNIT($,.METRE.)
);
#386=PRODUCT_DEFINITION_SHAPE('','',#387);
#387=PRODUCT_DEFINITION('','',#389,#388);
#388=PRODUCT_DEFINITION_CONTEXT('',#395,'design');
#389=PRODUCT_DEFINITION_FORMATION_WITH_SPECIFIED_SOURCE('','',#391,
 .NOT_KNOWN.);
#390=PRODUCT_RELATED_PRODUCT_CATEGORY('','',(#391));
#391=PRODUCT('Part 1','Part 1','Part 1',(#393));
#392=PRODUCT_CATEGORY('','');
#393=PRODUCT_CONTEXT('',#395,'mechanical');
#394=APPLICATION_PROTOCOL_DEFINITION('international standard',
'ap242_managed_model_based_3d_engineering',2011,#395);
#395=APPLICATION_CONTEXT('managed model based 3d engineering');
ENDSEC;
END-ISO-10303-21;
