ISO-10303-21;
HEADER;
/* Generated by software containing ST-Developer
 * from STEP Tools, Inc. (www.steptools.com) 
 */
/* OPTION: using custom renumber hook */

FILE_DESCRIPTION(
/* description */ ('STEP AP242',
'CAx-IF Rec.Pracs.---Representation and Presentation of Product Manufa
cturing Information (PMI)---4.0---2014-10-13',
'CAx-IF Rec.Pracs.---3D Tessellated Geometry---0.4---2014-09-14','2;1'),

/* implementation_level */ '2;1');

FILE_NAME(
/* name */ '6887ae0ed05deb5ff8cefa31',
/* time_stamp */ '2025-07-28T17:06:23Z',
/* author */ (''),
/* organization */ (''),
/* preprocessor_version */ 'ST-DEVELOPER v20',
/* originating_system */ 'ONSHAPE BY PTC INC, 1.201',
/* authorisation */ '  ');

FILE_SCHEMA (('AP242_MANAGED_MODEL_BASED_3D_ENGINEERING_MIM_LF { 1 0 10303 442 1 1 4 }'));
ENDSEC;

DATA;
#10=SHAPE_REPRESENTATION_RELATIONSHIP('','',#449,#11);
#11=ADVANCED_BREP_SHAPE_REPRESENTATION('',(#447),#731);
#12=CYLINDRICAL_SURFACE('',#461,0.019);
#13=CYLINDRICAL_SURFACE('',#463,0.0015);
#14=CYLINDRICAL_SURFACE('',#465,0.011);
#15=CYLINDRICAL_SURFACE('',#467,0.0015);
#16=CYLINDRICAL_SURFACE('',#469,0.0015);
#17=CYLINDRICAL_SURFACE('',#471,0.0015);
#18=CYLINDRICAL_SURFACE('',#478,0.00375);
#19=CYLINDRICAL_SURFACE('',#490,0.002);
#20=CYLINDRICAL_SURFACE('',#491,0.002);
#21=LINE('',#624,#57);
#22=LINE('',#627,#58);
#23=LINE('',#629,#59);
#24=LINE('',#631,#60);
#25=LINE('',#635,#61);
#26=LINE('',#637,#62);
#27=LINE('',#639,#63);
#28=LINE('',#641,#64);
#29=LINE('',#643,#65);
#30=LINE('',#645,#66);
#31=LINE('',#649,#67);
#32=LINE('',#651,#68);
#33=LINE('',#653,#69);
#34=LINE('',#655,#70);
#35=LINE('',#656,#71);
#36=LINE('',#658,#72);
#37=LINE('',#660,#73);
#38=LINE('',#662,#74);
#39=LINE('',#664,#75);
#40=LINE('',#683,#76);
#41=LINE('',#686,#77);
#42=LINE('',#688,#78);
#43=LINE('',#692,#79);
#44=LINE('',#694,#80);
#45=LINE('',#696,#81);
#46=LINE('',#700,#82);
#47=LINE('',#704,#83);
#48=LINE('',#706,#84);
#49=LINE('',#708,#85);
#50=LINE('',#710,#86);
#51=LINE('',#712,#87);
#52=LINE('',#714,#88);
#53=LINE('',#715,#89);
#54=LINE('',#717,#90);
#55=LINE('',#721,#91);
#56=LINE('',#726,#92);
#57=VECTOR('',#506,1.);
#58=VECTOR('',#507,1.);
#59=VECTOR('',#508,1.);
#60=VECTOR('',#509,1.);
#61=VECTOR('',#512,1.);
#62=VECTOR('',#515,1.);
#63=VECTOR('',#516,1.);
#64=VECTOR('',#517,1.);
#65=VECTOR('',#518,1.);
#66=VECTOR('',#519,1.);
#67=VECTOR('',#522,1.);
#68=VECTOR('',#523,1.);
#69=VECTOR('',#524,1.);
#70=VECTOR('',#525,1.);
#71=VECTOR('',#526,1.);
#72=VECTOR('',#527,1.);
#73=VECTOR('',#530,1.);
#74=VECTOR('',#531,1.);
#75=VECTOR('',#534,1.);
#76=VECTOR('',#559,1.);
#77=VECTOR('',#564,1.);
#78=VECTOR('',#565,1.);
#79=VECTOR('',#570,1.);
#80=VECTOR('',#571,1.);
#81=VECTOR('',#572,1.);
#82=VECTOR('',#577,1.);
#83=VECTOR('',#582,1.);
#84=VECTOR('',#583,1.);
#85=VECTOR('',#586,1.);
#86=VECTOR('',#587,1.);
#87=VECTOR('',#590,1.);
#88=VECTOR('',#591,1.);
#89=VECTOR('',#592,1.);
#90=VECTOR('',#593,1.);
#91=VECTOR('',#598,1.);
#92=VECTOR('',#605,1.);
#93=ORIENTED_EDGE('',*,*,#201,.T.);
#94=ORIENTED_EDGE('',*,*,#202,.T.);
#95=ORIENTED_EDGE('',*,*,#203,.T.);
#96=ORIENTED_EDGE('',*,*,#204,.T.);
#97=ORIENTED_EDGE('',*,*,#205,.T.);
#98=ORIENTED_EDGE('',*,*,#206,.F.);
#99=ORIENTED_EDGE('',*,*,#207,.T.);
#100=ORIENTED_EDGE('',*,*,#208,.T.);
#101=ORIENTED_EDGE('',*,*,#209,.T.);
#102=ORIENTED_EDGE('',*,*,#210,.F.);
#103=ORIENTED_EDGE('',*,*,#211,.F.);
#104=ORIENTED_EDGE('',*,*,#212,.T.);
#105=ORIENTED_EDGE('',*,*,#213,.F.);
#106=ORIENTED_EDGE('',*,*,#214,.F.);
#107=ORIENTED_EDGE('',*,*,#215,.F.);
#108=ORIENTED_EDGE('',*,*,#216,.T.);
#109=ORIENTED_EDGE('',*,*,#217,.F.);
#110=ORIENTED_EDGE('',*,*,#218,.T.);
#111=ORIENTED_EDGE('',*,*,#219,.F.);
#112=ORIENTED_EDGE('',*,*,#220,.T.);
#113=ORIENTED_EDGE('',*,*,#221,.F.);
#114=ORIENTED_EDGE('',*,*,#222,.F.);
#115=ORIENTED_EDGE('',*,*,#223,.T.);
#116=ORIENTED_EDGE('',*,*,#211,.T.);
#117=ORIENTED_EDGE('',*,*,#224,.F.);
#118=ORIENTED_EDGE('',*,*,#225,.F.);
#119=ORIENTED_EDGE('',*,*,#222,.T.);
#120=ORIENTED_EDGE('',*,*,#210,.T.);
#121=ORIENTED_EDGE('',*,*,#226,.F.);
#122=ORIENTED_EDGE('',*,*,#227,.F.);
#123=ORIENTED_EDGE('',*,*,#224,.T.);
#124=ORIENTED_EDGE('',*,*,#228,.T.);
#125=ORIENTED_EDGE('',*,*,#201,.F.);
#126=ORIENTED_EDGE('',*,*,#229,.T.);
#127=ORIENTED_EDGE('',*,*,#202,.F.);
#128=ORIENTED_EDGE('',*,*,#230,.T.);
#129=ORIENTED_EDGE('',*,*,#203,.F.);
#130=ORIENTED_EDGE('',*,*,#231,.T.);
#131=ORIENTED_EDGE('',*,*,#204,.F.);
#132=ORIENTED_EDGE('',*,*,#232,.T.);
#133=ORIENTED_EDGE('',*,*,#205,.F.);
#134=ORIENTED_EDGE('',*,*,#209,.F.);
#135=ORIENTED_EDGE('',*,*,#212,.F.);
#136=ORIENTED_EDGE('',*,*,#233,.T.);
#137=ORIENTED_EDGE('',*,*,#226,.T.);
#138=ORIENTED_EDGE('',*,*,#232,.F.);
#139=ORIENTED_EDGE('',*,*,#231,.F.);
#140=ORIENTED_EDGE('',*,*,#230,.F.);
#141=ORIENTED_EDGE('',*,*,#229,.F.);
#142=ORIENTED_EDGE('',*,*,#228,.F.);
#143=ORIENTED_EDGE('',*,*,#223,.F.);
#144=ORIENTED_EDGE('',*,*,#225,.T.);
#145=ORIENTED_EDGE('',*,*,#227,.T.);
#146=ORIENTED_EDGE('',*,*,#233,.F.);
#147=ORIENTED_EDGE('',*,*,#234,.F.);
#148=ORIENTED_EDGE('',*,*,#235,.T.);
#149=ORIENTED_EDGE('',*,*,#213,.T.);
#150=ORIENTED_EDGE('',*,*,#208,.F.);
#151=ORIENTED_EDGE('',*,*,#236,.T.);
#152=ORIENTED_EDGE('',*,*,#216,.F.);
#153=ORIENTED_EDGE('',*,*,#237,.F.);
#154=ORIENTED_EDGE('',*,*,#238,.T.);
#155=ORIENTED_EDGE('',*,*,#239,.T.);
#156=ORIENTED_EDGE('',*,*,#217,.T.);
#157=ORIENTED_EDGE('',*,*,#239,.F.);
#158=ORIENTED_EDGE('',*,*,#240,.F.);
#159=ORIENTED_EDGE('',*,*,#241,.T.);
#160=ORIENTED_EDGE('',*,*,#242,.F.);
#161=ORIENTED_EDGE('',*,*,#218,.F.);
#162=ORIENTED_EDGE('',*,*,#241,.F.);
#163=ORIENTED_EDGE('',*,*,#243,.T.);
#164=ORIENTED_EDGE('',*,*,#244,.T.);
#165=ORIENTED_EDGE('',*,*,#221,.T.);
#166=ORIENTED_EDGE('',*,*,#245,.T.);
#167=ORIENTED_EDGE('',*,*,#246,.F.);
#168=ORIENTED_EDGE('',*,*,#206,.T.);
#169=ORIENTED_EDGE('',*,*,#238,.F.);
#170=ORIENTED_EDGE('',*,*,#247,.T.);
#171=ORIENTED_EDGE('',*,*,#248,.T.);
#172=ORIENTED_EDGE('',*,*,#234,.T.);
#173=ORIENTED_EDGE('',*,*,#207,.F.);
#174=ORIENTED_EDGE('',*,*,#246,.T.);
#175=ORIENTED_EDGE('',*,*,#249,.F.);
#176=ORIENTED_EDGE('',*,*,#250,.T.);
#177=ORIENTED_EDGE('',*,*,#243,.F.);
#178=ORIENTED_EDGE('',*,*,#240,.T.);
#179=ORIENTED_EDGE('',*,*,#251,.T.);
#180=ORIENTED_EDGE('',*,*,#235,.F.);
#181=ORIENTED_EDGE('',*,*,#248,.F.);
#182=ORIENTED_EDGE('',*,*,#252,.T.);
#183=ORIENTED_EDGE('',*,*,#214,.T.);
#184=ORIENTED_EDGE('',*,*,#252,.F.);
#185=ORIENTED_EDGE('',*,*,#247,.F.);
#186=ORIENTED_EDGE('',*,*,#237,.T.);
#187=ORIENTED_EDGE('',*,*,#215,.T.);
#188=ORIENTED_EDGE('',*,*,#253,.F.);
#189=ORIENTED_EDGE('',*,*,#245,.F.);
#190=ORIENTED_EDGE('',*,*,#220,.F.);
#191=ORIENTED_EDGE('',*,*,#254,.T.);
#192=ORIENTED_EDGE('',*,*,#249,.T.);
#193=ORIENTED_EDGE('',*,*,#254,.F.);
#194=ORIENTED_EDGE('',*,*,#219,.T.);
#195=ORIENTED_EDGE('',*,*,#244,.F.);
#196=ORIENTED_EDGE('',*,*,#250,.F.);
#197=ORIENTED_EDGE('',*,*,#253,.T.);
#198=ORIENTED_EDGE('',*,*,#242,.T.);
#199=ORIENTED_EDGE('',*,*,#251,.F.);
#200=ORIENTED_EDGE('',*,*,#236,.F.);
#201=EDGE_CURVE('',#255,#255,#295,.T.);
#202=EDGE_CURVE('',#256,#256,#296,.T.);
#203=EDGE_CURVE('',#257,#257,#297,.T.);
#204=EDGE_CURVE('',#258,#258,#298,.T.);
#205=EDGE_CURVE('',#259,#259,#299,.T.);
#206=EDGE_CURVE('',#260,#261,#21,.T.);
#207=EDGE_CURVE('',#260,#262,#22,.T.);
#208=EDGE_CURVE('',#262,#263,#23,.T.);
#209=EDGE_CURVE('',#263,#264,#24,.T.);
#210=EDGE_CURVE('',#265,#264,#300,.T.);
#211=EDGE_CURVE('',#261,#265,#25,.T.);
#212=EDGE_CURVE('',#266,#263,#26,.T.);
#213=EDGE_CURVE('',#267,#263,#27,.T.);
#214=EDGE_CURVE('',#268,#267,#28,.T.);
#215=EDGE_CURVE('',#269,#268,#29,.T.);
#216=EDGE_CURVE('',#269,#270,#30,.T.);
#217=EDGE_CURVE('',#271,#270,#301,.T.);
#218=EDGE_CURVE('',#271,#272,#31,.T.);
#219=EDGE_CURVE('',#273,#272,#32,.T.);
#220=EDGE_CURVE('',#273,#274,#33,.T.);
#221=EDGE_CURVE('',#261,#274,#34,.T.);
#222=EDGE_CURVE('',#275,#261,#35,.T.);
#223=EDGE_CURVE('',#275,#266,#36,.T.);
#224=EDGE_CURVE('',#276,#265,#37,.T.);
#225=EDGE_CURVE('',#275,#276,#38,.T.);
#226=EDGE_CURVE('',#277,#264,#39,.T.);
#227=EDGE_CURVE('',#276,#277,#302,.T.);
#228=EDGE_CURVE('',#278,#278,#303,.T.);
#229=EDGE_CURVE('',#279,#279,#304,.T.);
#230=EDGE_CURVE('',#280,#280,#305,.T.);
#231=EDGE_CURVE('',#281,#281,#306,.T.);
#232=EDGE_CURVE('',#282,#282,#307,.T.);
#233=EDGE_CURVE('',#266,#277,#40,.T.);
#234=EDGE_CURVE('',#283,#262,#41,.T.);
#235=EDGE_CURVE('',#283,#267,#42,.T.);
#236=EDGE_CURVE('',#284,#284,#308,.T.);
#237=EDGE_CURVE('',#285,#269,#43,.T.);
#238=EDGE_CURVE('',#285,#286,#44,.T.);
#239=EDGE_CURVE('',#286,#270,#45,.T.);
#240=EDGE_CURVE('',#287,#286,#309,.T.);
#241=EDGE_CURVE('',#287,#271,#46,.T.);
#242=EDGE_CURVE('',#288,#288,#310,.T.);
#243=EDGE_CURVE('',#287,#289,#47,.T.);
#244=EDGE_CURVE('',#289,#272,#48,.T.);
#245=EDGE_CURVE('',#274,#290,#49,.T.);
#246=EDGE_CURVE('',#260,#290,#50,.T.);
#247=EDGE_CURVE('',#285,#291,#51,.T.);
#248=EDGE_CURVE('',#291,#283,#52,.T.);
#249=EDGE_CURVE('',#292,#290,#53,.T.);
#250=EDGE_CURVE('',#292,#289,#54,.T.);
#251=EDGE_CURVE('',#293,#293,#311,.F.);
#252=EDGE_CURVE('',#291,#268,#55,.T.);
#253=EDGE_CURVE('',#294,#294,#312,.T.);
#254=EDGE_CURVE('',#273,#292,#56,.T.);
#255=VERTEX_POINT('',#615);
#256=VERTEX_POINT('',#617);
#257=VERTEX_POINT('',#619);
#258=VERTEX_POINT('',#621);
#259=VERTEX_POINT('',#623);
#260=VERTEX_POINT('',#625);
#261=VERTEX_POINT('',#626);
#262=VERTEX_POINT('',#628);
#263=VERTEX_POINT('',#630);
#264=VERTEX_POINT('',#632);
#265=VERTEX_POINT('',#634);
#266=VERTEX_POINT('',#638);
#267=VERTEX_POINT('',#640);
#268=VERTEX_POINT('',#642);
#269=VERTEX_POINT('',#644);
#270=VERTEX_POINT('',#646);
#271=VERTEX_POINT('',#648);
#272=VERTEX_POINT('',#650);
#273=VERTEX_POINT('',#652);
#274=VERTEX_POINT('',#654);
#275=VERTEX_POINT('',#657);
#276=VERTEX_POINT('',#661);
#277=VERTEX_POINT('',#665);
#278=VERTEX_POINT('',#669);
#279=VERTEX_POINT('',#672);
#280=VERTEX_POINT('',#675);
#281=VERTEX_POINT('',#678);
#282=VERTEX_POINT('',#681);
#283=VERTEX_POINT('',#687);
#284=VERTEX_POINT('',#691);
#285=VERTEX_POINT('',#693);
#286=VERTEX_POINT('',#695);
#287=VERTEX_POINT('',#699);
#288=VERTEX_POINT('',#703);
#289=VERTEX_POINT('',#705);
#290=VERTEX_POINT('',#709);
#291=VERTEX_POINT('',#713);
#292=VERTEX_POINT('',#716);
#293=VERTEX_POINT('',#720);
#294=VERTEX_POINT('',#725);
#295=CIRCLE('',#452,0.0015);
#296=CIRCLE('',#453,0.011);
#297=CIRCLE('',#454,0.0015);
#298=CIRCLE('',#455,0.0015);
#299=CIRCLE('',#456,0.0015);
#300=CIRCLE('',#457,0.019);
#301=CIRCLE('',#459,0.00375);
#302=CIRCLE('',#462,0.019);
#303=CIRCLE('',#464,0.0015);
#304=CIRCLE('',#466,0.011);
#305=CIRCLE('',#468,0.0015);
#306=CIRCLE('',#470,0.0015);
#307=CIRCLE('',#472,0.0015);
#308=CIRCLE('',#477,0.002);
#309=CIRCLE('',#479,0.00375);
#310=CIRCLE('',#481,0.002);
#311=CIRCLE('',#485,0.002);
#312=CIRCLE('',#488,0.002);
#313=EDGE_LOOP('',(#93));
#314=EDGE_LOOP('',(#94));
#315=EDGE_LOOP('',(#95));
#316=EDGE_LOOP('',(#96));
#317=EDGE_LOOP('',(#97));
#318=EDGE_LOOP('',(#98,#99,#100,#101,#102,#103));
#319=EDGE_LOOP('',(#104,#105,#106,#107,#108,#109,#110,#111,#112,#113,#114,
#115));
#320=EDGE_LOOP('',(#116,#117,#118,#119));
#321=EDGE_LOOP('',(#120,#121,#122,#123));
#322=EDGE_LOOP('',(#124));
#323=EDGE_LOOP('',(#125));
#324=EDGE_LOOP('',(#126));
#325=EDGE_LOOP('',(#127));
#326=EDGE_LOOP('',(#128));
#327=EDGE_LOOP('',(#129));
#328=EDGE_LOOP('',(#130));
#329=EDGE_LOOP('',(#131));
#330=EDGE_LOOP('',(#132));
#331=EDGE_LOOP('',(#133));
#332=EDGE_LOOP('',(#134,#135,#136,#137));
#333=EDGE_LOOP('',(#138));
#334=EDGE_LOOP('',(#139));
#335=EDGE_LOOP('',(#140));
#336=EDGE_LOOP('',(#141));
#337=EDGE_LOOP('',(#142));
#338=EDGE_LOOP('',(#143,#144,#145,#146));
#339=EDGE_LOOP('',(#147,#148,#149,#150));
#340=EDGE_LOOP('',(#151));
#341=EDGE_LOOP('',(#152,#153,#154,#155));
#342=EDGE_LOOP('',(#156,#157,#158,#159));
#343=EDGE_LOOP('',(#160));
#344=EDGE_LOOP('',(#161,#162,#163,#164));
#345=EDGE_LOOP('',(#165,#166,#167,#168));
#346=EDGE_LOOP('',(#169,#170,#171,#172,#173,#174,#175,#176,#177,#178));
#347=EDGE_LOOP('',(#179));
#348=EDGE_LOOP('',(#180,#181,#182,#183));
#349=EDGE_LOOP('',(#184,#185,#186,#187));
#350=EDGE_LOOP('',(#188));
#351=EDGE_LOOP('',(#189,#190,#191,#192));
#352=EDGE_LOOP('',(#193,#194,#195,#196));
#353=EDGE_LOOP('',(#197));
#354=EDGE_LOOP('',(#198));
#355=EDGE_LOOP('',(#199));
#356=EDGE_LOOP('',(#200));
#357=FACE_BOUND('',#313,.T.);
#358=FACE_BOUND('',#314,.T.);
#359=FACE_BOUND('',#315,.T.);
#360=FACE_BOUND('',#316,.T.);
#361=FACE_BOUND('',#317,.T.);
#362=FACE_BOUND('',#318,.T.);
#363=FACE_BOUND('',#319,.T.);
#364=FACE_BOUND('',#320,.T.);
#365=FACE_BOUND('',#321,.T.);
#366=FACE_BOUND('',#322,.T.);
#367=FACE_BOUND('',#323,.T.);
#368=FACE_BOUND('',#324,.T.);
#369=FACE_BOUND('',#325,.T.);
#370=FACE_BOUND('',#326,.T.);
#371=FACE_BOUND('',#327,.T.);
#372=FACE_BOUND('',#328,.T.);
#373=FACE_BOUND('',#329,.T.);
#374=FACE_BOUND('',#330,.T.);
#375=FACE_BOUND('',#331,.T.);
#376=FACE_BOUND('',#332,.T.);
#377=FACE_BOUND('',#333,.T.);
#378=FACE_BOUND('',#334,.T.);
#379=FACE_BOUND('',#335,.T.);
#380=FACE_BOUND('',#336,.T.);
#381=FACE_BOUND('',#337,.T.);
#382=FACE_BOUND('',#338,.T.);
#383=FACE_BOUND('',#339,.T.);
#384=FACE_BOUND('',#340,.T.);
#385=FACE_BOUND('',#341,.T.);
#386=FACE_BOUND('',#342,.T.);
#387=FACE_BOUND('',#343,.T.);
#388=FACE_BOUND('',#344,.T.);
#389=FACE_BOUND('',#345,.T.);
#390=FACE_BOUND('',#346,.T.);
#391=FACE_BOUND('',#347,.T.);
#392=FACE_BOUND('',#348,.T.);
#393=FACE_BOUND('',#349,.T.);
#394=FACE_BOUND('',#350,.T.);
#395=FACE_BOUND('',#351,.T.);
#396=FACE_BOUND('',#352,.T.);
#397=FACE_BOUND('',#353,.T.);
#398=FACE_BOUND('',#354,.T.);
#399=FACE_BOUND('',#355,.T.);
#400=FACE_BOUND('',#356,.T.);
#401=PLANE('',#451);
#402=PLANE('',#458);
#403=PLANE('',#460);
#404=PLANE('',#473);
#405=PLANE('',#474);
#406=PLANE('',#475);
#407=PLANE('',#476);
#408=PLANE('',#480);
#409=PLANE('',#482);
#410=PLANE('',#483);
#411=PLANE('',#484);
#412=PLANE('',#486);
#413=PLANE('',#487);
#414=PLANE('',#489);
#415=ADVANCED_FACE('',(#357,#358,#359,#360,#361,#362),#401,.F.);
#416=ADVANCED_FACE('',(#363),#402,.T.);
#417=ADVANCED_FACE('',(#364),#403,.F.);
#418=ADVANCED_FACE('',(#365),#12,.T.);
#419=ADVANCED_FACE('',(#366,#367),#13,.F.);
#420=ADVANCED_FACE('',(#368,#369),#14,.F.);
#421=ADVANCED_FACE('',(#370,#371),#15,.F.);
#422=ADVANCED_FACE('',(#372,#373),#16,.F.);
#423=ADVANCED_FACE('',(#374,#375),#17,.F.);
#424=ADVANCED_FACE('',(#376),#404,.T.);
#425=ADVANCED_FACE('',(#377,#378,#379,#380,#381,#382),#405,.T.);
#426=ADVANCED_FACE('',(#383),#406,.F.);
#427=ADVANCED_FACE('',(#384,#385),#407,.T.);
#428=ADVANCED_FACE('',(#386),#18,.F.);
#429=ADVANCED_FACE('',(#387,#388),#408,.T.);
#430=ADVANCED_FACE('',(#389),#409,.F.);
#431=ADVANCED_FACE('',(#390),#410,.F.);
#432=ADVANCED_FACE('',(#391,#392),#411,.T.);
#433=ADVANCED_FACE('',(#393),#412,.T.);
#434=ADVANCED_FACE('',(#394,#395),#413,.T.);
#435=ADVANCED_FACE('',(#396),#414,.T.);
#436=ADVANCED_FACE('',(#397,#398),#19,.F.);
#437=ADVANCED_FACE('',(#399,#400),#20,.F.);
#438=CLOSED_SHELL('',(#415,#416,#417,#418,#419,#420,#421,#422,#423,#424,
#425,#426,#427,#428,#429,#430,#431,#432,#433,#434,#435,#436,#437));
#439=STYLED_ITEM('',(#440),#447);
#440=PRESENTATION_STYLE_ASSIGNMENT((#441));
#441=SURFACE_STYLE_USAGE(.BOTH.,#442);
#442=SURFACE_SIDE_STYLE('',(#443));
#443=SURFACE_STYLE_FILL_AREA(#444);
#444=FILL_AREA_STYLE('',(#445));
#445=FILL_AREA_STYLE_COLOUR('',#446);
#446=COLOUR_RGB('',0.4,0.4,0.4);
#447=MANIFOLD_SOLID_BREP('Part 1',#438);
#448=SHAPE_DEFINITION_REPRESENTATION(#736,#449);
#449=SHAPE_REPRESENTATION('Part 1',(#450),#731);
#450=AXIS2_PLACEMENT_3D('',#612,#492,#493);
#451=AXIS2_PLACEMENT_3D('',#613,#494,#495);
#452=AXIS2_PLACEMENT_3D('',#614,#496,#497);
#453=AXIS2_PLACEMENT_3D('',#616,#498,#499);
#454=AXIS2_PLACEMENT_3D('',#618,#500,#501);
#455=AXIS2_PLACEMENT_3D('',#620,#502,#503);
#456=AXIS2_PLACEMENT_3D('',#622,#504,#505);
#457=AXIS2_PLACEMENT_3D('',#633,#510,#511);
#458=AXIS2_PLACEMENT_3D('',#636,#513,#514);
#459=AXIS2_PLACEMENT_3D('',#647,#520,#521);
#460=AXIS2_PLACEMENT_3D('',#659,#528,#529);
#461=AXIS2_PLACEMENT_3D('',#663,#532,#533);
#462=AXIS2_PLACEMENT_3D('',#666,#535,#536);
#463=AXIS2_PLACEMENT_3D('',#667,#537,#538);
#464=AXIS2_PLACEMENT_3D('',#668,#539,#540);
#465=AXIS2_PLACEMENT_3D('',#670,#541,#542);
#466=AXIS2_PLACEMENT_3D('',#671,#543,#544);
#467=AXIS2_PLACEMENT_3D('',#673,#545,#546);
#468=AXIS2_PLACEMENT_3D('',#674,#547,#548);
#469=AXIS2_PLACEMENT_3D('',#676,#549,#550);
#470=AXIS2_PLACEMENT_3D('',#677,#551,#552);
#471=AXIS2_PLACEMENT_3D('',#679,#553,#554);
#472=AXIS2_PLACEMENT_3D('',#680,#555,#556);
#473=AXIS2_PLACEMENT_3D('',#682,#557,#558);
#474=AXIS2_PLACEMENT_3D('',#684,#560,#561);
#475=AXIS2_PLACEMENT_3D('',#685,#562,#563);
#476=AXIS2_PLACEMENT_3D('',#689,#566,#567);
#477=AXIS2_PLACEMENT_3D('',#690,#568,#569);
#478=AXIS2_PLACEMENT_3D('',#697,#573,#574);
#479=AXIS2_PLACEMENT_3D('',#698,#575,#576);
#480=AXIS2_PLACEMENT_3D('',#701,#578,#579);
#481=AXIS2_PLACEMENT_3D('',#702,#580,#581);
#482=AXIS2_PLACEMENT_3D('',#707,#584,#585);
#483=AXIS2_PLACEMENT_3D('',#711,#588,#589);
#484=AXIS2_PLACEMENT_3D('',#718,#594,#595);
#485=AXIS2_PLACEMENT_3D('',#719,#596,#597);
#486=AXIS2_PLACEMENT_3D('',#722,#599,#600);
#487=AXIS2_PLACEMENT_3D('',#723,#601,#602);
#488=AXIS2_PLACEMENT_3D('',#724,#603,#604);
#489=AXIS2_PLACEMENT_3D('',#727,#606,#607);
#490=AXIS2_PLACEMENT_3D('',#728,#608,#609);
#491=AXIS2_PLACEMENT_3D('',#729,#610,#611);
#492=DIRECTION('',(0.,0.,1.));
#493=DIRECTION('',(1.,0.,0.));
#494=DIRECTION('',(0.,0.,1.));
#495=DIRECTION('',(1.,0.,0.));
#496=DIRECTION('',(0.,0.,1.));
#497=DIRECTION('',(1.,0.,0.));
#498=DIRECTION('',(0.,0.,1.));
#499=DIRECTION('',(1.,0.,0.));
#500=DIRECTION('',(0.,0.,1.));
#501=DIRECTION('',(1.,0.,0.));
#502=DIRECTION('',(0.,0.,1.));
#503=DIRECTION('',(1.,0.,0.));
#504=DIRECTION('',(0.,0.,1.));
#505=DIRECTION('',(1.,0.,0.));
#506=DIRECTION('',(0.,1.,0.));
#507=DIRECTION('',(1.,0.,0.));
#508=DIRECTION('',(0.,1.,0.));
#509=DIRECTION('',(0.128468309895724,-0.991713614584642,0.));
#510=DIRECTION('',(0.,0.,1.));
#511=DIRECTION('',(1.,0.,0.));
#512=DIRECTION('',(-0.128468309895724,-0.991713614584642,0.));
#513=DIRECTION('',(0.,1.,0.));
#514=DIRECTION('',(0.,0.,1.));
#515=DIRECTION('',(0.,0.,-1.));
#516=DIRECTION('',(0.,0.,1.));
#517=DIRECTION('',(-1.,0.,0.));
#518=DIRECTION('',(0.,0.,1.));
#519=DIRECTION('',(-1.,0.,2.31296463463574E-16));
#520=DIRECTION('',(0.,1.,0.));
#521=DIRECTION('',(0.,0.,1.));
#522=DIRECTION('',(-1.,0.,2.31296463463574E-16));
#523=DIRECTION('',(0.,0.,-1.));
#524=DIRECTION('',(1.,0.,0.));
#525=DIRECTION('',(0.,0.,-1.));
#526=DIRECTION('',(0.,0.,-1.));
#527=DIRECTION('',(1.,0.,0.));
#528=DIRECTION('',(0.991713614584642,-0.128468309895724,0.));
#529=DIRECTION('',(0.128468309895724,0.991713614584642,0.));
#530=DIRECTION('',(0.,0.,-1.));
#531=DIRECTION('',(-0.128468309895724,-0.991713614584642,0.));
#532=DIRECTION('',(0.,0.,-1.));
#533=DIRECTION('',(-1.,0.,0.));
#534=DIRECTION('',(0.,0.,-1.));
#535=DIRECTION('',(0.,0.,1.));
#536=DIRECTION('',(1.,0.,0.));
#537=DIRECTION('',(0.,0.,-1.));
#538=DIRECTION('',(-1.,0.,0.));
#539=DIRECTION('',(0.,0.,1.));
#540=DIRECTION('',(1.,0.,0.));
#541=DIRECTION('',(0.,0.,-1.));
#542=DIRECTION('',(-1.,0.,0.));
#543=DIRECTION('',(0.,0.,1.));
#544=DIRECTION('',(1.,0.,0.));
#545=DIRECTION('',(0.,0.,-1.));
#546=DIRECTION('',(-1.,0.,0.));
#547=DIRECTION('',(0.,0.,1.));
#548=DIRECTION('',(1.,0.,0.));
#549=DIRECTION('',(0.,0.,-1.));
#550=DIRECTION('',(-1.,0.,0.));
#551=DIRECTION('',(0.,0.,1.));
#552=DIRECTION('',(1.,0.,0.));
#553=DIRECTION('',(0.,0.,-1.));
#554=DIRECTION('',(-1.,0.,0.));
#555=DIRECTION('',(0.,0.,1.));
#556=DIRECTION('',(1.,0.,0.));
#557=DIRECTION('',(0.991713614584642,0.128468309895724,0.));
#558=DIRECTION('',(-0.128468309895724,0.991713614584642,0.));
#559=DIRECTION('',(0.128468309895724,-0.991713614584642,0.));
#560=DIRECTION('',(0.,0.,1.));
#561=DIRECTION('',(1.,0.,0.));
#562=DIRECTION('',(-1.,0.,0.));
#563=DIRECTION('',(0.,0.,1.));
#564=DIRECTION('',(0.,0.,1.));
#565=DIRECTION('',(0.,1.,5.78241158658936E-17));
#566=DIRECTION('',(-2.31296463463574E-16,0.,-1.));
#567=DIRECTION('',(-1.,0.,2.31296463463574E-16));
#568=DIRECTION('',(2.31296463463574E-16,0.,1.));
#569=DIRECTION('',(-1.,0.,2.31296463463574E-16));
#570=DIRECTION('',(0.,1.,0.));
#571=DIRECTION('',(-1.,0.,2.31296463463574E-16));
#572=DIRECTION('',(0.,1.,0.));
#573=DIRECTION('',(0.,1.,0.));
#574=DIRECTION('',(0.,0.,1.));
#575=DIRECTION('',(0.,1.,0.));
#576=DIRECTION('',(0.,0.,1.));
#577=DIRECTION('',(0.,1.,0.));
#578=DIRECTION('',(-2.31296463463574E-16,0.,-1.));
#579=DIRECTION('',(-1.,0.,2.31296463463574E-16));
#580=DIRECTION('',(-2.31296463463574E-16,0.,-1.));
#581=DIRECTION('',(-1.,0.,2.31296463463574E-16));
#582=DIRECTION('',(-1.,0.,2.31296463463574E-16));
#583=DIRECTION('',(0.,1.,0.));
#584=DIRECTION('',(1.,0.,0.));
#585=DIRECTION('',(0.,0.,-1.));
#586=DIRECTION('',(0.,-1.,0.));
#587=DIRECTION('',(0.,0.,-1.));
#588=DIRECTION('',(0.,1.,0.));
#589=DIRECTION('',(-1.,0.,0.));
#590=DIRECTION('',(0.,0.,1.));
#591=DIRECTION('',(-1.,0.,0.));
#592=DIRECTION('',(1.,0.,0.));
#593=DIRECTION('',(0.,0.,-1.));
#594=DIRECTION('',(0.,-5.78241158658936E-17,1.));
#595=DIRECTION('',(0.,-1.,-5.78241158658936E-17));
#596=DIRECTION('',(0.,-5.78241158658936E-17,1.));
#597=DIRECTION('',(0.,-1.,-5.78241158658936E-17));
#598=DIRECTION('',(0.,1.,5.78241158658936E-17));
#599=DIRECTION('',(1.,0.,0.));
#600=DIRECTION('',(0.,1.,0.));
#601=DIRECTION('',(0.,0.,1.));
#602=DIRECTION('',(1.,0.,0.));
#603=DIRECTION('',(0.,0.,1.));
#604=DIRECTION('',(1.,0.,0.));
#605=DIRECTION('',(0.,-1.,0.));
#606=DIRECTION('',(-1.,0.,0.));
#607=DIRECTION('',(0.,-1.,0.));
#608=DIRECTION('',(-2.31296463463574E-16,0.,-1.));
#609=DIRECTION('',(-1.,0.,2.31296463463574E-16));
#610=DIRECTION('',(-2.31296463463574E-16,0.,-1.));
#611=DIRECTION('',(-1.,0.,2.31296463463574E-16));
#612=CARTESIAN_POINT('',(0.,0.,0.));
#613=CARTESIAN_POINT('',(0.,0.0355,0.));
#614=CARTESIAN_POINT('',(0.015,3.9801020972289E-19,0.));
#615=CARTESIAN_POINT('',(0.0165,3.9801020972289E-19,0.));
#616=CARTESIAN_POINT('',(0.,6.73555739531044E-19,0.));
#617=CARTESIAN_POINT('',(0.011,6.73555739531044E-19,0.));
#618=CARTESIAN_POINT('',(7.75513228052352E-19,0.015,0.));
#619=CARTESIAN_POINT('',(0.0015,0.015,0.));
#620=CARTESIAN_POINT('',(-0.015,1.74512168878498E-18,0.));
#621=CARTESIAN_POINT('',(-0.0135,1.74512168878498E-18,0.));
#622=CARTESIAN_POINT('',(9.59210247924455E-19,-0.015,0.));
#623=CARTESIAN_POINT('',(0.0015,-0.015,0.));
#624=CARTESIAN_POINT('',(-0.0075,0.075,0.));
#625=CARTESIAN_POINT('',(-0.0075,0.075,0.));
#626=CARTESIAN_POINT('',(-0.0075,0.09,0.));
#627=CARTESIAN_POINT('',(0.00375,0.075,0.));
#628=CARTESIAN_POINT('',(0.0075,0.075,0.));
#629=CARTESIAN_POINT('',(0.0075,0.075,0.));
#630=CARTESIAN_POINT('',(0.0075,0.09,0.));
#631=CARTESIAN_POINT('',(0.0131712793385541,0.0462204489440094,0.));
#632=CARTESIAN_POINT('',(0.0188425586771082,0.00244089788801876,0.));
#633=CARTESIAN_POINT('',(-1.81184107641178E-18,2.16840434497101E-19,0.));
#634=CARTESIAN_POINT('',(-0.0188425586771082,0.00244089788801875,0.));
#635=CARTESIAN_POINT('',(-0.0131712793385541,0.0462204489440094,0.));
#636=CARTESIAN_POINT('',(0.00375,0.09,0.004));
#637=CARTESIAN_POINT('',(0.0075,0.09,0.004));
#638=CARTESIAN_POINT('',(0.0075,0.09,0.004));
#639=CARTESIAN_POINT('',(0.0075,0.09,-0.0025));
#640=CARTESIAN_POINT('',(0.0075,0.09,-0.0025));
#641=CARTESIAN_POINT('',(0.0175,0.09,-0.0025));
#642=CARTESIAN_POINT('',(0.0175,0.09,-0.0025));
#643=CARTESIAN_POINT('',(0.0175,0.09,-0.0025));
#644=CARTESIAN_POINT('',(0.0175,0.09,-0.005));
#645=CARTESIAN_POINT('',(0.005625,0.09,-0.005));
#646=CARTESIAN_POINT('',(0.00375,0.09,-0.005));
#647=CARTESIAN_POINT('',(0.,0.09,-0.005));
#648=CARTESIAN_POINT('',(-0.00375,0.09,-0.005));
#649=CARTESIAN_POINT('',(-0.005625,0.09,-0.005));
#650=CARTESIAN_POINT('',(-0.0175,0.09,-0.005));
#651=CARTESIAN_POINT('',(-0.0175,0.09,-0.0025));
#652=CARTESIAN_POINT('',(-0.0175,0.09,-0.0025));
#653=CARTESIAN_POINT('',(-0.0175,0.09,-0.0025));
#654=CARTESIAN_POINT('',(-0.0075,0.09,-0.0025));
#655=CARTESIAN_POINT('',(-0.0075,0.09,-0.0025));
#656=CARTESIAN_POINT('',(-0.0075,0.09,0.004));
#657=CARTESIAN_POINT('',(-0.0075,0.09,0.004));
#658=CARTESIAN_POINT('',(0.00375,0.09,0.004));
#659=CARTESIAN_POINT('',(-0.0131712793385541,0.0462204489440094,0.004));
#660=CARTESIAN_POINT('',(-0.0188425586771082,0.00244089788801875,0.004));
#661=CARTESIAN_POINT('',(-0.0188425586771082,0.00244089788801875,0.004));
#662=CARTESIAN_POINT('',(-0.0131712793385541,0.0462204489440094,0.004));
#663=CARTESIAN_POINT('',(-1.81184107641178E-18,2.16840434497101E-19,0.004));
#664=CARTESIAN_POINT('',(0.0188425586771082,0.00244089788801876,0.004));
#665=CARTESIAN_POINT('',(0.0188425586771082,0.00244089788801876,0.004));
#666=CARTESIAN_POINT('',(-1.81184107641178E-18,2.16840434497101E-19,0.004));
#667=CARTESIAN_POINT('',(0.015,3.9801020972289E-19,0.004));
#668=CARTESIAN_POINT('',(0.015,3.9801020972289E-19,0.004));
#669=CARTESIAN_POINT('',(0.0165,3.9801020972289E-19,0.004));
#670=CARTESIAN_POINT('',(0.,6.73555739531044E-19,0.004));
#671=CARTESIAN_POINT('',(0.,6.73555739531044E-19,0.004));
#672=CARTESIAN_POINT('',(0.011,6.73555739531044E-19,0.004));
#673=CARTESIAN_POINT('',(7.75513228052352E-19,0.015,0.004));
#674=CARTESIAN_POINT('',(7.75513228052352E-19,0.015,0.004));
#675=CARTESIAN_POINT('',(0.0015,0.015,0.004));
#676=CARTESIAN_POINT('',(-0.015,1.74512168878498E-18,0.004));
#677=CARTESIAN_POINT('',(-0.015,1.74512168878498E-18,0.004));
#678=CARTESIAN_POINT('',(-0.0135,1.74512168878498E-18,0.004));
#679=CARTESIAN_POINT('',(9.59210247924455E-19,-0.015,0.004));
#680=CARTESIAN_POINT('',(9.59210247924455E-19,-0.015,0.004));
#681=CARTESIAN_POINT('',(0.0015,-0.015,0.004));
#682=CARTESIAN_POINT('',(0.0131712793385541,0.0462204489440094,0.004));
#683=CARTESIAN_POINT('',(0.0131712793385541,0.0462204489440094,0.004));
#684=CARTESIAN_POINT('',(0.,0.0355,0.004));
#685=CARTESIAN_POINT('',(0.0075,0.075,-0.0025));
#686=CARTESIAN_POINT('',(0.0075,0.075,-0.0025));
#687=CARTESIAN_POINT('',(0.0075,0.075,-0.0025));
#688=CARTESIAN_POINT('',(0.0075,0.0825,-0.0025));
#689=CARTESIAN_POINT('',(0.005625,0.075,-0.005));
#690=CARTESIAN_POINT('',(0.0125,0.0825,-0.005));
#691=CARTESIAN_POINT('',(0.0105,0.0825,-0.005));
#692=CARTESIAN_POINT('',(0.0175,0.075,-0.005));
#693=CARTESIAN_POINT('',(0.0175,0.075,-0.005));
#694=CARTESIAN_POINT('',(0.005625,0.075,-0.005));
#695=CARTESIAN_POINT('',(0.00375,0.075,-0.005));
#696=CARTESIAN_POINT('',(0.00375,0.075,-0.005));
#697=CARTESIAN_POINT('',(0.,0.075,-0.005));
#698=CARTESIAN_POINT('',(0.,0.075,-0.005));
#699=CARTESIAN_POINT('',(-0.00375,0.075,-0.005));
#700=CARTESIAN_POINT('',(-0.00375,0.075,-0.005));
#701=CARTESIAN_POINT('',(-0.005625,0.075,-0.005));
#702=CARTESIAN_POINT('',(-0.0125,0.0825,-0.005));
#703=CARTESIAN_POINT('',(-0.0145,0.0825,-0.005));
#704=CARTESIAN_POINT('',(-0.005625,0.075,-0.005));
#705=CARTESIAN_POINT('',(-0.0175,0.075,-0.005));
#706=CARTESIAN_POINT('',(-0.0175,0.075,-0.005));
#707=CARTESIAN_POINT('',(-0.0075,0.075,-0.0025));
#708=CARTESIAN_POINT('',(-0.0075,0.0825,-0.0025));
#709=CARTESIAN_POINT('',(-0.0075,0.075,-0.0025));
#710=CARTESIAN_POINT('',(-0.0075,0.075,-0.0025));
#711=CARTESIAN_POINT('',(-6.93889390390723E-18,0.075,-0.0005));
#712=CARTESIAN_POINT('',(0.0175,0.075,-0.0025));
#713=CARTESIAN_POINT('',(0.0175,0.075,-0.0025));
#714=CARTESIAN_POINT('',(0.0175,0.075,-0.0025));
#715=CARTESIAN_POINT('',(-0.0175,0.075,-0.0025));
#716=CARTESIAN_POINT('',(-0.0175,0.075,-0.0025));
#717=CARTESIAN_POINT('',(-0.0175,0.075,-0.0025));
#718=CARTESIAN_POINT('',(0.0175,0.0825,-0.0025));
#719=CARTESIAN_POINT('',(0.0125,0.0825,-0.0025));
#720=CARTESIAN_POINT('',(0.0125,0.0805,-0.0025));
#721=CARTESIAN_POINT('',(0.0175,0.0825,-0.0025));
#722=CARTESIAN_POINT('',(0.0175,0.0825,-0.0025));
#723=CARTESIAN_POINT('',(-0.0175,0.0825,-0.0025));
#724=CARTESIAN_POINT('',(-0.0125,0.0825,-0.0025));
#725=CARTESIAN_POINT('',(-0.0105,0.0825,-0.0025));
#726=CARTESIAN_POINT('',(-0.0175,0.0825,-0.0025));
#727=CARTESIAN_POINT('',(-0.0175,0.0825,-0.0025));
#728=CARTESIAN_POINT('',(-0.0125,0.0825,0.02));
#729=CARTESIAN_POINT('',(0.0125,0.0825,0.02));
#730=MECHANICAL_DESIGN_GEOMETRIC_PRESENTATION_REPRESENTATION('',(#439),
#731);
#731=(
GEOMETRIC_REPRESENTATION_CONTEXT(3)
GLOBAL_UNCERTAINTY_ASSIGNED_CONTEXT((#732))
GLOBAL_UNIT_ASSIGNED_CONTEXT((#735,#734,#733))
REPRESENTATION_CONTEXT('Part 1','TOP_LEVEL_ASSEMBLY_PART')
);
#732=UNCERTAINTY_MEASURE_WITH_UNIT(LENGTH_MEASURE(1.E-8),#735,
'DISTANCE_ACCURACY_VALUE','Maximum Tolerance applied to model');
#733=(
NAMED_UNIT(*)
SI_UNIT($,.STERADIAN.)
SOLID_ANGLE_UNIT()
);
#734=(
NAMED_UNIT(*)
PLANE_ANGLE_UNIT()
SI_UNIT($,.RADIAN.)
);
#735=(
LENGTH_UNIT()
NAMED_UNIT(*)
SI_UNIT($,.METRE.)
);
#736=PRODUCT_DEFINITION_SHAPE('','',#737);
#737=PRODUCT_DEFINITION('','',#739,#738);
#738=PRODUCT_DEFINITION_CONTEXT('',#745,'design');
#739=PRODUCT_DEFINITION_FORMATION_WITH_SPECIFIED_SOURCE('','',#741,
 .NOT_KNOWN.);
#740=PRODUCT_RELATED_PRODUCT_CATEGORY('','',(#741));
#741=PRODUCT('Part 1','Part 1','Part 1',(#743));
#742=PRODUCT_CATEGORY('','');
#743=PRODUCT_CONTEXT('',#745,'mechanical');
#744=APPLICATION_PROTOCOL_DEFINITION('international standard',
'ap242_managed_model_based_3d_engineering',2011,#745);
#745=APPLICATION_CONTEXT('managed model based 3d engineering');
ENDSEC;
END-ISO-10303-21;
