ISO-10303-21;
HEADER;
/* Generated by software containing ST-Developer
 * from STEP Tools, Inc. (www.steptools.com) 
 */
/* OPTION: using custom renumber hook */

FILE_DESCRIPTION(
/* description */ ('STEP AP242',
'CAx-IF Rec.Pracs.---Representation and Presentation of Product Manufa
cturing Information (PMI)---4.0---2014-10-13',
'CAx-IF Rec.Pracs.---3D Tessellated Geometry---0.4---2014-09-14','2;1'),

/* implementation_level */ '2;1');

FILE_NAME(
/* name */ '6887ae47175dea78bc74a1ef',
/* time_stamp */ '2025-07-28T17:07:20Z',
/* author */ (''),
/* organization */ (''),
/* preprocessor_version */ 'ST-DEVELOPER v20',
/* originating_system */ 'ONSHAPE BY PTC INC, 1.201',
/* authorisation */ '  ');

FILE_SCHEMA (('AP242_MANAGED_MODEL_BASED_3D_ENGINEERING_MIM_LF { 1 0 10303 442 1 1 4 }'));
ENDSEC;

DATA;
#10=SHAPE_REPRESENTATION_RELATIONSHIP('','',#666,#11);
#11=ADVANCED_BREP_SHAPE_REPRESENTATION('',(#664),#1131);
#12=CIRCLE('',#671,0.005);
#13=CIRCLE('',#672,0.005);
#14=CIRCLE('',#675,0.005);
#15=CIRCLE('',#676,0.005);
#16=CIRCLE('',#679,0.005);
#17=CIRCLE('',#680,0.005);
#18=CIRCLE('',#683,0.005);
#19=CIRCLE('',#684,0.005);
#20=CIRCLE('',#687,0.005);
#21=CIRCLE('',#688,0.005);
#22=CIRCLE('',#690,0.023);
#23=CIRCLE('',#691,0.023);
#24=CIRCLE('',#693,0.005);
#25=CIRCLE('',#694,0.005);
#26=CIRCLE('',#697,0.005);
#27=CIRCLE('',#698,0.005);
#28=CIRCLE('',#701,0.005);
#29=CIRCLE('',#702,0.005);
#30=CIRCLE('',#705,0.005);
#31=CIRCLE('',#706,0.005);
#32=CIRCLE('',#709,0.005);
#33=CIRCLE('',#710,0.005);
#34=CIRCLE('',#712,0.002);
#35=CIRCLE('',#713,0.002);
#36=CIRCLE('',#715,0.002);
#37=CIRCLE('',#716,0.002);
#38=CIRCLE('',#718,0.002);
#39=CIRCLE('',#719,0.002);
#40=CIRCLE('',#721,0.002);
#41=CIRCLE('',#722,0.002);
#42=CIRCLE('',#724,0.002);
#43=CIRCLE('',#725,0.002);
#44=CIRCLE('',#728,0.002);
#45=CIRCLE('',#729,0.002);
#46=CIRCLE('',#731,0.026);
#47=CIRCLE('',#733,0.026);
#48=CIRCLE('',#735,0.026);
#49=CIRCLE('',#737,0.007);
#50=CIRCLE('',#739,0.007);
#51=CIRCLE('',#741,0.01);
#52=CIRCLE('',#743,0.01);
#53=CYLINDRICAL_SURFACE('',#670,0.005);
#54=CYLINDRICAL_SURFACE('',#674,0.005);
#55=CYLINDRICAL_SURFACE('',#678,0.005);
#56=CYLINDRICAL_SURFACE('',#682,0.005);
#57=CYLINDRICAL_SURFACE('',#686,0.005);
#58=CYLINDRICAL_SURFACE('',#689,0.023);
#59=CYLINDRICAL_SURFACE('',#692,0.005);
#60=CYLINDRICAL_SURFACE('',#696,0.005);
#61=CYLINDRICAL_SURFACE('',#700,0.005);
#62=CYLINDRICAL_SURFACE('',#704,0.005);
#63=CYLINDRICAL_SURFACE('',#708,0.005);
#64=CYLINDRICAL_SURFACE('',#711,0.002);
#65=CYLINDRICAL_SURFACE('',#714,0.002);
#66=CYLINDRICAL_SURFACE('',#717,0.002);
#67=CYLINDRICAL_SURFACE('',#720,0.002);
#68=CYLINDRICAL_SURFACE('',#723,0.002);
#69=CYLINDRICAL_SURFACE('',#727,0.002);
#70=CYLINDRICAL_SURFACE('',#734,0.026);
#71=CYLINDRICAL_SURFACE('',#738,0.007);
#72=CYLINDRICAL_SURFACE('',#742,0.01);
#73=ORIENTED_EDGE('',*,*,#243,.F.);
#74=ORIENTED_EDGE('',*,*,#244,.F.);
#75=ORIENTED_EDGE('',*,*,#245,.T.);
#76=ORIENTED_EDGE('',*,*,#246,.T.);
#77=ORIENTED_EDGE('',*,*,#247,.T.);
#78=ORIENTED_EDGE('',*,*,#248,.T.);
#79=ORIENTED_EDGE('',*,*,#249,.F.);
#80=ORIENTED_EDGE('',*,*,#250,.F.);
#81=ORIENTED_EDGE('',*,*,#251,.F.);
#82=ORIENTED_EDGE('',*,*,#252,.F.);
#83=ORIENTED_EDGE('',*,*,#253,.T.);
#84=ORIENTED_EDGE('',*,*,#254,.T.);
#85=ORIENTED_EDGE('',*,*,#255,.T.);
#86=ORIENTED_EDGE('',*,*,#256,.F.);
#87=ORIENTED_EDGE('',*,*,#257,.F.);
#88=ORIENTED_EDGE('',*,*,#252,.T.);
#89=ORIENTED_EDGE('',*,*,#258,.T.);
#90=ORIENTED_EDGE('',*,*,#259,.F.);
#91=ORIENTED_EDGE('',*,*,#260,.F.);
#92=ORIENTED_EDGE('',*,*,#256,.T.);
#93=ORIENTED_EDGE('',*,*,#261,.F.);
#94=ORIENTED_EDGE('',*,*,#262,.F.);
#95=ORIENTED_EDGE('',*,*,#263,.T.);
#96=ORIENTED_EDGE('',*,*,#259,.T.);
#97=ORIENTED_EDGE('',*,*,#264,.T.);
#98=ORIENTED_EDGE('',*,*,#265,.F.);
#99=ORIENTED_EDGE('',*,*,#266,.F.);
#100=ORIENTED_EDGE('',*,*,#262,.T.);
#101=ORIENTED_EDGE('',*,*,#267,.F.);
#102=ORIENTED_EDGE('',*,*,#268,.F.);
#103=ORIENTED_EDGE('',*,*,#269,.T.);
#104=ORIENTED_EDGE('',*,*,#265,.T.);
#105=ORIENTED_EDGE('',*,*,#270,.F.);
#106=ORIENTED_EDGE('',*,*,#271,.F.);
#107=ORIENTED_EDGE('',*,*,#272,.T.);
#108=ORIENTED_EDGE('',*,*,#268,.T.);
#109=ORIENTED_EDGE('',*,*,#273,.T.);
#110=ORIENTED_EDGE('',*,*,#274,.F.);
#111=ORIENTED_EDGE('',*,*,#275,.F.);
#112=ORIENTED_EDGE('',*,*,#271,.T.);
#113=ORIENTED_EDGE('',*,*,#276,.T.);
#114=ORIENTED_EDGE('',*,*,#245,.F.);
#115=ORIENTED_EDGE('',*,*,#277,.F.);
#116=ORIENTED_EDGE('',*,*,#274,.T.);
#117=ORIENTED_EDGE('',*,*,#278,.F.);
#118=ORIENTED_EDGE('',*,*,#279,.T.);
#119=ORIENTED_EDGE('',*,*,#280,.F.);
#120=ORIENTED_EDGE('',*,*,#281,.F.);
#121=ORIENTED_EDGE('',*,*,#282,.T.);
#122=ORIENTED_EDGE('',*,*,#250,.T.);
#123=ORIENTED_EDGE('',*,*,#283,.T.);
#124=ORIENTED_EDGE('',*,*,#284,.F.);
#125=ORIENTED_EDGE('',*,*,#285,.F.);
#126=ORIENTED_EDGE('',*,*,#281,.T.);
#127=ORIENTED_EDGE('',*,*,#286,.T.);
#128=ORIENTED_EDGE('',*,*,#287,.F.);
#129=ORIENTED_EDGE('',*,*,#288,.F.);
#130=ORIENTED_EDGE('',*,*,#284,.T.);
#131=ORIENTED_EDGE('',*,*,#289,.T.);
#132=ORIENTED_EDGE('',*,*,#290,.F.);
#133=ORIENTED_EDGE('',*,*,#291,.F.);
#134=ORIENTED_EDGE('',*,*,#287,.T.);
#135=ORIENTED_EDGE('',*,*,#292,.F.);
#136=ORIENTED_EDGE('',*,*,#293,.F.);
#137=ORIENTED_EDGE('',*,*,#294,.T.);
#138=ORIENTED_EDGE('',*,*,#290,.T.);
#139=ORIENTED_EDGE('',*,*,#295,.T.);
#140=ORIENTED_EDGE('',*,*,#296,.F.);
#141=ORIENTED_EDGE('',*,*,#297,.F.);
#142=ORIENTED_EDGE('',*,*,#293,.T.);
#143=ORIENTED_EDGE('',*,*,#298,.F.);
#144=ORIENTED_EDGE('',*,*,#299,.F.);
#145=ORIENTED_EDGE('',*,*,#300,.T.);
#146=ORIENTED_EDGE('',*,*,#296,.T.);
#147=ORIENTED_EDGE('',*,*,#301,.F.);
#148=ORIENTED_EDGE('',*,*,#302,.F.);
#149=ORIENTED_EDGE('',*,*,#303,.T.);
#150=ORIENTED_EDGE('',*,*,#299,.T.);
#151=ORIENTED_EDGE('',*,*,#304,.T.);
#152=ORIENTED_EDGE('',*,*,#305,.F.);
#153=ORIENTED_EDGE('',*,*,#306,.F.);
#154=ORIENTED_EDGE('',*,*,#302,.T.);
#155=ORIENTED_EDGE('',*,*,#307,.F.);
#156=ORIENTED_EDGE('',*,*,#308,.T.);
#157=ORIENTED_EDGE('',*,*,#309,.T.);
#158=ORIENTED_EDGE('',*,*,#310,.F.);
#159=ORIENTED_EDGE('',*,*,#311,.T.);
#160=ORIENTED_EDGE('',*,*,#312,.F.);
#161=ORIENTED_EDGE('',*,*,#313,.F.);
#162=ORIENTED_EDGE('',*,*,#314,.T.);
#163=ORIENTED_EDGE('',*,*,#315,.T.);
#164=ORIENTED_EDGE('',*,*,#316,.F.);
#165=ORIENTED_EDGE('',*,*,#317,.T.);
#166=ORIENTED_EDGE('',*,*,#254,.F.);
#167=ORIENTED_EDGE('',*,*,#318,.F.);
#168=ORIENTED_EDGE('',*,*,#305,.T.);
#169=ORIENTED_EDGE('',*,*,#319,.F.);
#170=ORIENTED_EDGE('',*,*,#320,.T.);
#171=ORIENTED_EDGE('',*,*,#321,.F.);
#172=ORIENTED_EDGE('',*,*,#247,.F.);
#173=ORIENTED_EDGE('',*,*,#282,.F.);
#174=ORIENTED_EDGE('',*,*,#285,.T.);
#175=ORIENTED_EDGE('',*,*,#288,.T.);
#176=ORIENTED_EDGE('',*,*,#291,.T.);
#177=ORIENTED_EDGE('',*,*,#294,.F.);
#178=ORIENTED_EDGE('',*,*,#297,.T.);
#179=ORIENTED_EDGE('',*,*,#300,.F.);
#180=ORIENTED_EDGE('',*,*,#303,.F.);
#181=ORIENTED_EDGE('',*,*,#306,.T.);
#182=ORIENTED_EDGE('',*,*,#318,.T.);
#183=ORIENTED_EDGE('',*,*,#253,.F.);
#184=ORIENTED_EDGE('',*,*,#257,.T.);
#185=ORIENTED_EDGE('',*,*,#260,.T.);
#186=ORIENTED_EDGE('',*,*,#263,.F.);
#187=ORIENTED_EDGE('',*,*,#266,.T.);
#188=ORIENTED_EDGE('',*,*,#269,.F.);
#189=ORIENTED_EDGE('',*,*,#272,.F.);
#190=ORIENTED_EDGE('',*,*,#275,.T.);
#191=ORIENTED_EDGE('',*,*,#277,.T.);
#192=ORIENTED_EDGE('',*,*,#244,.T.);
#193=ORIENTED_EDGE('',*,*,#315,.F.);
#194=ORIENTED_EDGE('',*,*,#313,.T.);
#195=ORIENTED_EDGE('',*,*,#311,.F.);
#196=ORIENTED_EDGE('',*,*,#309,.F.);
#197=ORIENTED_EDGE('',*,*,#307,.T.);
#198=ORIENTED_EDGE('',*,*,#319,.T.);
#199=ORIENTED_EDGE('',*,*,#278,.T.);
#200=ORIENTED_EDGE('',*,*,#249,.T.);
#201=ORIENTED_EDGE('',*,*,#322,.T.);
#202=ORIENTED_EDGE('',*,*,#246,.F.);
#203=ORIENTED_EDGE('',*,*,#276,.F.);
#204=ORIENTED_EDGE('',*,*,#273,.F.);
#205=ORIENTED_EDGE('',*,*,#270,.T.);
#206=ORIENTED_EDGE('',*,*,#267,.T.);
#207=ORIENTED_EDGE('',*,*,#264,.F.);
#208=ORIENTED_EDGE('',*,*,#261,.T.);
#209=ORIENTED_EDGE('',*,*,#258,.F.);
#210=ORIENTED_EDGE('',*,*,#255,.F.);
#211=ORIENTED_EDGE('',*,*,#251,.T.);
#212=ORIENTED_EDGE('',*,*,#317,.F.);
#213=ORIENTED_EDGE('',*,*,#304,.F.);
#214=ORIENTED_EDGE('',*,*,#301,.T.);
#215=ORIENTED_EDGE('',*,*,#298,.T.);
#216=ORIENTED_EDGE('',*,*,#295,.F.);
#217=ORIENTED_EDGE('',*,*,#292,.T.);
#218=ORIENTED_EDGE('',*,*,#289,.F.);
#219=ORIENTED_EDGE('',*,*,#286,.F.);
#220=ORIENTED_EDGE('',*,*,#283,.F.);
#221=ORIENTED_EDGE('',*,*,#280,.T.);
#222=ORIENTED_EDGE('',*,*,#316,.T.);
#223=ORIENTED_EDGE('',*,*,#314,.F.);
#224=ORIENTED_EDGE('',*,*,#312,.T.);
#225=ORIENTED_EDGE('',*,*,#310,.T.);
#226=ORIENTED_EDGE('',*,*,#308,.F.);
#227=ORIENTED_EDGE('',*,*,#320,.F.);
#228=ORIENTED_EDGE('',*,*,#321,.T.);
#229=ORIENTED_EDGE('',*,*,#243,.T.);
#230=ORIENTED_EDGE('',*,*,#322,.F.);
#231=ORIENTED_EDGE('',*,*,#248,.F.);
#232=ORIENTED_EDGE('',*,*,#323,.F.);
#233=ORIENTED_EDGE('',*,*,#279,.F.);
#234=ORIENTED_EDGE('',*,*,#324,.T.);
#235=ORIENTED_EDGE('',*,*,#324,.F.);
#236=ORIENTED_EDGE('',*,*,#325,.T.);
#237=ORIENTED_EDGE('',*,*,#326,.T.);
#238=ORIENTED_EDGE('',*,*,#323,.T.);
#239=ORIENTED_EDGE('',*,*,#326,.F.);
#240=ORIENTED_EDGE('',*,*,#327,.F.);
#241=ORIENTED_EDGE('',*,*,#325,.F.);
#242=ORIENTED_EDGE('',*,*,#327,.T.);
#243=EDGE_CURVE('',#328,#329,#391,.F.);
#244=EDGE_CURVE('',#330,#328,#392,.T.);
#245=EDGE_CURVE('',#330,#331,#393,.T.);
#246=EDGE_CURVE('',#331,#329,#394,.T.);
#247=EDGE_CURVE('',#332,#333,#395,.T.);
#248=EDGE_CURVE('',#333,#334,#396,.F.);
#249=EDGE_CURVE('',#335,#334,#397,.T.);
#250=EDGE_CURVE('',#332,#335,#398,.T.);
#251=EDGE_CURVE('',#336,#337,#12,.T.);
#252=EDGE_CURVE('',#338,#336,#399,.T.);
#253=EDGE_CURVE('',#338,#339,#13,.T.);
#254=EDGE_CURVE('',#339,#337,#400,.T.);
#255=EDGE_CURVE('',#336,#340,#401,.T.);
#256=EDGE_CURVE('',#341,#340,#402,.T.);
#257=EDGE_CURVE('',#338,#341,#403,.T.);
#258=EDGE_CURVE('',#340,#342,#14,.T.);
#259=EDGE_CURVE('',#343,#342,#404,.T.);
#260=EDGE_CURVE('',#341,#343,#15,.T.);
#261=EDGE_CURVE('',#344,#342,#405,.T.);
#262=EDGE_CURVE('',#345,#344,#406,.T.);
#263=EDGE_CURVE('',#345,#343,#407,.T.);
#264=EDGE_CURVE('',#344,#346,#16,.T.);
#265=EDGE_CURVE('',#347,#346,#408,.T.);
#266=EDGE_CURVE('',#345,#347,#17,.T.);
#267=EDGE_CURVE('',#348,#346,#409,.T.);
#268=EDGE_CURVE('',#349,#348,#410,.T.);
#269=EDGE_CURVE('',#349,#347,#411,.T.);
#270=EDGE_CURVE('',#350,#348,#18,.T.);
#271=EDGE_CURVE('',#351,#350,#412,.T.);
#272=EDGE_CURVE('',#351,#349,#19,.T.);
#273=EDGE_CURVE('',#350,#352,#413,.T.);
#274=EDGE_CURVE('',#353,#352,#414,.T.);
#275=EDGE_CURVE('',#351,#353,#415,.T.);
#276=EDGE_CURVE('',#352,#331,#20,.T.);
#277=EDGE_CURVE('',#353,#330,#21,.T.);
#278=EDGE_CURVE('',#354,#354,#22,.T.);
#279=EDGE_CURVE('',#355,#355,#23,.T.);
#280=EDGE_CURVE('',#356,#335,#24,.T.);
#281=EDGE_CURVE('',#357,#356,#416,.T.);
#282=EDGE_CURVE('',#357,#332,#25,.T.);
#283=EDGE_CURVE('',#356,#358,#417,.T.);
#284=EDGE_CURVE('',#359,#358,#418,.T.);
#285=EDGE_CURVE('',#357,#359,#419,.T.);
#286=EDGE_CURVE('',#358,#360,#26,.T.);
#287=EDGE_CURVE('',#361,#360,#420,.T.);
#288=EDGE_CURVE('',#359,#361,#27,.T.);
#289=EDGE_CURVE('',#360,#362,#421,.T.);
#290=EDGE_CURVE('',#363,#362,#422,.T.);
#291=EDGE_CURVE('',#361,#363,#423,.T.);
#292=EDGE_CURVE('',#364,#362,#28,.T.);
#293=EDGE_CURVE('',#365,#364,#424,.T.);
#294=EDGE_CURVE('',#365,#363,#29,.T.);
#295=EDGE_CURVE('',#364,#366,#425,.T.);
#296=EDGE_CURVE('',#367,#366,#426,.T.);
#297=EDGE_CURVE('',#365,#367,#427,.T.);
#298=EDGE_CURVE('',#368,#366,#30,.T.);
#299=EDGE_CURVE('',#369,#368,#428,.T.);
#300=EDGE_CURVE('',#369,#367,#31,.T.);
#301=EDGE_CURVE('',#370,#368,#429,.T.);
#302=EDGE_CURVE('',#371,#370,#430,.T.);
#303=EDGE_CURVE('',#371,#369,#431,.T.);
#304=EDGE_CURVE('',#370,#372,#32,.T.);
#305=EDGE_CURVE('',#373,#372,#432,.T.);
#306=EDGE_CURVE('',#371,#373,#33,.T.);
#307=EDGE_CURVE('',#374,#374,#34,.T.);
#308=EDGE_CURVE('',#375,#375,#35,.T.);
#309=EDGE_CURVE('',#376,#376,#36,.T.);
#310=EDGE_CURVE('',#377,#377,#37,.T.);
#311=EDGE_CURVE('',#378,#378,#38,.T.);
#312=EDGE_CURVE('',#379,#379,#39,.T.);
#313=EDGE_CURVE('',#380,#380,#40,.T.);
#314=EDGE_CURVE('',#381,#381,#41,.T.);
#315=EDGE_CURVE('',#382,#382,#42,.T.);
#316=EDGE_CURVE('',#383,#383,#43,.T.);
#317=EDGE_CURVE('',#372,#337,#433,.T.);
#318=EDGE_CURVE('',#373,#339,#434,.T.);
#319=EDGE_CURVE('',#384,#384,#44,.T.);
#320=EDGE_CURVE('',#385,#385,#45,.T.);
#321=EDGE_CURVE('',#333,#328,#46,.T.);
#322=EDGE_CURVE('',#334,#329,#47,.T.);
#323=EDGE_CURVE('',#386,#386,#48,.T.);
#324=EDGE_CURVE('',#387,#387,#49,.T.);
#325=EDGE_CURVE('',#388,#388,#50,.T.);
#326=EDGE_CURVE('',#389,#389,#51,.F.);
#327=EDGE_CURVE('',#390,#390,#52,.T.);
#328=VERTEX_POINT('',#948);
#329=VERTEX_POINT('',#949);
#330=VERTEX_POINT('',#951);
#331=VERTEX_POINT('',#953);
#332=VERTEX_POINT('',#957);
#333=VERTEX_POINT('',#958);
#334=VERTEX_POINT('',#960);
#335=VERTEX_POINT('',#962);
#336=VERTEX_POINT('',#966);
#337=VERTEX_POINT('',#967);
#338=VERTEX_POINT('',#969);
#339=VERTEX_POINT('',#971);
#340=VERTEX_POINT('',#975);
#341=VERTEX_POINT('',#977);
#342=VERTEX_POINT('',#981);
#343=VERTEX_POINT('',#983);
#344=VERTEX_POINT('',#987);
#345=VERTEX_POINT('',#989);
#346=VERTEX_POINT('',#993);
#347=VERTEX_POINT('',#995);
#348=VERTEX_POINT('',#999);
#349=VERTEX_POINT('',#1001);
#350=VERTEX_POINT('',#1005);
#351=VERTEX_POINT('',#1007);
#352=VERTEX_POINT('',#1011);
#353=VERTEX_POINT('',#1013);
#354=VERTEX_POINT('',#1020);
#355=VERTEX_POINT('',#1022);
#356=VERTEX_POINT('',#1025);
#357=VERTEX_POINT('',#1027);
#358=VERTEX_POINT('',#1031);
#359=VERTEX_POINT('',#1033);
#360=VERTEX_POINT('',#1037);
#361=VERTEX_POINT('',#1039);
#362=VERTEX_POINT('',#1043);
#363=VERTEX_POINT('',#1045);
#364=VERTEX_POINT('',#1049);
#365=VERTEX_POINT('',#1051);
#366=VERTEX_POINT('',#1055);
#367=VERTEX_POINT('',#1057);
#368=VERTEX_POINT('',#1061);
#369=VERTEX_POINT('',#1063);
#370=VERTEX_POINT('',#1067);
#371=VERTEX_POINT('',#1069);
#372=VERTEX_POINT('',#1073);
#373=VERTEX_POINT('',#1075);
#374=VERTEX_POINT('',#1079);
#375=VERTEX_POINT('',#1081);
#376=VERTEX_POINT('',#1084);
#377=VERTEX_POINT('',#1086);
#378=VERTEX_POINT('',#1089);
#379=VERTEX_POINT('',#1091);
#380=VERTEX_POINT('',#1094);
#381=VERTEX_POINT('',#1096);
#382=VERTEX_POINT('',#1099);
#383=VERTEX_POINT('',#1101);
#384=VERTEX_POINT('',#1107);
#385=VERTEX_POINT('',#1109);
#386=VERTEX_POINT('',#1116);
#387=VERTEX_POINT('',#1119);
#388=VERTEX_POINT('',#1122);
#389=VERTEX_POINT('',#1125);
#390=VERTEX_POINT('',#1128);
#391=LINE('',#947,#435);
#392=LINE('',#950,#436);
#393=LINE('',#952,#437);
#394=LINE('',#954,#438);
#395=LINE('',#956,#439);
#396=LINE('',#959,#440);
#397=LINE('',#961,#441);
#398=LINE('',#963,#442);
#399=LINE('',#968,#443);
#400=LINE('',#972,#444);
#401=LINE('',#974,#445);
#402=LINE('',#976,#446);
#403=LINE('',#978,#447);
#404=LINE('',#982,#448);
#405=LINE('',#986,#449);
#406=LINE('',#988,#450);
#407=LINE('',#990,#451);
#408=LINE('',#994,#452);
#409=LINE('',#998,#453);
#410=LINE('',#1000,#454);
#411=LINE('',#1002,#455);
#412=LINE('',#1006,#456);
#413=LINE('',#1010,#457);
#414=LINE('',#1012,#458);
#415=LINE('',#1014,#459);
#416=LINE('',#1026,#460);
#417=LINE('',#1030,#461);
#418=LINE('',#1032,#462);
#419=LINE('',#1034,#463);
#420=LINE('',#1038,#464);
#421=LINE('',#1042,#465);
#422=LINE('',#1044,#466);
#423=LINE('',#1046,#467);
#424=LINE('',#1050,#468);
#425=LINE('',#1054,#469);
#426=LINE('',#1056,#470);
#427=LINE('',#1058,#471);
#428=LINE('',#1062,#472);
#429=LINE('',#1066,#473);
#430=LINE('',#1068,#474);
#431=LINE('',#1070,#475);
#432=LINE('',#1074,#476);
#433=LINE('',#1103,#477);
#434=LINE('',#1104,#478);
#435=VECTOR('',#749,1.);
#436=VECTOR('',#750,1.);
#437=VECTOR('',#751,1.);
#438=VECTOR('',#752,1.);
#439=VECTOR('',#755,1.);
#440=VECTOR('',#756,1.);
#441=VECTOR('',#757,1.);
#442=VECTOR('',#758,1.);
#443=VECTOR('',#763,1.);
#444=VECTOR('',#766,1.);
#445=VECTOR('',#769,1.);
#446=VECTOR('',#770,1.);
#447=VECTOR('',#771,1.);
#448=VECTOR('',#776,1.);
#449=VECTOR('',#781,1.);
#450=VECTOR('',#782,1.);
#451=VECTOR('',#783,1.);
#452=VECTOR('',#788,1.);
#453=VECTOR('',#793,1.);
#454=VECTOR('',#794,1.);
#455=VECTOR('',#795,1.);
#456=VECTOR('',#800,1.);
#457=VECTOR('',#805,1.);
#458=VECTOR('',#806,1.);
#459=VECTOR('',#807,1.);
#460=VECTOR('',#824,1.);
#461=VECTOR('',#829,1.);
#462=VECTOR('',#830,1.);
#463=VECTOR('',#831,1.);
#464=VECTOR('',#836,1.);
#465=VECTOR('',#841,1.);
#466=VECTOR('',#842,1.);
#467=VECTOR('',#843,1.);
#468=VECTOR('',#848,1.);
#469=VECTOR('',#853,1.);
#470=VECTOR('',#854,1.);
#471=VECTOR('',#855,1.);
#472=VECTOR('',#860,1.);
#473=VECTOR('',#865,1.);
#474=VECTOR('',#866,1.);
#475=VECTOR('',#867,1.);
#476=VECTOR('',#872,1.);
#477=VECTOR('',#907,1.);
#478=VECTOR('',#908,1.);
#479=EDGE_LOOP('',(#73,#74,#75,#76));
#480=EDGE_LOOP('',(#77,#78,#79,#80));
#481=EDGE_LOOP('',(#81,#82,#83,#84));
#482=EDGE_LOOP('',(#85,#86,#87,#88));
#483=EDGE_LOOP('',(#89,#90,#91,#92));
#484=EDGE_LOOP('',(#93,#94,#95,#96));
#485=EDGE_LOOP('',(#97,#98,#99,#100));
#486=EDGE_LOOP('',(#101,#102,#103,#104));
#487=EDGE_LOOP('',(#105,#106,#107,#108));
#488=EDGE_LOOP('',(#109,#110,#111,#112));
#489=EDGE_LOOP('',(#113,#114,#115,#116));
#490=EDGE_LOOP('',(#117));
#491=EDGE_LOOP('',(#118));
#492=EDGE_LOOP('',(#119,#120,#121,#122));
#493=EDGE_LOOP('',(#123,#124,#125,#126));
#494=EDGE_LOOP('',(#127,#128,#129,#130));
#495=EDGE_LOOP('',(#131,#132,#133,#134));
#496=EDGE_LOOP('',(#135,#136,#137,#138));
#497=EDGE_LOOP('',(#139,#140,#141,#142));
#498=EDGE_LOOP('',(#143,#144,#145,#146));
#499=EDGE_LOOP('',(#147,#148,#149,#150));
#500=EDGE_LOOP('',(#151,#152,#153,#154));
#501=EDGE_LOOP('',(#155));
#502=EDGE_LOOP('',(#156));
#503=EDGE_LOOP('',(#157));
#504=EDGE_LOOP('',(#158));
#505=EDGE_LOOP('',(#159));
#506=EDGE_LOOP('',(#160));
#507=EDGE_LOOP('',(#161));
#508=EDGE_LOOP('',(#162));
#509=EDGE_LOOP('',(#163));
#510=EDGE_LOOP('',(#164));
#511=EDGE_LOOP('',(#165,#166,#167,#168));
#512=EDGE_LOOP('',(#169));
#513=EDGE_LOOP('',(#170));
#514=EDGE_LOOP('',(#171,#172,#173,#174,#175,#176,#177,#178,#179,#180,#181,
#182,#183,#184,#185,#186,#187,#188,#189,#190,#191,#192));
#515=EDGE_LOOP('',(#193));
#516=EDGE_LOOP('',(#194));
#517=EDGE_LOOP('',(#195));
#518=EDGE_LOOP('',(#196));
#519=EDGE_LOOP('',(#197));
#520=EDGE_LOOP('',(#198));
#521=EDGE_LOOP('',(#199));
#522=EDGE_LOOP('',(#200,#201,#202,#203,#204,#205,#206,#207,#208,#209,#210,
#211,#212,#213,#214,#215,#216,#217,#218,#219,#220,#221));
#523=EDGE_LOOP('',(#222));
#524=EDGE_LOOP('',(#223));
#525=EDGE_LOOP('',(#224));
#526=EDGE_LOOP('',(#225));
#527=EDGE_LOOP('',(#226));
#528=EDGE_LOOP('',(#227));
#529=EDGE_LOOP('',(#228,#229,#230,#231));
#530=EDGE_LOOP('',(#232));
#531=EDGE_LOOP('',(#233));
#532=EDGE_LOOP('',(#234));
#533=EDGE_LOOP('',(#235));
#534=EDGE_LOOP('',(#236));
#535=EDGE_LOOP('',(#237));
#536=EDGE_LOOP('',(#238));
#537=EDGE_LOOP('',(#239));
#538=EDGE_LOOP('',(#240));
#539=EDGE_LOOP('',(#241));
#540=EDGE_LOOP('',(#242));
#541=FACE_BOUND('',#479,.T.);
#542=FACE_BOUND('',#480,.T.);
#543=FACE_BOUND('',#481,.T.);
#544=FACE_BOUND('',#482,.T.);
#545=FACE_BOUND('',#483,.T.);
#546=FACE_BOUND('',#484,.T.);
#547=FACE_BOUND('',#485,.T.);
#548=FACE_BOUND('',#486,.T.);
#549=FACE_BOUND('',#487,.T.);
#550=FACE_BOUND('',#488,.T.);
#551=FACE_BOUND('',#489,.T.);
#552=FACE_BOUND('',#490,.T.);
#553=FACE_BOUND('',#491,.T.);
#554=FACE_BOUND('',#492,.T.);
#555=FACE_BOUND('',#493,.T.);
#556=FACE_BOUND('',#494,.T.);
#557=FACE_BOUND('',#495,.T.);
#558=FACE_BOUND('',#496,.T.);
#559=FACE_BOUND('',#497,.T.);
#560=FACE_BOUND('',#498,.T.);
#561=FACE_BOUND('',#499,.T.);
#562=FACE_BOUND('',#500,.T.);
#563=FACE_BOUND('',#501,.T.);
#564=FACE_BOUND('',#502,.T.);
#565=FACE_BOUND('',#503,.T.);
#566=FACE_BOUND('',#504,.T.);
#567=FACE_BOUND('',#505,.T.);
#568=FACE_BOUND('',#506,.T.);
#569=FACE_BOUND('',#507,.T.);
#570=FACE_BOUND('',#508,.T.);
#571=FACE_BOUND('',#509,.T.);
#572=FACE_BOUND('',#510,.T.);
#573=FACE_BOUND('',#511,.T.);
#574=FACE_BOUND('',#512,.T.);
#575=FACE_BOUND('',#513,.T.);
#576=FACE_BOUND('',#514,.T.);
#577=FACE_BOUND('',#515,.T.);
#578=FACE_BOUND('',#516,.T.);
#579=FACE_BOUND('',#517,.T.);
#580=FACE_BOUND('',#518,.T.);
#581=FACE_BOUND('',#519,.T.);
#582=FACE_BOUND('',#520,.T.);
#583=FACE_BOUND('',#521,.T.);
#584=FACE_BOUND('',#522,.T.);
#585=FACE_BOUND('',#523,.T.);
#586=FACE_BOUND('',#524,.T.);
#587=FACE_BOUND('',#525,.T.);
#588=FACE_BOUND('',#526,.T.);
#589=FACE_BOUND('',#527,.T.);
#590=FACE_BOUND('',#528,.T.);
#591=FACE_BOUND('',#529,.T.);
#592=FACE_BOUND('',#530,.T.);
#593=FACE_BOUND('',#531,.T.);
#594=FACE_BOUND('',#532,.T.);
#595=FACE_BOUND('',#533,.T.);
#596=FACE_BOUND('',#534,.T.);
#597=FACE_BOUND('',#535,.T.);
#598=FACE_BOUND('',#536,.T.);
#599=FACE_BOUND('',#537,.T.);
#600=FACE_BOUND('',#538,.T.);
#601=FACE_BOUND('',#539,.T.);
#602=FACE_BOUND('',#540,.T.);
#603=PLANE('',#668);
#604=PLANE('',#669);
#605=PLANE('',#673);
#606=PLANE('',#677);
#607=PLANE('',#681);
#608=PLANE('',#685);
#609=PLANE('',#695);
#610=PLANE('',#699);
#611=PLANE('',#703);
#612=PLANE('',#707);
#613=PLANE('',#726);
#614=PLANE('',#730);
#615=PLANE('',#732);
#616=PLANE('',#736);
#617=PLANE('',#740);
#618=PLANE('',#744);
#619=ADVANCED_FACE('',(#541),#603,.F.);
#620=ADVANCED_FACE('',(#542),#604,.T.);
#621=ADVANCED_FACE('',(#543),#53,.T.);
#622=ADVANCED_FACE('',(#544),#605,.F.);
#623=ADVANCED_FACE('',(#545),#54,.F.);
#624=ADVANCED_FACE('',(#546),#606,.T.);
#625=ADVANCED_FACE('',(#547),#55,.F.);
#626=ADVANCED_FACE('',(#548),#607,.T.);
#627=ADVANCED_FACE('',(#549),#56,.T.);
#628=ADVANCED_FACE('',(#550),#608,.F.);
#629=ADVANCED_FACE('',(#551),#57,.T.);
#630=ADVANCED_FACE('',(#552,#553),#58,.F.);
#631=ADVANCED_FACE('',(#554),#59,.T.);
#632=ADVANCED_FACE('',(#555),#609,.F.);
#633=ADVANCED_FACE('',(#556),#60,.T.);
#634=ADVANCED_FACE('',(#557),#610,.F.);
#635=ADVANCED_FACE('',(#558),#61,.F.);
#636=ADVANCED_FACE('',(#559),#611,.F.);
#637=ADVANCED_FACE('',(#560),#62,.F.);
#638=ADVANCED_FACE('',(#561),#612,.T.);
#639=ADVANCED_FACE('',(#562),#63,.T.);
#640=ADVANCED_FACE('',(#563,#564),#64,.F.);
#641=ADVANCED_FACE('',(#565,#566),#65,.F.);
#642=ADVANCED_FACE('',(#567,#568),#66,.F.);
#643=ADVANCED_FACE('',(#569,#570),#67,.F.);
#644=ADVANCED_FACE('',(#571,#572),#68,.F.);
#645=ADVANCED_FACE('',(#573),#613,.F.);
#646=ADVANCED_FACE('',(#574,#575),#69,.F.);
#647=ADVANCED_FACE('',(#576,#577,#578,#579,#580,#581,#582),#614,.T.);
#648=ADVANCED_FACE('',(#583,#584,#585,#586,#587,#588,#589,#590),#615,.F.);
#649=ADVANCED_FACE('',(#591,#592),#70,.T.);
#650=ADVANCED_FACE('',(#593,#594),#616,.F.);
#651=ADVANCED_FACE('',(#595,#596),#71,.F.);
#652=ADVANCED_FACE('',(#597,#598),#617,.T.);
#653=ADVANCED_FACE('',(#599,#600),#72,.T.);
#654=ADVANCED_FACE('',(#601,#602),#618,.T.);
#655=CLOSED_SHELL('',(#619,#620,#621,#622,#623,#624,#625,#626,#627,#628,
#629,#630,#631,#632,#633,#634,#635,#636,#637,#638,#639,#640,#641,#642,#643,
#644,#645,#646,#647,#648,#649,#650,#651,#652,#653,#654));
#656=STYLED_ITEM('',(#657),#664);
#657=PRESENTATION_STYLE_ASSIGNMENT((#658));
#658=SURFACE_STYLE_USAGE(.BOTH.,#659);
#659=SURFACE_SIDE_STYLE('',(#660));
#660=SURFACE_STYLE_FILL_AREA(#661);
#661=FILL_AREA_STYLE('',(#662));
#662=FILL_AREA_STYLE_COLOUR('',#663);
#663=COLOUR_RGB('',0.6,0.6,0.6);
#664=MANIFOLD_SOLID_BREP('Part 1',#655);
#665=SHAPE_DEFINITION_REPRESENTATION(#1136,#666);
#666=SHAPE_REPRESENTATION('Part 1',(#667),#1131);
#667=AXIS2_PLACEMENT_3D('',#945,#745,#746);
#668=AXIS2_PLACEMENT_3D('',#946,#747,#748);
#669=AXIS2_PLACEMENT_3D('',#955,#753,#754);
#670=AXIS2_PLACEMENT_3D('',#964,#759,#760);
#671=AXIS2_PLACEMENT_3D('',#965,#761,#762);
#672=AXIS2_PLACEMENT_3D('',#970,#764,#765);
#673=AXIS2_PLACEMENT_3D('',#973,#767,#768);
#674=AXIS2_PLACEMENT_3D('',#979,#772,#773);
#675=AXIS2_PLACEMENT_3D('',#980,#774,#775);
#676=AXIS2_PLACEMENT_3D('',#984,#777,#778);
#677=AXIS2_PLACEMENT_3D('',#985,#779,#780);
#678=AXIS2_PLACEMENT_3D('',#991,#784,#785);
#679=AXIS2_PLACEMENT_3D('',#992,#786,#787);
#680=AXIS2_PLACEMENT_3D('',#996,#789,#790);
#681=AXIS2_PLACEMENT_3D('',#997,#791,#792);
#682=AXIS2_PLACEMENT_3D('',#1003,#796,#797);
#683=AXIS2_PLACEMENT_3D('',#1004,#798,#799);
#684=AXIS2_PLACEMENT_3D('',#1008,#801,#802);
#685=AXIS2_PLACEMENT_3D('',#1009,#803,#804);
#686=AXIS2_PLACEMENT_3D('',#1015,#808,#809);
#687=AXIS2_PLACEMENT_3D('',#1016,#810,#811);
#688=AXIS2_PLACEMENT_3D('',#1017,#812,#813);
#689=AXIS2_PLACEMENT_3D('',#1018,#814,#815);
#690=AXIS2_PLACEMENT_3D('',#1019,#816,#817);
#691=AXIS2_PLACEMENT_3D('',#1021,#818,#819);
#692=AXIS2_PLACEMENT_3D('',#1023,#820,#821);
#693=AXIS2_PLACEMENT_3D('',#1024,#822,#823);
#694=AXIS2_PLACEMENT_3D('',#1028,#825,#826);
#695=AXIS2_PLACEMENT_3D('',#1029,#827,#828);
#696=AXIS2_PLACEMENT_3D('',#1035,#832,#833);
#697=AXIS2_PLACEMENT_3D('',#1036,#834,#835);
#698=AXIS2_PLACEMENT_3D('',#1040,#837,#838);
#699=AXIS2_PLACEMENT_3D('',#1041,#839,#840);
#700=AXIS2_PLACEMENT_3D('',#1047,#844,#845);
#701=AXIS2_PLACEMENT_3D('',#1048,#846,#847);
#702=AXIS2_PLACEMENT_3D('',#1052,#849,#850);
#703=AXIS2_PLACEMENT_3D('',#1053,#851,#852);
#704=AXIS2_PLACEMENT_3D('',#1059,#856,#857);
#705=AXIS2_PLACEMENT_3D('',#1060,#858,#859);
#706=AXIS2_PLACEMENT_3D('',#1064,#861,#862);
#707=AXIS2_PLACEMENT_3D('',#1065,#863,#864);
#708=AXIS2_PLACEMENT_3D('',#1071,#868,#869);
#709=AXIS2_PLACEMENT_3D('',#1072,#870,#871);
#710=AXIS2_PLACEMENT_3D('',#1076,#873,#874);
#711=AXIS2_PLACEMENT_3D('',#1077,#875,#876);
#712=AXIS2_PLACEMENT_3D('',#1078,#877,#878);
#713=AXIS2_PLACEMENT_3D('',#1080,#879,#880);
#714=AXIS2_PLACEMENT_3D('',#1082,#881,#882);
#715=AXIS2_PLACEMENT_3D('',#1083,#883,#884);
#716=AXIS2_PLACEMENT_3D('',#1085,#885,#886);
#717=AXIS2_PLACEMENT_3D('',#1087,#887,#888);
#718=AXIS2_PLACEMENT_3D('',#1088,#889,#890);
#719=AXIS2_PLACEMENT_3D('',#1090,#891,#892);
#720=AXIS2_PLACEMENT_3D('',#1092,#893,#894);
#721=AXIS2_PLACEMENT_3D('',#1093,#895,#896);
#722=AXIS2_PLACEMENT_3D('',#1095,#897,#898);
#723=AXIS2_PLACEMENT_3D('',#1097,#899,#900);
#724=AXIS2_PLACEMENT_3D('',#1098,#901,#902);
#725=AXIS2_PLACEMENT_3D('',#1100,#903,#904);
#726=AXIS2_PLACEMENT_3D('',#1102,#905,#906);
#727=AXIS2_PLACEMENT_3D('',#1105,#909,#910);
#728=AXIS2_PLACEMENT_3D('',#1106,#911,#912);
#729=AXIS2_PLACEMENT_3D('',#1108,#913,#914);
#730=AXIS2_PLACEMENT_3D('',#1110,#915,#916);
#731=AXIS2_PLACEMENT_3D('',#1111,#917,#918);
#732=AXIS2_PLACEMENT_3D('',#1112,#919,#920);
#733=AXIS2_PLACEMENT_3D('',#1113,#921,#922);
#734=AXIS2_PLACEMENT_3D('',#1114,#923,#924);
#735=AXIS2_PLACEMENT_3D('',#1115,#925,#926);
#736=AXIS2_PLACEMENT_3D('',#1117,#927,#928);
#737=AXIS2_PLACEMENT_3D('',#1118,#929,#930);
#738=AXIS2_PLACEMENT_3D('',#1120,#931,#932);
#739=AXIS2_PLACEMENT_3D('',#1121,#933,#934);
#740=AXIS2_PLACEMENT_3D('',#1123,#935,#936);
#741=AXIS2_PLACEMENT_3D('',#1124,#937,#938);
#742=AXIS2_PLACEMENT_3D('',#1126,#939,#940);
#743=AXIS2_PLACEMENT_3D('',#1127,#941,#942);
#744=AXIS2_PLACEMENT_3D('',#1129,#943,#944);
#745=DIRECTION('',(0.,0.,1.));
#746=DIRECTION('',(1.,0.,0.));
#747=DIRECTION('',(1.,0.,0.));
#748=DIRECTION('',(0.,0.,-1.));
#749=DIRECTION('',(0.,0.,1.));
#750=DIRECTION('',(0.,-1.,0.));
#751=DIRECTION('',(0.,0.,-1.));
#752=DIRECTION('',(0.,-1.,0.));
#753=DIRECTION('',(-1.,0.,0.));
#754=DIRECTION('',(0.,0.,1.));
#755=DIRECTION('',(0.,1.,0.));
#756=DIRECTION('',(0.,0.,1.));
#757=DIRECTION('',(0.,1.,0.));
#758=DIRECTION('',(0.,0.,-1.));
#759=DIRECTION('',(0.,0.,-1.));
#760=DIRECTION('',(-1.,0.,0.));
#761=DIRECTION('',(0.,0.,-1.));
#762=DIRECTION('',(1.,0.,0.));
#763=DIRECTION('',(0.,0.,-1.));
#764=DIRECTION('',(0.,0.,-1.));
#765=DIRECTION('',(1.,0.,0.));
#766=DIRECTION('',(0.,0.,-1.));
#767=DIRECTION('',(-4.495933496721E-16,-1.,0.));
#768=DIRECTION('',(1.,-4.495933496721E-16,0.));
#769=DIRECTION('',(-1.,4.495933496721E-16,0.));
#770=DIRECTION('',(0.,0.,-1.));
#771=DIRECTION('',(-1.,4.495933496721E-16,0.));
#772=DIRECTION('',(0.,0.,-1.));
#773=DIRECTION('',(-1.,0.,0.));
#774=DIRECTION('',(0.,0.,-1.));
#775=DIRECTION('',(1.,0.,0.));
#776=DIRECTION('',(0.,0.,-1.));
#777=DIRECTION('',(0.,0.,-1.));
#778=DIRECTION('',(1.,0.,0.));
#779=DIRECTION('',(0.755689082789818,0.654930538417842,0.));
#780=DIRECTION('',(-0.654930538417842,0.755689082789818,0.));
#781=DIRECTION('',(0.654930538417842,-0.755689082789818,0.));
#782=DIRECTION('',(0.,0.,-1.));
#783=DIRECTION('',(0.654930538417842,-0.755689082789818,0.));
#784=DIRECTION('',(0.,0.,-1.));
#785=DIRECTION('',(-1.,0.,0.));
#786=DIRECTION('',(0.,0.,-1.));
#787=DIRECTION('',(1.,0.,0.));
#788=DIRECTION('',(0.,0.,-1.));
#789=DIRECTION('',(0.,0.,-1.));
#790=DIRECTION('',(1.,0.,0.));
#791=DIRECTION('',(1.,0.,0.));
#792=DIRECTION('',(0.,0.,-1.));
#793=DIRECTION('',(0.,-1.,0.));
#794=DIRECTION('',(0.,0.,-1.));
#795=DIRECTION('',(0.,-1.,0.));
#796=DIRECTION('',(0.,0.,-1.));
#797=DIRECTION('',(-1.,0.,0.));
#798=DIRECTION('',(0.,0.,-1.));
#799=DIRECTION('',(1.,0.,0.));
#800=DIRECTION('',(0.,0.,-1.));
#801=DIRECTION('',(0.,0.,-1.));
#802=DIRECTION('',(1.,0.,0.));
#803=DIRECTION('',(0.,-1.,0.));
#804=DIRECTION('',(0.,0.,-1.));
#805=DIRECTION('',(-1.,0.,0.));
#806=DIRECTION('',(0.,0.,-1.));
#807=DIRECTION('',(-1.,0.,0.));
#808=DIRECTION('',(0.,0.,-1.));
#809=DIRECTION('',(-1.,0.,0.));
#810=DIRECTION('',(0.,0.,1.));
#811=DIRECTION('',(1.,0.,0.));
#812=DIRECTION('',(0.,0.,1.));
#813=DIRECTION('',(1.,0.,0.));
#814=DIRECTION('',(0.,0.,-1.));
#815=DIRECTION('',(-1.,0.,0.));
#816=DIRECTION('',(0.,0.,1.));
#817=DIRECTION('',(1.,0.,0.));
#818=DIRECTION('',(0.,0.,1.));
#819=DIRECTION('',(1.,0.,0.));
#820=DIRECTION('',(0.,0.,-1.));
#821=DIRECTION('',(-1.,0.,0.));
#822=DIRECTION('',(0.,0.,-1.));
#823=DIRECTION('',(1.,0.,0.));
#824=DIRECTION('',(0.,0.,-1.));
#825=DIRECTION('',(0.,0.,-1.));
#826=DIRECTION('',(1.,0.,0.));
#827=DIRECTION('',(0.,1.,0.));
#828=DIRECTION('',(0.,0.,1.));
#829=DIRECTION('',(1.,0.,0.));
#830=DIRECTION('',(0.,0.,-1.));
#831=DIRECTION('',(1.,0.,0.));
#832=DIRECTION('',(0.,0.,-1.));
#833=DIRECTION('',(-1.,0.,0.));
#834=DIRECTION('',(0.,0.,1.));
#835=DIRECTION('',(1.,0.,0.));
#836=DIRECTION('',(0.,0.,-1.));
#837=DIRECTION('',(0.,0.,1.));
#838=DIRECTION('',(1.,0.,0.));
#839=DIRECTION('',(-1.,0.,0.));
#840=DIRECTION('',(0.,0.,1.));
#841=DIRECTION('',(0.,1.,0.));
#842=DIRECTION('',(0.,0.,-1.));
#843=DIRECTION('',(0.,1.,0.));
#844=DIRECTION('',(0.,0.,-1.));
#845=DIRECTION('',(-1.,0.,0.));
#846=DIRECTION('',(0.,0.,1.));
#847=DIRECTION('',(1.,0.,0.));
#848=DIRECTION('',(0.,0.,-1.));
#849=DIRECTION('',(0.,0.,1.));
#850=DIRECTION('',(1.,0.,0.));
#851=DIRECTION('',(-0.755689082789818,0.654930538417842,0.));
#852=DIRECTION('',(-0.654930538417842,-0.755689082789818,0.));
#853=DIRECTION('',(0.654930538417842,0.755689082789818,0.));
#854=DIRECTION('',(0.,0.,-1.));
#855=DIRECTION('',(0.654930538417842,0.755689082789818,0.));
#856=DIRECTION('',(0.,0.,-1.));
#857=DIRECTION('',(-1.,0.,0.));
#858=DIRECTION('',(0.,0.,1.));
#859=DIRECTION('',(1.,0.,0.));
#860=DIRECTION('',(0.,0.,-1.));
#861=DIRECTION('',(0.,0.,1.));
#862=DIRECTION('',(1.,0.,0.));
#863=DIRECTION('',(4.495933496721E-16,-1.,0.));
#864=DIRECTION('',(1.,4.495933496721E-16,0.));
#865=DIRECTION('',(-1.,-4.495933496721E-16,0.));
#866=DIRECTION('',(0.,0.,-1.));
#867=DIRECTION('',(-1.,-4.495933496721E-16,0.));
#868=DIRECTION('',(0.,0.,-1.));
#869=DIRECTION('',(-1.,0.,0.));
#870=DIRECTION('',(0.,0.,1.));
#871=DIRECTION('',(1.,0.,0.));
#872=DIRECTION('',(0.,0.,-1.));
#873=DIRECTION('',(0.,0.,1.));
#874=DIRECTION('',(1.,0.,0.));
#875=DIRECTION('',(0.,0.,-1.));
#876=DIRECTION('',(-1.,0.,0.));
#877=DIRECTION('',(0.,0.,-1.));
#878=DIRECTION('',(1.,0.,0.));
#879=DIRECTION('',(0.,0.,-1.));
#880=DIRECTION('',(1.,0.,0.));
#881=DIRECTION('',(0.,0.,-1.));
#882=DIRECTION('',(-1.,0.,0.));
#883=DIRECTION('',(0.,0.,1.));
#884=DIRECTION('',(1.,0.,0.));
#885=DIRECTION('',(0.,0.,1.));
#886=DIRECTION('',(1.,0.,0.));
#887=DIRECTION('',(0.,0.,-1.));
#888=DIRECTION('',(-1.,0.,0.));
#889=DIRECTION('',(0.,0.,1.));
#890=DIRECTION('',(1.,0.,0.));
#891=DIRECTION('',(0.,0.,1.));
#892=DIRECTION('',(1.,0.,0.));
#893=DIRECTION('',(0.,0.,-1.));
#894=DIRECTION('',(-1.,0.,0.));
#895=DIRECTION('',(0.,0.,-1.));
#896=DIRECTION('',(1.,0.,0.));
#897=DIRECTION('',(0.,0.,-1.));
#898=DIRECTION('',(1.,0.,0.));
#899=DIRECTION('',(0.,0.,-1.));
#900=DIRECTION('',(-1.,0.,0.));
#901=DIRECTION('',(0.,0.,1.));
#902=DIRECTION('',(1.,0.,0.));
#903=DIRECTION('',(0.,0.,1.));
#904=DIRECTION('',(1.,0.,0.));
#905=DIRECTION('',(-1.,0.,0.));
#906=DIRECTION('',(0.,0.,1.));
#907=DIRECTION('',(0.,1.,0.));
#908=DIRECTION('',(0.,1.,0.));
#909=DIRECTION('',(0.,0.,-1.));
#910=DIRECTION('',(-1.,0.,0.));
#911=DIRECTION('',(0.,0.,-1.));
#912=DIRECTION('',(1.,0.,0.));
#913=DIRECTION('',(0.,0.,-1.));
#914=DIRECTION('',(1.,0.,0.));
#915=DIRECTION('',(0.,0.,1.));
#916=DIRECTION('',(1.,0.,0.));
#917=DIRECTION('',(0.,0.,1.));
#918=DIRECTION('',(1.,0.,0.));
#919=DIRECTION('',(0.,0.,1.));
#920=DIRECTION('',(1.,0.,0.));
#921=DIRECTION('',(0.,0.,-1.));
#922=DIRECTION('',(-1.,0.,0.));
#923=DIRECTION('',(0.,0.,-1.));
#924=DIRECTION('',(-1.,0.,0.));
#925=DIRECTION('',(0.,0.,1.));
#926=DIRECTION('',(1.,0.,0.));
#927=DIRECTION('',(0.,0.,1.));
#928=DIRECTION('',(1.,0.,0.));
#929=DIRECTION('',(0.,0.,1.));
#930=DIRECTION('',(1.,0.,0.));
#931=DIRECTION('',(0.,0.,-1.));
#932=DIRECTION('',(-1.,0.,0.));
#933=DIRECTION('',(0.,0.,1.));
#934=DIRECTION('',(1.,0.,0.));
#935=DIRECTION('',(0.,0.,1.));
#936=DIRECTION('',(1.,0.,0.));
#937=DIRECTION('',(0.,0.,1.));
#938=DIRECTION('',(1.,0.,0.));
#939=DIRECTION('',(0.,0.,-1.));
#940=DIRECTION('',(-1.,0.,0.));
#941=DIRECTION('',(0.,0.,1.));
#942=DIRECTION('',(1.,0.,0.));
#943=DIRECTION('',(0.,0.,1.));
#944=DIRECTION('',(1.,0.,0.));
#945=CARTESIAN_POINT('',(0.,0.,0.));
#946=CARTESIAN_POINT('',(-0.014,0.0319325833156306,0.004));
#947=CARTESIAN_POINT('',(-0.014,0.0219089023002067,0.));
#948=CARTESIAN_POINT('',(-0.014,0.0219089023002067,0.004));
#949=CARTESIAN_POINT('',(-0.014,0.0219089023002067,0.));
#950=CARTESIAN_POINT('',(-0.014,0.0319325833156306,0.004));
#951=CARTESIAN_POINT('',(-0.014,0.036,0.004));
#952=CARTESIAN_POINT('',(-0.014,0.036,0.004));
#953=CARTESIAN_POINT('',(-0.014,0.036,0.));
#954=CARTESIAN_POINT('',(-0.014,0.0319325833156306,0.));
#955=CARTESIAN_POINT('',(-0.014,-0.023056727111078,0.004));
#956=CARTESIAN_POINT('',(-0.014,-0.023056727111078,0.004));
#957=CARTESIAN_POINT('',(-0.014,-0.036,0.004));
#958=CARTESIAN_POINT('',(-0.014,-0.0219089023002067,0.004));
#959=CARTESIAN_POINT('',(-0.014,-0.0219089023002067,0.));
#960=CARTESIAN_POINT('',(-0.014,-0.0219089023002067,0.));
#961=CARTESIAN_POINT('',(-0.014,-0.023056727111078,0.));
#962=CARTESIAN_POINT('',(-0.014,-0.036,0.));
#963=CARTESIAN_POINT('',(-0.014,-0.036,0.004));
#964=CARTESIAN_POINT('',(0.037,0.006,0.004));
#965=CARTESIAN_POINT('',(0.037,0.006,0.));
#966=CARTESIAN_POINT('',(0.037,0.011,0.));
#967=CARTESIAN_POINT('',(0.042,0.006,0.));
#968=CARTESIAN_POINT('',(0.037,0.011,0.004));
#969=CARTESIAN_POINT('',(0.037,0.011,0.004));
#970=CARTESIAN_POINT('',(0.037,0.006,0.004));
#971=CARTESIAN_POINT('',(0.042,0.006,0.004));
#972=CARTESIAN_POINT('',(0.042,0.006,0.004));
#973=CARTESIAN_POINT('',(0.0331415722068798,0.011,0.004));
#974=CARTESIAN_POINT('',(0.0331415722068798,0.011,0.));
#975=CARTESIAN_POINT('',(0.0292831444137597,0.011,0.));
#976=CARTESIAN_POINT('',(0.0292831444137597,0.011,0.004));
#977=CARTESIAN_POINT('',(0.0292831444137597,0.011,0.004));
#978=CARTESIAN_POINT('',(0.0331415722068798,0.011,0.004));
#979=CARTESIAN_POINT('',(0.0292831444137597,0.016,0.004));
#980=CARTESIAN_POINT('',(0.0292831444137597,0.016,0.));
#981=CARTESIAN_POINT('',(0.0255046989998107,0.0127253473079108,0.));
#982=CARTESIAN_POINT('',(0.0255046989998107,0.0127253473079108,0.004));
#983=CARTESIAN_POINT('',(0.0255046989998107,0.0127253473079108,0.004));
#984=CARTESIAN_POINT('',(0.0292831444137597,0.016,0.004));
#985=CARTESIAN_POINT('',(0.0203631267929308,0.0186579306235414,0.004));
#986=CARTESIAN_POINT('',(0.0203631267929308,0.0186579306235414,0.));
#987=CARTESIAN_POINT('',(0.0152215545860509,0.024590513939172,0.));
#988=CARTESIAN_POINT('',(0.0152215545860509,0.024590513939172,0.004));
#989=CARTESIAN_POINT('',(0.0152215545860509,0.024590513939172,0.004));
#990=CARTESIAN_POINT('',(0.0203631267929308,0.0186579306235414,0.004));
#991=CARTESIAN_POINT('',(0.019,0.0278651666312613,0.004));
#992=CARTESIAN_POINT('',(0.019,0.0278651666312613,0.));
#993=CARTESIAN_POINT('',(0.014,0.0278651666312613,0.));
#994=CARTESIAN_POINT('',(0.014,0.0278651666312613,0.004));
#995=CARTESIAN_POINT('',(0.014,0.0278651666312613,0.004));
#996=CARTESIAN_POINT('',(0.019,0.0278651666312613,0.004));
#997=CARTESIAN_POINT('',(0.014,0.0319325833156306,0.004));
#998=CARTESIAN_POINT('',(0.014,0.0319325833156306,0.));
#999=CARTESIAN_POINT('',(0.014,0.036,0.));
#1000=CARTESIAN_POINT('',(0.014,0.036,0.004));
#1001=CARTESIAN_POINT('',(0.014,0.036,0.004));
#1002=CARTESIAN_POINT('',(0.014,0.0319325833156306,0.004));
#1003=CARTESIAN_POINT('',(0.009,0.036,0.004));
#1004=CARTESIAN_POINT('',(0.009,0.036,0.));
#1005=CARTESIAN_POINT('',(0.009,0.041,0.));
#1006=CARTESIAN_POINT('',(0.009,0.041,0.004));
#1007=CARTESIAN_POINT('',(0.009,0.041,0.004));
#1008=CARTESIAN_POINT('',(0.009,0.036,0.004));
#1009=CARTESIAN_POINT('',(0.0045,0.041,0.004));
#1010=CARTESIAN_POINT('',(0.0045,0.041,0.));
#1011=CARTESIAN_POINT('',(-0.009,0.041,0.));
#1012=CARTESIAN_POINT('',(-0.009,0.041,0.004));
#1013=CARTESIAN_POINT('',(-0.009,0.041,0.004));
#1014=CARTESIAN_POINT('',(0.0045,0.041,0.004));
#1015=CARTESIAN_POINT('',(-0.009,0.036,0.004));
#1016=CARTESIAN_POINT('',(-0.009,0.036,0.));
#1017=CARTESIAN_POINT('',(-0.009,0.036,0.004));
#1018=CARTESIAN_POINT('',(6.93889390390723E-18,0.,0.004));
#1019=CARTESIAN_POINT('',(6.93889390390723E-18,0.,0.));
#1020=CARTESIAN_POINT('',(0.023,0.,0.));
#1021=CARTESIAN_POINT('',(0.,1.40834381901946E-18,0.01));
#1022=CARTESIAN_POINT('',(0.023,1.40834381901946E-18,0.01));
#1023=CARTESIAN_POINT('',(-0.009,-0.036,0.004));
#1024=CARTESIAN_POINT('',(-0.009,-0.036,0.));
#1025=CARTESIAN_POINT('',(-0.009,-0.041,0.));
#1026=CARTESIAN_POINT('',(-0.009,-0.041,0.004));
#1027=CARTESIAN_POINT('',(-0.009,-0.041,0.004));
#1028=CARTESIAN_POINT('',(-0.009,-0.036,0.004));
#1029=CARTESIAN_POINT('',(-0.0045,-0.041,0.004));
#1030=CARTESIAN_POINT('',(-0.0045,-0.041,0.));
#1031=CARTESIAN_POINT('',(0.009,-0.041,0.));
#1032=CARTESIAN_POINT('',(0.009,-0.041,0.004));
#1033=CARTESIAN_POINT('',(0.009,-0.041,0.004));
#1034=CARTESIAN_POINT('',(-0.0045,-0.041,0.004));
#1035=CARTESIAN_POINT('',(0.009,-0.036,0.004));
#1036=CARTESIAN_POINT('',(0.009,-0.036,0.));
#1037=CARTESIAN_POINT('',(0.014,-0.036,0.));
#1038=CARTESIAN_POINT('',(0.014,-0.036,0.004));
#1039=CARTESIAN_POINT('',(0.014,-0.036,0.004));
#1040=CARTESIAN_POINT('',(0.009,-0.036,0.004));
#1041=CARTESIAN_POINT('',(0.014,-0.0319325833156306,0.004));
#1042=CARTESIAN_POINT('',(0.014,-0.0319325833156306,0.));
#1043=CARTESIAN_POINT('',(0.014,-0.0278651666312613,0.));
#1044=CARTESIAN_POINT('',(0.014,-0.0278651666312613,0.004));
#1045=CARTESIAN_POINT('',(0.014,-0.0278651666312613,0.004));
#1046=CARTESIAN_POINT('',(0.014,-0.0319325833156306,0.004));
#1047=CARTESIAN_POINT('',(0.019,-0.0278651666312613,0.004));
#1048=CARTESIAN_POINT('',(0.019,-0.0278651666312613,0.));
#1049=CARTESIAN_POINT('',(0.0152215545860509,-0.024590513939172,0.));
#1050=CARTESIAN_POINT('',(0.0152215545860509,-0.024590513939172,0.004));
#1051=CARTESIAN_POINT('',(0.0152215545860509,-0.024590513939172,0.004));
#1052=CARTESIAN_POINT('',(0.019,-0.0278651666312613,0.004));
#1053=CARTESIAN_POINT('',(0.0203631267929308,-0.0186579306235414,0.004));
#1054=CARTESIAN_POINT('',(0.0203631267929308,-0.0186579306235414,0.));
#1055=CARTESIAN_POINT('',(0.0255046989998107,-0.0127253473079108,0.));
#1056=CARTESIAN_POINT('',(0.0255046989998107,-0.0127253473079108,0.004));
#1057=CARTESIAN_POINT('',(0.0255046989998107,-0.0127253473079108,0.004));
#1058=CARTESIAN_POINT('',(0.0203631267929308,-0.0186579306235414,0.004));
#1059=CARTESIAN_POINT('',(0.0292831444137597,-0.016,0.004));
#1060=CARTESIAN_POINT('',(0.0292831444137597,-0.016,0.));
#1061=CARTESIAN_POINT('',(0.0292831444137597,-0.011,0.));
#1062=CARTESIAN_POINT('',(0.0292831444137597,-0.011,0.004));
#1063=CARTESIAN_POINT('',(0.0292831444137597,-0.011,0.004));
#1064=CARTESIAN_POINT('',(0.0292831444137597,-0.016,0.004));
#1065=CARTESIAN_POINT('',(0.0331415722068798,-0.011,0.004));
#1066=CARTESIAN_POINT('',(0.0331415722068798,-0.011,0.));
#1067=CARTESIAN_POINT('',(0.037,-0.011,0.));
#1068=CARTESIAN_POINT('',(0.037,-0.011,0.004));
#1069=CARTESIAN_POINT('',(0.037,-0.011,0.004));
#1070=CARTESIAN_POINT('',(0.0331415722068798,-0.011,0.004));
#1071=CARTESIAN_POINT('',(0.037,-0.006,0.004));
#1072=CARTESIAN_POINT('',(0.037,-0.006,0.));
#1073=CARTESIAN_POINT('',(0.042,-0.006,0.));
#1074=CARTESIAN_POINT('',(0.042,-0.006,0.004));
#1075=CARTESIAN_POINT('',(0.042,-0.006,0.004));
#1076=CARTESIAN_POINT('',(0.037,-0.006,0.004));
#1077=CARTESIAN_POINT('',(-0.009,-0.036,0.004));
#1078=CARTESIAN_POINT('',(-0.009,-0.036,0.004));
#1079=CARTESIAN_POINT('',(-0.007,-0.036,0.004));
#1080=CARTESIAN_POINT('',(-0.009,-0.036,0.));
#1081=CARTESIAN_POINT('',(-0.007,-0.036,0.));
#1082=CARTESIAN_POINT('',(0.009,-0.036,0.004));
#1083=CARTESIAN_POINT('',(0.009,-0.036,0.004));
#1084=CARTESIAN_POINT('',(0.011,-0.036,0.004));
#1085=CARTESIAN_POINT('',(0.009,-0.036,0.));
#1086=CARTESIAN_POINT('',(0.011,-0.036,0.));
#1087=CARTESIAN_POINT('',(0.037,-0.006,0.004));
#1088=CARTESIAN_POINT('',(0.037,-0.006,0.004));
#1089=CARTESIAN_POINT('',(0.039,-0.006,0.004));
#1090=CARTESIAN_POINT('',(0.037,-0.006,0.));
#1091=CARTESIAN_POINT('',(0.039,-0.006,0.));
#1092=CARTESIAN_POINT('',(0.037,0.006,0.004));
#1093=CARTESIAN_POINT('',(0.037,0.006,0.004));
#1094=CARTESIAN_POINT('',(0.039,0.006,0.004));
#1095=CARTESIAN_POINT('',(0.037,0.006,0.));
#1096=CARTESIAN_POINT('',(0.039,0.006,0.));
#1097=CARTESIAN_POINT('',(-0.009,0.036,0.004));
#1098=CARTESIAN_POINT('',(-0.009,0.036,0.004));
#1099=CARTESIAN_POINT('',(-0.007,0.036,0.004));
#1100=CARTESIAN_POINT('',(-0.009,0.036,0.));
#1101=CARTESIAN_POINT('',(-0.007,0.036,0.));
#1102=CARTESIAN_POINT('',(0.042,-0.003,0.004));
#1103=CARTESIAN_POINT('',(0.042,-0.003,0.));
#1104=CARTESIAN_POINT('',(0.042,-0.003,0.004));
#1105=CARTESIAN_POINT('',(0.009,0.036,0.004));
#1106=CARTESIAN_POINT('',(0.009,0.036,0.004));
#1107=CARTESIAN_POINT('',(0.011,0.036,0.004));
#1108=CARTESIAN_POINT('',(0.009,0.036,0.));
#1109=CARTESIAN_POINT('',(0.011,0.036,0.));
#1110=CARTESIAN_POINT('',(0.0095,0.,0.004));
#1111=CARTESIAN_POINT('',(0.,1.59204083889156E-18,0.004));
#1112=CARTESIAN_POINT('',(0.0095,0.,0.));
#1113=CARTESIAN_POINT('',(0.,-1.59204083889156E-18,0.));
#1114=CARTESIAN_POINT('',(0.,1.59204083889156E-18,0.01));
#1115=CARTESIAN_POINT('',(0.,1.59204083889156E-18,0.015));
#1116=CARTESIAN_POINT('',(0.026,1.59204083889156E-18,0.015));
#1117=CARTESIAN_POINT('',(0.,0.,0.01));
#1118=CARTESIAN_POINT('',(0.,1.83697019872103E-18,0.01));
#1119=CARTESIAN_POINT('',(0.007,1.83697019872103E-18,0.01));
#1120=CARTESIAN_POINT('',(0.,1.83697019872103E-18,0.015));
#1121=CARTESIAN_POINT('',(0.,1.83697019872103E-18,0.04));
#1122=CARTESIAN_POINT('',(0.007,1.83697019872103E-18,0.04));
#1123=CARTESIAN_POINT('',(0.,0.,0.015));
#1124=CARTESIAN_POINT('',(0.,2.02066721859313E-18,0.015));
#1125=CARTESIAN_POINT('',(0.01,2.02066721859313E-18,0.015));
#1126=CARTESIAN_POINT('',(0.,2.02066721859313E-18,0.04));
#1127=CARTESIAN_POINT('',(0.,2.02066721859313E-18,0.04));
#1128=CARTESIAN_POINT('',(0.01,2.02066721859313E-18,0.04));
#1129=CARTESIAN_POINT('',(0.,0.,0.04));
#1130=MECHANICAL_DESIGN_GEOMETRIC_PRESENTATION_REPRESENTATION('',(#656),
#1131);
#1131=(
GEOMETRIC_REPRESENTATION_CONTEXT(3)
GLOBAL_UNCERTAINTY_ASSIGNED_CONTEXT((#1132))
GLOBAL_UNIT_ASSIGNED_CONTEXT((#1135,#1134,#1133))
REPRESENTATION_CONTEXT('Part 1','TOP_LEVEL_ASSEMBLY_PART')
);
#1132=UNCERTAINTY_MEASURE_WITH_UNIT(LENGTH_MEASURE(1.E-8),#1135,
'DISTANCE_ACCURACY_VALUE','Maximum Tolerance applied to model');
#1133=(
NAMED_UNIT(*)
SI_UNIT($,.STERADIAN.)
SOLID_ANGLE_UNIT()
);
#1134=(
NAMED_UNIT(*)
PLANE_ANGLE_UNIT()
SI_UNIT($,.RADIAN.)
);
#1135=(
LENGTH_UNIT()
NAMED_UNIT(*)
SI_UNIT($,.METRE.)
);
#1136=PRODUCT_DEFINITION_SHAPE('','',#1137);
#1137=PRODUCT_DEFINITION('','',#1139,#1138);
#1138=PRODUCT_DEFINITION_CONTEXT('',#1145,'design');
#1139=PRODUCT_DEFINITION_FORMATION_WITH_SPECIFIED_SOURCE('','',#1141,
 .NOT_KNOWN.);
#1140=PRODUCT_RELATED_PRODUCT_CATEGORY('','',(#1141));
#1141=PRODUCT('Part 1','Part 1','Part 1',(#1143));
#1142=PRODUCT_CATEGORY('','');
#1143=PRODUCT_CONTEXT('',#1145,'mechanical');
#1144=APPLICATION_PROTOCOL_DEFINITION('international standard',
'ap242_managed_model_based_3d_engineering',2011,#1145);
#1145=APPLICATION_CONTEXT('managed model based 3d engineering');
ENDSEC;
END-ISO-10303-21;
