ISO-10303-21;
HEADER;
/* Generated by software containing ST-Developer
 * from STEP Tools, Inc. (www.steptools.com) 
 */
/* OPTION: using custom renumber hook */

FILE_DESCRIPTION(
/* description */ ('STEP AP242',
'CAx-IF Rec.Pracs.---Representation and Presentation of Product Manufa
cturing Information (PMI)---4.0---2014-10-13',
'CAx-IF Rec.Pracs.---3D Tessellated Geometry---0.4---2014-09-14','2;1'),

/* implementation_level */ '2;1');

FILE_NAME(
/* name */ '6887ae5b7fb8d866e6e3311b',
/* time_stamp */ '2025-07-28T17:07:40Z',
/* author */ (''),
/* organization */ (''),
/* preprocessor_version */ 'ST-DEVELOPER v20',
/* originating_system */ 'ONSHAPE BY PTC INC, 1.201',
/* authorisation */ '  ');

FILE_SCHEMA (('AP242_MANAGED_MODEL_BASED_3D_ENGINEERING_MIM_LF { 1 0 10303 442 1 1 4 }'));
ENDSEC;

DATA;
#10=SHAPE_REPRESENTATION_RELATIONSHIP('','',#931,#11);
#11=ADVANCED_BREP_SHAPE_REPRESENTATION('',(#929),#1575);
#12=PLANE('',#936);
#13=PLANE('',#1063);
#14=PLANE('',#1064);
#15=PLANE('',#1065);
#16=LINE('',#1347,#24);
#17=LINE('',#1351,#25);
#18=LINE('',#1353,#26);
#19=LINE('',#1355,#27);
#20=LINE('',#1357,#28);
#21=LINE('',#1361,#29);
#22=LINE('',#1570,#30);
#23=LINE('',#1571,#31);
#24=VECTOR('',#1072,1.);
#25=VECTOR('',#1075,1.);
#26=VECTOR('',#1078,1.);
#27=VECTOR('',#1079,1.);
#28=VECTOR('',#1080,1.);
#29=VECTOR('',#1085,1.);
#30=VECTOR('',#1336,1.);
#31=VECTOR('',#1337,1.);
#32=ORIENTED_EDGE('',*,*,#220,.T.);
#33=ORIENTED_EDGE('',*,*,#221,.F.);
#34=ORIENTED_EDGE('',*,*,#222,.F.);
#35=ORIENTED_EDGE('',*,*,#223,.T.);
#36=ORIENTED_EDGE('',*,*,#224,.T.);
#37=ORIENTED_EDGE('',*,*,#225,.F.);
#38=ORIENTED_EDGE('',*,*,#226,.F.);
#39=ORIENTED_EDGE('',*,*,#221,.T.);
#40=ORIENTED_EDGE('',*,*,#227,.T.);
#41=ORIENTED_EDGE('',*,*,#228,.F.);
#42=ORIENTED_EDGE('',*,*,#229,.F.);
#43=ORIENTED_EDGE('',*,*,#225,.T.);
#44=ORIENTED_EDGE('',*,*,#230,.T.);
#45=ORIENTED_EDGE('',*,*,#231,.F.);
#46=ORIENTED_EDGE('',*,*,#232,.T.);
#47=ORIENTED_EDGE('',*,*,#233,.F.);
#48=ORIENTED_EDGE('',*,*,#234,.T.);
#49=ORIENTED_EDGE('',*,*,#235,.F.);
#50=ORIENTED_EDGE('',*,*,#236,.T.);
#51=ORIENTED_EDGE('',*,*,#237,.F.);
#52=ORIENTED_EDGE('',*,*,#238,.T.);
#53=ORIENTED_EDGE('',*,*,#239,.F.);
#54=ORIENTED_EDGE('',*,*,#240,.T.);
#55=ORIENTED_EDGE('',*,*,#241,.F.);
#56=ORIENTED_EDGE('',*,*,#242,.T.);
#57=ORIENTED_EDGE('',*,*,#243,.F.);
#58=ORIENTED_EDGE('',*,*,#244,.T.);
#59=ORIENTED_EDGE('',*,*,#245,.F.);
#60=ORIENTED_EDGE('',*,*,#246,.T.);
#61=ORIENTED_EDGE('',*,*,#247,.F.);
#62=ORIENTED_EDGE('',*,*,#248,.T.);
#63=ORIENTED_EDGE('',*,*,#249,.F.);
#64=ORIENTED_EDGE('',*,*,#250,.T.);
#65=ORIENTED_EDGE('',*,*,#251,.F.);
#66=ORIENTED_EDGE('',*,*,#252,.T.);
#67=ORIENTED_EDGE('',*,*,#253,.F.);
#68=ORIENTED_EDGE('',*,*,#254,.T.);
#69=ORIENTED_EDGE('',*,*,#255,.F.);
#70=ORIENTED_EDGE('',*,*,#256,.T.);
#71=ORIENTED_EDGE('',*,*,#257,.F.);
#72=ORIENTED_EDGE('',*,*,#258,.T.);
#73=ORIENTED_EDGE('',*,*,#259,.F.);
#74=ORIENTED_EDGE('',*,*,#260,.T.);
#75=ORIENTED_EDGE('',*,*,#261,.F.);
#76=ORIENTED_EDGE('',*,*,#262,.T.);
#77=ORIENTED_EDGE('',*,*,#263,.F.);
#78=ORIENTED_EDGE('',*,*,#264,.T.);
#79=ORIENTED_EDGE('',*,*,#265,.F.);
#80=ORIENTED_EDGE('',*,*,#266,.T.);
#81=ORIENTED_EDGE('',*,*,#267,.F.);
#82=ORIENTED_EDGE('',*,*,#268,.T.);
#83=ORIENTED_EDGE('',*,*,#269,.F.);
#84=ORIENTED_EDGE('',*,*,#270,.T.);
#85=ORIENTED_EDGE('',*,*,#271,.F.);
#86=ORIENTED_EDGE('',*,*,#272,.T.);
#87=ORIENTED_EDGE('',*,*,#273,.F.);
#88=ORIENTED_EDGE('',*,*,#274,.T.);
#89=ORIENTED_EDGE('',*,*,#275,.F.);
#90=ORIENTED_EDGE('',*,*,#276,.T.);
#91=ORIENTED_EDGE('',*,*,#277,.F.);
#92=ORIENTED_EDGE('',*,*,#278,.T.);
#93=ORIENTED_EDGE('',*,*,#279,.F.);
#94=ORIENTED_EDGE('',*,*,#280,.T.);
#95=ORIENTED_EDGE('',*,*,#281,.F.);
#96=ORIENTED_EDGE('',*,*,#282,.T.);
#97=ORIENTED_EDGE('',*,*,#283,.F.);
#98=ORIENTED_EDGE('',*,*,#284,.T.);
#99=ORIENTED_EDGE('',*,*,#285,.F.);
#100=ORIENTED_EDGE('',*,*,#286,.T.);
#101=ORIENTED_EDGE('',*,*,#287,.F.);
#102=ORIENTED_EDGE('',*,*,#288,.T.);
#103=ORIENTED_EDGE('',*,*,#289,.F.);
#104=ORIENTED_EDGE('',*,*,#290,.T.);
#105=ORIENTED_EDGE('',*,*,#291,.F.);
#106=ORIENTED_EDGE('',*,*,#292,.T.);
#107=ORIENTED_EDGE('',*,*,#293,.F.);
#108=ORIENTED_EDGE('',*,*,#294,.T.);
#109=ORIENTED_EDGE('',*,*,#295,.F.);
#110=ORIENTED_EDGE('',*,*,#296,.T.);
#111=ORIENTED_EDGE('',*,*,#297,.F.);
#112=ORIENTED_EDGE('',*,*,#298,.T.);
#113=ORIENTED_EDGE('',*,*,#299,.F.);
#114=ORIENTED_EDGE('',*,*,#300,.T.);
#115=ORIENTED_EDGE('',*,*,#301,.F.);
#116=ORIENTED_EDGE('',*,*,#302,.T.);
#117=ORIENTED_EDGE('',*,*,#303,.F.);
#118=ORIENTED_EDGE('',*,*,#304,.T.);
#119=ORIENTED_EDGE('',*,*,#305,.F.);
#120=ORIENTED_EDGE('',*,*,#306,.T.);
#121=ORIENTED_EDGE('',*,*,#307,.F.);
#122=ORIENTED_EDGE('',*,*,#308,.T.);
#123=ORIENTED_EDGE('',*,*,#309,.F.);
#124=ORIENTED_EDGE('',*,*,#310,.T.);
#125=ORIENTED_EDGE('',*,*,#311,.F.);
#126=ORIENTED_EDGE('',*,*,#312,.T.);
#127=ORIENTED_EDGE('',*,*,#223,.F.);
#128=ORIENTED_EDGE('',*,*,#313,.F.);
#129=ORIENTED_EDGE('',*,*,#228,.T.);
#130=ORIENTED_EDGE('',*,*,#310,.F.);
#131=ORIENTED_EDGE('',*,*,#308,.F.);
#132=ORIENTED_EDGE('',*,*,#306,.F.);
#133=ORIENTED_EDGE('',*,*,#304,.F.);
#134=ORIENTED_EDGE('',*,*,#302,.F.);
#135=ORIENTED_EDGE('',*,*,#300,.F.);
#136=ORIENTED_EDGE('',*,*,#298,.F.);
#137=ORIENTED_EDGE('',*,*,#296,.F.);
#138=ORIENTED_EDGE('',*,*,#294,.F.);
#139=ORIENTED_EDGE('',*,*,#292,.F.);
#140=ORIENTED_EDGE('',*,*,#290,.F.);
#141=ORIENTED_EDGE('',*,*,#288,.F.);
#142=ORIENTED_EDGE('',*,*,#286,.F.);
#143=ORIENTED_EDGE('',*,*,#284,.F.);
#144=ORIENTED_EDGE('',*,*,#282,.F.);
#145=ORIENTED_EDGE('',*,*,#280,.F.);
#146=ORIENTED_EDGE('',*,*,#278,.F.);
#147=ORIENTED_EDGE('',*,*,#276,.F.);
#148=ORIENTED_EDGE('',*,*,#274,.F.);
#149=ORIENTED_EDGE('',*,*,#272,.F.);
#150=ORIENTED_EDGE('',*,*,#270,.F.);
#151=ORIENTED_EDGE('',*,*,#268,.F.);
#152=ORIENTED_EDGE('',*,*,#266,.F.);
#153=ORIENTED_EDGE('',*,*,#264,.F.);
#154=ORIENTED_EDGE('',*,*,#262,.F.);
#155=ORIENTED_EDGE('',*,*,#260,.F.);
#156=ORIENTED_EDGE('',*,*,#258,.F.);
#157=ORIENTED_EDGE('',*,*,#256,.F.);
#158=ORIENTED_EDGE('',*,*,#254,.F.);
#159=ORIENTED_EDGE('',*,*,#252,.F.);
#160=ORIENTED_EDGE('',*,*,#250,.F.);
#161=ORIENTED_EDGE('',*,*,#248,.F.);
#162=ORIENTED_EDGE('',*,*,#246,.F.);
#163=ORIENTED_EDGE('',*,*,#244,.F.);
#164=ORIENTED_EDGE('',*,*,#242,.F.);
#165=ORIENTED_EDGE('',*,*,#240,.F.);
#166=ORIENTED_EDGE('',*,*,#238,.F.);
#167=ORIENTED_EDGE('',*,*,#236,.F.);
#168=ORIENTED_EDGE('',*,*,#234,.F.);
#169=ORIENTED_EDGE('',*,*,#232,.F.);
#170=ORIENTED_EDGE('',*,*,#230,.F.);
#171=ORIENTED_EDGE('',*,*,#222,.T.);
#172=ORIENTED_EDGE('',*,*,#226,.T.);
#173=ORIENTED_EDGE('',*,*,#229,.T.);
#174=ORIENTED_EDGE('',*,*,#313,.T.);
#175=ORIENTED_EDGE('',*,*,#311,.T.);
#176=ORIENTED_EDGE('',*,*,#309,.T.);
#177=ORIENTED_EDGE('',*,*,#307,.T.);
#178=ORIENTED_EDGE('',*,*,#305,.T.);
#179=ORIENTED_EDGE('',*,*,#303,.T.);
#180=ORIENTED_EDGE('',*,*,#301,.T.);
#181=ORIENTED_EDGE('',*,*,#299,.T.);
#182=ORIENTED_EDGE('',*,*,#297,.T.);
#183=ORIENTED_EDGE('',*,*,#295,.T.);
#184=ORIENTED_EDGE('',*,*,#293,.T.);
#185=ORIENTED_EDGE('',*,*,#291,.T.);
#186=ORIENTED_EDGE('',*,*,#289,.T.);
#187=ORIENTED_EDGE('',*,*,#287,.T.);
#188=ORIENTED_EDGE('',*,*,#285,.T.);
#189=ORIENTED_EDGE('',*,*,#283,.T.);
#190=ORIENTED_EDGE('',*,*,#281,.T.);
#191=ORIENTED_EDGE('',*,*,#279,.T.);
#192=ORIENTED_EDGE('',*,*,#277,.T.);
#193=ORIENTED_EDGE('',*,*,#275,.T.);
#194=ORIENTED_EDGE('',*,*,#273,.T.);
#195=ORIENTED_EDGE('',*,*,#271,.T.);
#196=ORIENTED_EDGE('',*,*,#269,.T.);
#197=ORIENTED_EDGE('',*,*,#267,.T.);
#198=ORIENTED_EDGE('',*,*,#265,.T.);
#199=ORIENTED_EDGE('',*,*,#263,.T.);
#200=ORIENTED_EDGE('',*,*,#261,.T.);
#201=ORIENTED_EDGE('',*,*,#259,.T.);
#202=ORIENTED_EDGE('',*,*,#257,.T.);
#203=ORIENTED_EDGE('',*,*,#255,.T.);
#204=ORIENTED_EDGE('',*,*,#253,.T.);
#205=ORIENTED_EDGE('',*,*,#251,.T.);
#206=ORIENTED_EDGE('',*,*,#249,.T.);
#207=ORIENTED_EDGE('',*,*,#247,.T.);
#208=ORIENTED_EDGE('',*,*,#245,.T.);
#209=ORIENTED_EDGE('',*,*,#243,.T.);
#210=ORIENTED_EDGE('',*,*,#241,.T.);
#211=ORIENTED_EDGE('',*,*,#239,.T.);
#212=ORIENTED_EDGE('',*,*,#237,.T.);
#213=ORIENTED_EDGE('',*,*,#235,.T.);
#214=ORIENTED_EDGE('',*,*,#233,.T.);
#215=ORIENTED_EDGE('',*,*,#231,.T.);
#216=ORIENTED_EDGE('',*,*,#220,.F.);
#217=ORIENTED_EDGE('',*,*,#312,.F.);
#218=ORIENTED_EDGE('',*,*,#227,.F.);
#219=ORIENTED_EDGE('',*,*,#224,.F.);
#220=EDGE_CURVE('',#314,#315,#404,.T.);
#221=EDGE_CURVE('',#316,#315,#16,.T.);
#222=EDGE_CURVE('',#317,#316,#405,.T.);
#223=EDGE_CURVE('',#317,#314,#17,.T.);
#224=EDGE_CURVE('',#315,#318,#18,.T.);
#225=EDGE_CURVE('',#319,#318,#19,.T.);
#226=EDGE_CURVE('',#316,#319,#20,.T.);
#227=EDGE_CURVE('',#318,#320,#406,.T.);
#228=EDGE_CURVE('',#321,#320,#21,.T.);
#229=EDGE_CURVE('',#319,#321,#407,.T.);
#230=EDGE_CURVE('',#322,#322,#408,.T.);
#231=EDGE_CURVE('',#323,#323,#409,.T.);
#232=EDGE_CURVE('',#324,#324,#410,.T.);
#233=EDGE_CURVE('',#325,#325,#411,.T.);
#234=EDGE_CURVE('',#326,#326,#412,.T.);
#235=EDGE_CURVE('',#327,#327,#413,.T.);
#236=EDGE_CURVE('',#328,#328,#414,.T.);
#237=EDGE_CURVE('',#329,#329,#415,.T.);
#238=EDGE_CURVE('',#330,#330,#416,.T.);
#239=EDGE_CURVE('',#331,#331,#417,.T.);
#240=EDGE_CURVE('',#332,#332,#418,.T.);
#241=EDGE_CURVE('',#333,#333,#419,.T.);
#242=EDGE_CURVE('',#334,#334,#420,.T.);
#243=EDGE_CURVE('',#335,#335,#421,.T.);
#244=EDGE_CURVE('',#336,#336,#422,.T.);
#245=EDGE_CURVE('',#337,#337,#423,.T.);
#246=EDGE_CURVE('',#338,#338,#424,.T.);
#247=EDGE_CURVE('',#339,#339,#425,.T.);
#248=EDGE_CURVE('',#340,#340,#426,.T.);
#249=EDGE_CURVE('',#341,#341,#427,.T.);
#250=EDGE_CURVE('',#342,#342,#428,.T.);
#251=EDGE_CURVE('',#343,#343,#429,.T.);
#252=EDGE_CURVE('',#344,#344,#430,.T.);
#253=EDGE_CURVE('',#345,#345,#431,.T.);
#254=EDGE_CURVE('',#346,#346,#432,.T.);
#255=EDGE_CURVE('',#347,#347,#433,.T.);
#256=EDGE_CURVE('',#348,#348,#434,.T.);
#257=EDGE_CURVE('',#349,#349,#435,.T.);
#258=EDGE_CURVE('',#350,#350,#436,.T.);
#259=EDGE_CURVE('',#351,#351,#437,.T.);
#260=EDGE_CURVE('',#352,#352,#438,.T.);
#261=EDGE_CURVE('',#353,#353,#439,.T.);
#262=EDGE_CURVE('',#354,#354,#440,.T.);
#263=EDGE_CURVE('',#355,#355,#441,.T.);
#264=EDGE_CURVE('',#356,#356,#442,.T.);
#265=EDGE_CURVE('',#357,#357,#443,.T.);
#266=EDGE_CURVE('',#358,#358,#444,.T.);
#267=EDGE_CURVE('',#359,#359,#445,.T.);
#268=EDGE_CURVE('',#360,#360,#446,.T.);
#269=EDGE_CURVE('',#361,#361,#447,.T.);
#270=EDGE_CURVE('',#362,#362,#448,.T.);
#271=EDGE_CURVE('',#363,#363,#449,.T.);
#272=EDGE_CURVE('',#364,#364,#450,.T.);
#273=EDGE_CURVE('',#365,#365,#451,.T.);
#274=EDGE_CURVE('',#366,#366,#452,.T.);
#275=EDGE_CURVE('',#367,#367,#453,.T.);
#276=EDGE_CURVE('',#368,#368,#454,.T.);
#277=EDGE_CURVE('',#369,#369,#455,.T.);
#278=EDGE_CURVE('',#370,#370,#456,.T.);
#279=EDGE_CURVE('',#371,#371,#457,.T.);
#280=EDGE_CURVE('',#372,#372,#458,.T.);
#281=EDGE_CURVE('',#373,#373,#459,.T.);
#282=EDGE_CURVE('',#374,#374,#460,.T.);
#283=EDGE_CURVE('',#375,#375,#461,.T.);
#284=EDGE_CURVE('',#376,#376,#462,.T.);
#285=EDGE_CURVE('',#377,#377,#463,.T.);
#286=EDGE_CURVE('',#378,#378,#464,.T.);
#287=EDGE_CURVE('',#379,#379,#465,.T.);
#288=EDGE_CURVE('',#380,#380,#466,.T.);
#289=EDGE_CURVE('',#381,#381,#467,.T.);
#290=EDGE_CURVE('',#382,#382,#468,.T.);
#291=EDGE_CURVE('',#383,#383,#469,.T.);
#292=EDGE_CURVE('',#384,#384,#470,.T.);
#293=EDGE_CURVE('',#385,#385,#471,.T.);
#294=EDGE_CURVE('',#386,#386,#472,.T.);
#295=EDGE_CURVE('',#387,#387,#473,.T.);
#296=EDGE_CURVE('',#388,#388,#474,.T.);
#297=EDGE_CURVE('',#389,#389,#475,.T.);
#298=EDGE_CURVE('',#390,#390,#476,.T.);
#299=EDGE_CURVE('',#391,#391,#477,.T.);
#300=EDGE_CURVE('',#392,#392,#478,.T.);
#301=EDGE_CURVE('',#393,#393,#479,.T.);
#302=EDGE_CURVE('',#394,#394,#480,.T.);
#303=EDGE_CURVE('',#395,#395,#481,.T.);
#304=EDGE_CURVE('',#396,#396,#482,.T.);
#305=EDGE_CURVE('',#397,#397,#483,.T.);
#306=EDGE_CURVE('',#398,#398,#484,.T.);
#307=EDGE_CURVE('',#399,#399,#485,.T.);
#308=EDGE_CURVE('',#400,#400,#486,.T.);
#309=EDGE_CURVE('',#401,#401,#487,.T.);
#310=EDGE_CURVE('',#402,#402,#488,.T.);
#311=EDGE_CURVE('',#403,#403,#489,.T.);
#312=EDGE_CURVE('',#320,#314,#22,.T.);
#313=EDGE_CURVE('',#321,#317,#23,.T.);
#314=VERTEX_POINT('',#1345);
#315=VERTEX_POINT('',#1346);
#316=VERTEX_POINT('',#1348);
#317=VERTEX_POINT('',#1350);
#318=VERTEX_POINT('',#1354);
#319=VERTEX_POINT('',#1356);
#320=VERTEX_POINT('',#1360);
#321=VERTEX_POINT('',#1362);
#322=VERTEX_POINT('',#1366);
#323=VERTEX_POINT('',#1368);
#324=VERTEX_POINT('',#1371);
#325=VERTEX_POINT('',#1373);
#326=VERTEX_POINT('',#1376);
#327=VERTEX_POINT('',#1378);
#328=VERTEX_POINT('',#1381);
#329=VERTEX_POINT('',#1383);
#330=VERTEX_POINT('',#1386);
#331=VERTEX_POINT('',#1388);
#332=VERTEX_POINT('',#1391);
#333=VERTEX_POINT('',#1393);
#334=VERTEX_POINT('',#1396);
#335=VERTEX_POINT('',#1398);
#336=VERTEX_POINT('',#1401);
#337=VERTEX_POINT('',#1403);
#338=VERTEX_POINT('',#1406);
#339=VERTEX_POINT('',#1408);
#340=VERTEX_POINT('',#1411);
#341=VERTEX_POINT('',#1413);
#342=VERTEX_POINT('',#1416);
#343=VERTEX_POINT('',#1418);
#344=VERTEX_POINT('',#1421);
#345=VERTEX_POINT('',#1423);
#346=VERTEX_POINT('',#1426);
#347=VERTEX_POINT('',#1428);
#348=VERTEX_POINT('',#1431);
#349=VERTEX_POINT('',#1433);
#350=VERTEX_POINT('',#1436);
#351=VERTEX_POINT('',#1438);
#352=VERTEX_POINT('',#1441);
#353=VERTEX_POINT('',#1443);
#354=VERTEX_POINT('',#1446);
#355=VERTEX_POINT('',#1448);
#356=VERTEX_POINT('',#1451);
#357=VERTEX_POINT('',#1453);
#358=VERTEX_POINT('',#1456);
#359=VERTEX_POINT('',#1458);
#360=VERTEX_POINT('',#1461);
#361=VERTEX_POINT('',#1463);
#362=VERTEX_POINT('',#1466);
#363=VERTEX_POINT('',#1468);
#364=VERTEX_POINT('',#1471);
#365=VERTEX_POINT('',#1473);
#366=VERTEX_POINT('',#1476);
#367=VERTEX_POINT('',#1478);
#368=VERTEX_POINT('',#1481);
#369=VERTEX_POINT('',#1483);
#370=VERTEX_POINT('',#1486);
#371=VERTEX_POINT('',#1488);
#372=VERTEX_POINT('',#1491);
#373=VERTEX_POINT('',#1493);
#374=VERTEX_POINT('',#1496);
#375=VERTEX_POINT('',#1498);
#376=VERTEX_POINT('',#1501);
#377=VERTEX_POINT('',#1503);
#378=VERTEX_POINT('',#1506);
#379=VERTEX_POINT('',#1508);
#380=VERTEX_POINT('',#1511);
#381=VERTEX_POINT('',#1513);
#382=VERTEX_POINT('',#1516);
#383=VERTEX_POINT('',#1518);
#384=VERTEX_POINT('',#1521);
#385=VERTEX_POINT('',#1523);
#386=VERTEX_POINT('',#1526);
#387=VERTEX_POINT('',#1528);
#388=VERTEX_POINT('',#1531);
#389=VERTEX_POINT('',#1533);
#390=VERTEX_POINT('',#1536);
#391=VERTEX_POINT('',#1538);
#392=VERTEX_POINT('',#1541);
#393=VERTEX_POINT('',#1543);
#394=VERTEX_POINT('',#1546);
#395=VERTEX_POINT('',#1548);
#396=VERTEX_POINT('',#1551);
#397=VERTEX_POINT('',#1553);
#398=VERTEX_POINT('',#1556);
#399=VERTEX_POINT('',#1558);
#400=VERTEX_POINT('',#1561);
#401=VERTEX_POINT('',#1563);
#402=VERTEX_POINT('',#1566);
#403=VERTEX_POINT('',#1568);
#404=CIRCLE('',#934,0.019);
#405=CIRCLE('',#935,0.019);
#406=CIRCLE('',#938,0.019);
#407=CIRCLE('',#939,0.019);
#408=CIRCLE('',#941,0.011);
#409=CIRCLE('',#942,0.011);
#410=CIRCLE('',#944,0.0015);
#411=CIRCLE('',#945,0.0015);
#412=CIRCLE('',#947,0.0015);
#413=CIRCLE('',#948,0.0015);
#414=CIRCLE('',#950,0.0015);
#415=CIRCLE('',#951,0.0015);
#416=CIRCLE('',#953,0.0015);
#417=CIRCLE('',#954,0.0015);
#418=CIRCLE('',#956,0.0015);
#419=CIRCLE('',#957,0.0015);
#420=CIRCLE('',#959,0.011);
#421=CIRCLE('',#960,0.011);
#422=CIRCLE('',#962,0.0015);
#423=CIRCLE('',#963,0.0015);
#424=CIRCLE('',#965,0.0015);
#425=CIRCLE('',#966,0.0015);
#426=CIRCLE('',#968,0.0015);
#427=CIRCLE('',#969,0.0015);
#428=CIRCLE('',#971,0.011);
#429=CIRCLE('',#972,0.011);
#430=CIRCLE('',#974,0.0015);
#431=CIRCLE('',#975,0.0015);
#432=CIRCLE('',#977,0.0015);
#433=CIRCLE('',#978,0.0015);
#434=CIRCLE('',#980,0.0015);
#435=CIRCLE('',#981,0.0015);
#436=CIRCLE('',#983,0.011);
#437=CIRCLE('',#984,0.011);
#438=CIRCLE('',#986,0.0015);
#439=CIRCLE('',#987,0.0015);
#440=CIRCLE('',#989,0.0015);
#441=CIRCLE('',#990,0.0015);
#442=CIRCLE('',#992,0.0015);
#443=CIRCLE('',#993,0.0015);
#444=CIRCLE('',#995,0.011);
#445=CIRCLE('',#996,0.011);
#446=CIRCLE('',#998,0.0015);
#447=CIRCLE('',#999,0.0015);
#448=CIRCLE('',#1001,0.0015);
#449=CIRCLE('',#1002,0.0015);
#450=CIRCLE('',#1004,0.0015);
#451=CIRCLE('',#1005,0.0015);
#452=CIRCLE('',#1007,0.011);
#453=CIRCLE('',#1008,0.011);
#454=CIRCLE('',#1010,0.0015);
#455=CIRCLE('',#1011,0.0015);
#456=CIRCLE('',#1013,0.0015);
#457=CIRCLE('',#1014,0.0015);
#458=CIRCLE('',#1016,0.0015);
#459=CIRCLE('',#1017,0.0015);
#460=CIRCLE('',#1019,0.011);
#461=CIRCLE('',#1020,0.011);
#462=CIRCLE('',#1022,0.0015);
#463=CIRCLE('',#1023,0.0015);
#464=CIRCLE('',#1025,0.0015);
#465=CIRCLE('',#1026,0.0015);
#466=CIRCLE('',#1028,0.0015);
#467=CIRCLE('',#1029,0.0015);
#468=CIRCLE('',#1031,0.011);
#469=CIRCLE('',#1032,0.011);
#470=CIRCLE('',#1034,0.0015);
#471=CIRCLE('',#1035,0.0015);
#472=CIRCLE('',#1037,0.0015);
#473=CIRCLE('',#1038,0.0015);
#474=CIRCLE('',#1040,0.0015);
#475=CIRCLE('',#1041,0.0015);
#476=CIRCLE('',#1043,0.011);
#477=CIRCLE('',#1044,0.011);
#478=CIRCLE('',#1046,0.0015);
#479=CIRCLE('',#1047,0.0015);
#480=CIRCLE('',#1049,0.0015);
#481=CIRCLE('',#1050,0.0015);
#482=CIRCLE('',#1052,0.0015);
#483=CIRCLE('',#1053,0.0015);
#484=CIRCLE('',#1055,0.011);
#485=CIRCLE('',#1056,0.011);
#486=CIRCLE('',#1058,0.0015);
#487=CIRCLE('',#1059,0.0015);
#488=CIRCLE('',#1061,0.0015);
#489=CIRCLE('',#1062,0.0015);
#490=EDGE_LOOP('',(#32,#33,#34,#35));
#491=EDGE_LOOP('',(#36,#37,#38,#39));
#492=EDGE_LOOP('',(#40,#41,#42,#43));
#493=EDGE_LOOP('',(#44));
#494=EDGE_LOOP('',(#45));
#495=EDGE_LOOP('',(#46));
#496=EDGE_LOOP('',(#47));
#497=EDGE_LOOP('',(#48));
#498=EDGE_LOOP('',(#49));
#499=EDGE_LOOP('',(#50));
#500=EDGE_LOOP('',(#51));
#501=EDGE_LOOP('',(#52));
#502=EDGE_LOOP('',(#53));
#503=EDGE_LOOP('',(#54));
#504=EDGE_LOOP('',(#55));
#505=EDGE_LOOP('',(#56));
#506=EDGE_LOOP('',(#57));
#507=EDGE_LOOP('',(#58));
#508=EDGE_LOOP('',(#59));
#509=EDGE_LOOP('',(#60));
#510=EDGE_LOOP('',(#61));
#511=EDGE_LOOP('',(#62));
#512=EDGE_LOOP('',(#63));
#513=EDGE_LOOP('',(#64));
#514=EDGE_LOOP('',(#65));
#515=EDGE_LOOP('',(#66));
#516=EDGE_LOOP('',(#67));
#517=EDGE_LOOP('',(#68));
#518=EDGE_LOOP('',(#69));
#519=EDGE_LOOP('',(#70));
#520=EDGE_LOOP('',(#71));
#521=EDGE_LOOP('',(#72));
#522=EDGE_LOOP('',(#73));
#523=EDGE_LOOP('',(#74));
#524=EDGE_LOOP('',(#75));
#525=EDGE_LOOP('',(#76));
#526=EDGE_LOOP('',(#77));
#527=EDGE_LOOP('',(#78));
#528=EDGE_LOOP('',(#79));
#529=EDGE_LOOP('',(#80));
#530=EDGE_LOOP('',(#81));
#531=EDGE_LOOP('',(#82));
#532=EDGE_LOOP('',(#83));
#533=EDGE_LOOP('',(#84));
#534=EDGE_LOOP('',(#85));
#535=EDGE_LOOP('',(#86));
#536=EDGE_LOOP('',(#87));
#537=EDGE_LOOP('',(#88));
#538=EDGE_LOOP('',(#89));
#539=EDGE_LOOP('',(#90));
#540=EDGE_LOOP('',(#91));
#541=EDGE_LOOP('',(#92));
#542=EDGE_LOOP('',(#93));
#543=EDGE_LOOP('',(#94));
#544=EDGE_LOOP('',(#95));
#545=EDGE_LOOP('',(#96));
#546=EDGE_LOOP('',(#97));
#547=EDGE_LOOP('',(#98));
#548=EDGE_LOOP('',(#99));
#549=EDGE_LOOP('',(#100));
#550=EDGE_LOOP('',(#101));
#551=EDGE_LOOP('',(#102));
#552=EDGE_LOOP('',(#103));
#553=EDGE_LOOP('',(#104));
#554=EDGE_LOOP('',(#105));
#555=EDGE_LOOP('',(#106));
#556=EDGE_LOOP('',(#107));
#557=EDGE_LOOP('',(#108));
#558=EDGE_LOOP('',(#109));
#559=EDGE_LOOP('',(#110));
#560=EDGE_LOOP('',(#111));
#561=EDGE_LOOP('',(#112));
#562=EDGE_LOOP('',(#113));
#563=EDGE_LOOP('',(#114));
#564=EDGE_LOOP('',(#115));
#565=EDGE_LOOP('',(#116));
#566=EDGE_LOOP('',(#117));
#567=EDGE_LOOP('',(#118));
#568=EDGE_LOOP('',(#119));
#569=EDGE_LOOP('',(#120));
#570=EDGE_LOOP('',(#121));
#571=EDGE_LOOP('',(#122));
#572=EDGE_LOOP('',(#123));
#573=EDGE_LOOP('',(#124));
#574=EDGE_LOOP('',(#125));
#575=EDGE_LOOP('',(#126,#127,#128,#129));
#576=EDGE_LOOP('',(#130));
#577=EDGE_LOOP('',(#131));
#578=EDGE_LOOP('',(#132));
#579=EDGE_LOOP('',(#133));
#580=EDGE_LOOP('',(#134));
#581=EDGE_LOOP('',(#135));
#582=EDGE_LOOP('',(#136));
#583=EDGE_LOOP('',(#137));
#584=EDGE_LOOP('',(#138));
#585=EDGE_LOOP('',(#139));
#586=EDGE_LOOP('',(#140));
#587=EDGE_LOOP('',(#141));
#588=EDGE_LOOP('',(#142));
#589=EDGE_LOOP('',(#143));
#590=EDGE_LOOP('',(#144));
#591=EDGE_LOOP('',(#145));
#592=EDGE_LOOP('',(#146));
#593=EDGE_LOOP('',(#147));
#594=EDGE_LOOP('',(#148));
#595=EDGE_LOOP('',(#149));
#596=EDGE_LOOP('',(#150));
#597=EDGE_LOOP('',(#151));
#598=EDGE_LOOP('',(#152));
#599=EDGE_LOOP('',(#153));
#600=EDGE_LOOP('',(#154));
#601=EDGE_LOOP('',(#155));
#602=EDGE_LOOP('',(#156));
#603=EDGE_LOOP('',(#157));
#604=EDGE_LOOP('',(#158));
#605=EDGE_LOOP('',(#159));
#606=EDGE_LOOP('',(#160));
#607=EDGE_LOOP('',(#161));
#608=EDGE_LOOP('',(#162));
#609=EDGE_LOOP('',(#163));
#610=EDGE_LOOP('',(#164));
#611=EDGE_LOOP('',(#165));
#612=EDGE_LOOP('',(#166));
#613=EDGE_LOOP('',(#167));
#614=EDGE_LOOP('',(#168));
#615=EDGE_LOOP('',(#169));
#616=EDGE_LOOP('',(#170));
#617=EDGE_LOOP('',(#171,#172,#173,#174));
#618=EDGE_LOOP('',(#175));
#619=EDGE_LOOP('',(#176));
#620=EDGE_LOOP('',(#177));
#621=EDGE_LOOP('',(#178));
#622=EDGE_LOOP('',(#179));
#623=EDGE_LOOP('',(#180));
#624=EDGE_LOOP('',(#181));
#625=EDGE_LOOP('',(#182));
#626=EDGE_LOOP('',(#183));
#627=EDGE_LOOP('',(#184));
#628=EDGE_LOOP('',(#185));
#629=EDGE_LOOP('',(#186));
#630=EDGE_LOOP('',(#187));
#631=EDGE_LOOP('',(#188));
#632=EDGE_LOOP('',(#189));
#633=EDGE_LOOP('',(#190));
#634=EDGE_LOOP('',(#191));
#635=EDGE_LOOP('',(#192));
#636=EDGE_LOOP('',(#193));
#637=EDGE_LOOP('',(#194));
#638=EDGE_LOOP('',(#195));
#639=EDGE_LOOP('',(#196));
#640=EDGE_LOOP('',(#197));
#641=EDGE_LOOP('',(#198));
#642=EDGE_LOOP('',(#199));
#643=EDGE_LOOP('',(#200));
#644=EDGE_LOOP('',(#201));
#645=EDGE_LOOP('',(#202));
#646=EDGE_LOOP('',(#203));
#647=EDGE_LOOP('',(#204));
#648=EDGE_LOOP('',(#205));
#649=EDGE_LOOP('',(#206));
#650=EDGE_LOOP('',(#207));
#651=EDGE_LOOP('',(#208));
#652=EDGE_LOOP('',(#209));
#653=EDGE_LOOP('',(#210));
#654=EDGE_LOOP('',(#211));
#655=EDGE_LOOP('',(#212));
#656=EDGE_LOOP('',(#213));
#657=EDGE_LOOP('',(#214));
#658=EDGE_LOOP('',(#215));
#659=EDGE_LOOP('',(#216,#217,#218,#219));
#660=FACE_BOUND('',#490,.T.);
#661=FACE_BOUND('',#491,.T.);
#662=FACE_BOUND('',#492,.T.);
#663=FACE_BOUND('',#493,.T.);
#664=FACE_BOUND('',#494,.T.);
#665=FACE_BOUND('',#495,.T.);
#666=FACE_BOUND('',#496,.T.);
#667=FACE_BOUND('',#497,.T.);
#668=FACE_BOUND('',#498,.T.);
#669=FACE_BOUND('',#499,.T.);
#670=FACE_BOUND('',#500,.T.);
#671=FACE_BOUND('',#501,.T.);
#672=FACE_BOUND('',#502,.T.);
#673=FACE_BOUND('',#503,.T.);
#674=FACE_BOUND('',#504,.T.);
#675=FACE_BOUND('',#505,.T.);
#676=FACE_BOUND('',#506,.T.);
#677=FACE_BOUND('',#507,.T.);
#678=FACE_BOUND('',#508,.T.);
#679=FACE_BOUND('',#509,.T.);
#680=FACE_BOUND('',#510,.T.);
#681=FACE_BOUND('',#511,.T.);
#682=FACE_BOUND('',#512,.T.);
#683=FACE_BOUND('',#513,.T.);
#684=FACE_BOUND('',#514,.T.);
#685=FACE_BOUND('',#515,.T.);
#686=FACE_BOUND('',#516,.T.);
#687=FACE_BOUND('',#517,.T.);
#688=FACE_BOUND('',#518,.T.);
#689=FACE_BOUND('',#519,.T.);
#690=FACE_BOUND('',#520,.T.);
#691=FACE_BOUND('',#521,.T.);
#692=FACE_BOUND('',#522,.T.);
#693=FACE_BOUND('',#523,.T.);
#694=FACE_BOUND('',#524,.T.);
#695=FACE_BOUND('',#525,.T.);
#696=FACE_BOUND('',#526,.T.);
#697=FACE_BOUND('',#527,.T.);
#698=FACE_BOUND('',#528,.T.);
#699=FACE_BOUND('',#529,.T.);
#700=FACE_BOUND('',#530,.T.);
#701=FACE_BOUND('',#531,.T.);
#702=FACE_BOUND('',#532,.T.);
#703=FACE_BOUND('',#533,.T.);
#704=FACE_BOUND('',#534,.T.);
#705=FACE_BOUND('',#535,.T.);
#706=FACE_BOUND('',#536,.T.);
#707=FACE_BOUND('',#537,.T.);
#708=FACE_BOUND('',#538,.T.);
#709=FACE_BOUND('',#539,.T.);
#710=FACE_BOUND('',#540,.T.);
#711=FACE_BOUND('',#541,.T.);
#712=FACE_BOUND('',#542,.T.);
#713=FACE_BOUND('',#543,.T.);
#714=FACE_BOUND('',#544,.T.);
#715=FACE_BOUND('',#545,.T.);
#716=FACE_BOUND('',#546,.T.);
#717=FACE_BOUND('',#547,.T.);
#718=FACE_BOUND('',#548,.T.);
#719=FACE_BOUND('',#549,.T.);
#720=FACE_BOUND('',#550,.T.);
#721=FACE_BOUND('',#551,.T.);
#722=FACE_BOUND('',#552,.T.);
#723=FACE_BOUND('',#553,.T.);
#724=FACE_BOUND('',#554,.T.);
#725=FACE_BOUND('',#555,.T.);
#726=FACE_BOUND('',#556,.T.);
#727=FACE_BOUND('',#557,.T.);
#728=FACE_BOUND('',#558,.T.);
#729=FACE_BOUND('',#559,.T.);
#730=FACE_BOUND('',#560,.T.);
#731=FACE_BOUND('',#561,.T.);
#732=FACE_BOUND('',#562,.T.);
#733=FACE_BOUND('',#563,.T.);
#734=FACE_BOUND('',#564,.T.);
#735=FACE_BOUND('',#565,.T.);
#736=FACE_BOUND('',#566,.T.);
#737=FACE_BOUND('',#567,.T.);
#738=FACE_BOUND('',#568,.T.);
#739=FACE_BOUND('',#569,.T.);
#740=FACE_BOUND('',#570,.T.);
#741=FACE_BOUND('',#571,.T.);
#742=FACE_BOUND('',#572,.T.);
#743=FACE_BOUND('',#573,.T.);
#744=FACE_BOUND('',#574,.T.);
#745=FACE_BOUND('',#575,.T.);
#746=FACE_BOUND('',#576,.T.);
#747=FACE_BOUND('',#577,.T.);
#748=FACE_BOUND('',#578,.T.);
#749=FACE_BOUND('',#579,.T.);
#750=FACE_BOUND('',#580,.T.);
#751=FACE_BOUND('',#581,.T.);
#752=FACE_BOUND('',#582,.T.);
#753=FACE_BOUND('',#583,.T.);
#754=FACE_BOUND('',#584,.T.);
#755=FACE_BOUND('',#585,.T.);
#756=FACE_BOUND('',#586,.T.);
#757=FACE_BOUND('',#587,.T.);
#758=FACE_BOUND('',#588,.T.);
#759=FACE_BOUND('',#589,.T.);
#760=FACE_BOUND('',#590,.T.);
#761=FACE_BOUND('',#591,.T.);
#762=FACE_BOUND('',#592,.T.);
#763=FACE_BOUND('',#593,.T.);
#764=FACE_BOUND('',#594,.T.);
#765=FACE_BOUND('',#595,.T.);
#766=FACE_BOUND('',#596,.T.);
#767=FACE_BOUND('',#597,.T.);
#768=FACE_BOUND('',#598,.T.);
#769=FACE_BOUND('',#599,.T.);
#770=FACE_BOUND('',#600,.T.);
#771=FACE_BOUND('',#601,.T.);
#772=FACE_BOUND('',#602,.T.);
#773=FACE_BOUND('',#603,.T.);
#774=FACE_BOUND('',#604,.T.);
#775=FACE_BOUND('',#605,.T.);
#776=FACE_BOUND('',#606,.T.);
#777=FACE_BOUND('',#607,.T.);
#778=FACE_BOUND('',#608,.T.);
#779=FACE_BOUND('',#609,.T.);
#780=FACE_BOUND('',#610,.T.);
#781=FACE_BOUND('',#611,.T.);
#782=FACE_BOUND('',#612,.T.);
#783=FACE_BOUND('',#613,.T.);
#784=FACE_BOUND('',#614,.T.);
#785=FACE_BOUND('',#615,.T.);
#786=FACE_BOUND('',#616,.T.);
#787=FACE_BOUND('',#617,.T.);
#788=FACE_BOUND('',#618,.T.);
#789=FACE_BOUND('',#619,.T.);
#790=FACE_BOUND('',#620,.T.);
#791=FACE_BOUND('',#621,.T.);
#792=FACE_BOUND('',#622,.T.);
#793=FACE_BOUND('',#623,.T.);
#794=FACE_BOUND('',#624,.T.);
#795=FACE_BOUND('',#625,.T.);
#796=FACE_BOUND('',#626,.T.);
#797=FACE_BOUND('',#627,.T.);
#798=FACE_BOUND('',#628,.T.);
#799=FACE_BOUND('',#629,.T.);
#800=FACE_BOUND('',#630,.T.);
#801=FACE_BOUND('',#631,.T.);
#802=FACE_BOUND('',#632,.T.);
#803=FACE_BOUND('',#633,.T.);
#804=FACE_BOUND('',#634,.T.);
#805=FACE_BOUND('',#635,.T.);
#806=FACE_BOUND('',#636,.T.);
#807=FACE_BOUND('',#637,.T.);
#808=FACE_BOUND('',#638,.T.);
#809=FACE_BOUND('',#639,.T.);
#810=FACE_BOUND('',#640,.T.);
#811=FACE_BOUND('',#641,.T.);
#812=FACE_BOUND('',#642,.T.);
#813=FACE_BOUND('',#643,.T.);
#814=FACE_BOUND('',#644,.T.);
#815=FACE_BOUND('',#645,.T.);
#816=FACE_BOUND('',#646,.T.);
#817=FACE_BOUND('',#647,.T.);
#818=FACE_BOUND('',#648,.T.);
#819=FACE_BOUND('',#649,.T.);
#820=FACE_BOUND('',#650,.T.);
#821=FACE_BOUND('',#651,.T.);
#822=FACE_BOUND('',#652,.T.);
#823=FACE_BOUND('',#653,.T.);
#824=FACE_BOUND('',#654,.T.);
#825=FACE_BOUND('',#655,.T.);
#826=FACE_BOUND('',#656,.T.);
#827=FACE_BOUND('',#657,.T.);
#828=FACE_BOUND('',#658,.T.);
#829=FACE_BOUND('',#659,.T.);
#830=CYLINDRICAL_SURFACE('',#933,0.019);
#831=CYLINDRICAL_SURFACE('',#937,0.019);
#832=CYLINDRICAL_SURFACE('',#940,0.011);
#833=CYLINDRICAL_SURFACE('',#943,0.0015);
#834=CYLINDRICAL_SURFACE('',#946,0.0015);
#835=CYLINDRICAL_SURFACE('',#949,0.0015);
#836=CYLINDRICAL_SURFACE('',#952,0.0015);
#837=CYLINDRICAL_SURFACE('',#955,0.0015);
#838=CYLINDRICAL_SURFACE('',#958,0.011);
#839=CYLINDRICAL_SURFACE('',#961,0.0015);
#840=CYLINDRICAL_SURFACE('',#964,0.0015);
#841=CYLINDRICAL_SURFACE('',#967,0.0015);
#842=CYLINDRICAL_SURFACE('',#970,0.011);
#843=CYLINDRICAL_SURFACE('',#973,0.0015);
#844=CYLINDRICAL_SURFACE('',#976,0.0015);
#845=CYLINDRICAL_SURFACE('',#979,0.0015);
#846=CYLINDRICAL_SURFACE('',#982,0.011);
#847=CYLINDRICAL_SURFACE('',#985,0.0015);
#848=CYLINDRICAL_SURFACE('',#988,0.0015);
#849=CYLINDRICAL_SURFACE('',#991,0.0015);
#850=CYLINDRICAL_SURFACE('',#994,0.011);
#851=CYLINDRICAL_SURFACE('',#997,0.0015);
#852=CYLINDRICAL_SURFACE('',#1000,0.0015);
#853=CYLINDRICAL_SURFACE('',#1003,0.0015);
#854=CYLINDRICAL_SURFACE('',#1006,0.011);
#855=CYLINDRICAL_SURFACE('',#1009,0.0015);
#856=CYLINDRICAL_SURFACE('',#1012,0.0015);
#857=CYLINDRICAL_SURFACE('',#1015,0.0015);
#858=CYLINDRICAL_SURFACE('',#1018,0.011);
#859=CYLINDRICAL_SURFACE('',#1021,0.0015);
#860=CYLINDRICAL_SURFACE('',#1024,0.0015);
#861=CYLINDRICAL_SURFACE('',#1027,0.0015);
#862=CYLINDRICAL_SURFACE('',#1030,0.011);
#863=CYLINDRICAL_SURFACE('',#1033,0.0015);
#864=CYLINDRICAL_SURFACE('',#1036,0.0015);
#865=CYLINDRICAL_SURFACE('',#1039,0.0015);
#866=CYLINDRICAL_SURFACE('',#1042,0.011);
#867=CYLINDRICAL_SURFACE('',#1045,0.0015);
#868=CYLINDRICAL_SURFACE('',#1048,0.0015);
#869=CYLINDRICAL_SURFACE('',#1051,0.0015);
#870=CYLINDRICAL_SURFACE('',#1054,0.011);
#871=CYLINDRICAL_SURFACE('',#1057,0.0015);
#872=CYLINDRICAL_SURFACE('',#1060,0.0015);
#873=ADVANCED_FACE('',(#660),#830,.T.);
#874=ADVANCED_FACE('',(#661),#12,.F.);
#875=ADVANCED_FACE('',(#662),#831,.T.);
#876=ADVANCED_FACE('',(#663,#664),#832,.F.);
#877=ADVANCED_FACE('',(#665,#666),#833,.F.);
#878=ADVANCED_FACE('',(#667,#668),#834,.F.);
#879=ADVANCED_FACE('',(#669,#670),#835,.F.);
#880=ADVANCED_FACE('',(#671,#672),#836,.F.);
#881=ADVANCED_FACE('',(#673,#674),#837,.F.);
#882=ADVANCED_FACE('',(#675,#676),#838,.F.);
#883=ADVANCED_FACE('',(#677,#678),#839,.F.);
#884=ADVANCED_FACE('',(#679,#680),#840,.F.);
#885=ADVANCED_FACE('',(#681,#682),#841,.F.);
#886=ADVANCED_FACE('',(#683,#684),#842,.F.);
#887=ADVANCED_FACE('',(#685,#686),#843,.F.);
#888=ADVANCED_FACE('',(#687,#688),#844,.F.);
#889=ADVANCED_FACE('',(#689,#690),#845,.F.);
#890=ADVANCED_FACE('',(#691,#692),#846,.F.);
#891=ADVANCED_FACE('',(#693,#694),#847,.F.);
#892=ADVANCED_FACE('',(#695,#696),#848,.F.);
#893=ADVANCED_FACE('',(#697,#698),#849,.F.);
#894=ADVANCED_FACE('',(#699,#700),#850,.F.);
#895=ADVANCED_FACE('',(#701,#702),#851,.F.);
#896=ADVANCED_FACE('',(#703,#704),#852,.F.);
#897=ADVANCED_FACE('',(#705,#706),#853,.F.);
#898=ADVANCED_FACE('',(#707,#708),#854,.F.);
#899=ADVANCED_FACE('',(#709,#710),#855,.F.);
#900=ADVANCED_FACE('',(#711,#712),#856,.F.);
#901=ADVANCED_FACE('',(#713,#714),#857,.F.);
#902=ADVANCED_FACE('',(#715,#716),#858,.F.);
#903=ADVANCED_FACE('',(#717,#718),#859,.F.);
#904=ADVANCED_FACE('',(#719,#720),#860,.F.);
#905=ADVANCED_FACE('',(#721,#722),#861,.F.);
#906=ADVANCED_FACE('',(#723,#724),#862,.F.);
#907=ADVANCED_FACE('',(#725,#726),#863,.F.);
#908=ADVANCED_FACE('',(#727,#728),#864,.F.);
#909=ADVANCED_FACE('',(#729,#730),#865,.F.);
#910=ADVANCED_FACE('',(#731,#732),#866,.F.);
#911=ADVANCED_FACE('',(#733,#734),#867,.F.);
#912=ADVANCED_FACE('',(#735,#736),#868,.F.);
#913=ADVANCED_FACE('',(#737,#738),#869,.F.);
#914=ADVANCED_FACE('',(#739,#740),#870,.F.);
#915=ADVANCED_FACE('',(#741,#742),#871,.F.);
#916=ADVANCED_FACE('',(#743,#744),#872,.F.);
#917=ADVANCED_FACE('',(#745),#13,.F.);
#918=ADVANCED_FACE('',(#746,#747,#748,#749,#750,#751,#752,#753,#754,#755,
#756,#757,#758,#759,#760,#761,#762,#763,#764,#765,#766,#767,#768,#769,#770,
#771,#772,#773,#774,#775,#776,#777,#778,#779,#780,#781,#782,#783,#784,#785,
#786,#787),#14,.T.);
#919=ADVANCED_FACE('',(#788,#789,#790,#791,#792,#793,#794,#795,#796,#797,
#798,#799,#800,#801,#802,#803,#804,#805,#806,#807,#808,#809,#810,#811,#812,
#813,#814,#815,#816,#817,#818,#819,#820,#821,#822,#823,#824,#825,#826,#827,
#828,#829),#15,.F.);
#920=CLOSED_SHELL('',(#873,#874,#875,#876,#877,#878,#879,#880,#881,#882,
#883,#884,#885,#886,#887,#888,#889,#890,#891,#892,#893,#894,#895,#896,#897,
#898,#899,#900,#901,#902,#903,#904,#905,#906,#907,#908,#909,#910,#911,#912,
#913,#914,#915,#916,#917,#918,#919));
#921=STYLED_ITEM('',(#922),#929);
#922=PRESENTATION_STYLE_ASSIGNMENT((#923));
#923=SURFACE_STYLE_USAGE(.BOTH.,#924);
#924=SURFACE_SIDE_STYLE('',(#925));
#925=SURFACE_STYLE_FILL_AREA(#926);
#926=FILL_AREA_STYLE('',(#927));
#927=FILL_AREA_STYLE_COLOUR('',#928);
#928=COLOUR_RGB('',0.4,0.4,0.4);
#929=MANIFOLD_SOLID_BREP('Part 1',#920);
#930=SHAPE_DEFINITION_REPRESENTATION(#1580,#931);
#931=SHAPE_REPRESENTATION('Part 1',(#932),#1575);
#932=AXIS2_PLACEMENT_3D('',#1342,#1066,#1067);
#933=AXIS2_PLACEMENT_3D('',#1343,#1068,#1069);
#934=AXIS2_PLACEMENT_3D('',#1344,#1070,#1071);
#935=AXIS2_PLACEMENT_3D('',#1349,#1073,#1074);
#936=AXIS2_PLACEMENT_3D('',#1352,#1076,#1077);
#937=AXIS2_PLACEMENT_3D('',#1358,#1081,#1082);
#938=AXIS2_PLACEMENT_3D('',#1359,#1083,#1084);
#939=AXIS2_PLACEMENT_3D('',#1363,#1086,#1087);
#940=AXIS2_PLACEMENT_3D('',#1364,#1088,#1089);
#941=AXIS2_PLACEMENT_3D('',#1365,#1090,#1091);
#942=AXIS2_PLACEMENT_3D('',#1367,#1092,#1093);
#943=AXIS2_PLACEMENT_3D('',#1369,#1094,#1095);
#944=AXIS2_PLACEMENT_3D('',#1370,#1096,#1097);
#945=AXIS2_PLACEMENT_3D('',#1372,#1098,#1099);
#946=AXIS2_PLACEMENT_3D('',#1374,#1100,#1101);
#947=AXIS2_PLACEMENT_3D('',#1375,#1102,#1103);
#948=AXIS2_PLACEMENT_3D('',#1377,#1104,#1105);
#949=AXIS2_PLACEMENT_3D('',#1379,#1106,#1107);
#950=AXIS2_PLACEMENT_3D('',#1380,#1108,#1109);
#951=AXIS2_PLACEMENT_3D('',#1382,#1110,#1111);
#952=AXIS2_PLACEMENT_3D('',#1384,#1112,#1113);
#953=AXIS2_PLACEMENT_3D('',#1385,#1114,#1115);
#954=AXIS2_PLACEMENT_3D('',#1387,#1116,#1117);
#955=AXIS2_PLACEMENT_3D('',#1389,#1118,#1119);
#956=AXIS2_PLACEMENT_3D('',#1390,#1120,#1121);
#957=AXIS2_PLACEMENT_3D('',#1392,#1122,#1123);
#958=AXIS2_PLACEMENT_3D('',#1394,#1124,#1125);
#959=AXIS2_PLACEMENT_3D('',#1395,#1126,#1127);
#960=AXIS2_PLACEMENT_3D('',#1397,#1128,#1129);
#961=AXIS2_PLACEMENT_3D('',#1399,#1130,#1131);
#962=AXIS2_PLACEMENT_3D('',#1400,#1132,#1133);
#963=AXIS2_PLACEMENT_3D('',#1402,#1134,#1135);
#964=AXIS2_PLACEMENT_3D('',#1404,#1136,#1137);
#965=AXIS2_PLACEMENT_3D('',#1405,#1138,#1139);
#966=AXIS2_PLACEMENT_3D('',#1407,#1140,#1141);
#967=AXIS2_PLACEMENT_3D('',#1409,#1142,#1143);
#968=AXIS2_PLACEMENT_3D('',#1410,#1144,#1145);
#969=AXIS2_PLACEMENT_3D('',#1412,#1146,#1147);
#970=AXIS2_PLACEMENT_3D('',#1414,#1148,#1149);
#971=AXIS2_PLACEMENT_3D('',#1415,#1150,#1151);
#972=AXIS2_PLACEMENT_3D('',#1417,#1152,#1153);
#973=AXIS2_PLACEMENT_3D('',#1419,#1154,#1155);
#974=AXIS2_PLACEMENT_3D('',#1420,#1156,#1157);
#975=AXIS2_PLACEMENT_3D('',#1422,#1158,#1159);
#976=AXIS2_PLACEMENT_3D('',#1424,#1160,#1161);
#977=AXIS2_PLACEMENT_3D('',#1425,#1162,#1163);
#978=AXIS2_PLACEMENT_3D('',#1427,#1164,#1165);
#979=AXIS2_PLACEMENT_3D('',#1429,#1166,#1167);
#980=AXIS2_PLACEMENT_3D('',#1430,#1168,#1169);
#981=AXIS2_PLACEMENT_3D('',#1432,#1170,#1171);
#982=AXIS2_PLACEMENT_3D('',#1434,#1172,#1173);
#983=AXIS2_PLACEMENT_3D('',#1435,#1174,#1175);
#984=AXIS2_PLACEMENT_3D('',#1437,#1176,#1177);
#985=AXIS2_PLACEMENT_3D('',#1439,#1178,#1179);
#986=AXIS2_PLACEMENT_3D('',#1440,#1180,#1181);
#987=AXIS2_PLACEMENT_3D('',#1442,#1182,#1183);
#988=AXIS2_PLACEMENT_3D('',#1444,#1184,#1185);
#989=AXIS2_PLACEMENT_3D('',#1445,#1186,#1187);
#990=AXIS2_PLACEMENT_3D('',#1447,#1188,#1189);
#991=AXIS2_PLACEMENT_3D('',#1449,#1190,#1191);
#992=AXIS2_PLACEMENT_3D('',#1450,#1192,#1193);
#993=AXIS2_PLACEMENT_3D('',#1452,#1194,#1195);
#994=AXIS2_PLACEMENT_3D('',#1454,#1196,#1197);
#995=AXIS2_PLACEMENT_3D('',#1455,#1198,#1199);
#996=AXIS2_PLACEMENT_3D('',#1457,#1200,#1201);
#997=AXIS2_PLACEMENT_3D('',#1459,#1202,#1203);
#998=AXIS2_PLACEMENT_3D('',#1460,#1204,#1205);
#999=AXIS2_PLACEMENT_3D('',#1462,#1206,#1207);
#1000=AXIS2_PLACEMENT_3D('',#1464,#1208,#1209);
#1001=AXIS2_PLACEMENT_3D('',#1465,#1210,#1211);
#1002=AXIS2_PLACEMENT_3D('',#1467,#1212,#1213);
#1003=AXIS2_PLACEMENT_3D('',#1469,#1214,#1215);
#1004=AXIS2_PLACEMENT_3D('',#1470,#1216,#1217);
#1005=AXIS2_PLACEMENT_3D('',#1472,#1218,#1219);
#1006=AXIS2_PLACEMENT_3D('',#1474,#1220,#1221);
#1007=AXIS2_PLACEMENT_3D('',#1475,#1222,#1223);
#1008=AXIS2_PLACEMENT_3D('',#1477,#1224,#1225);
#1009=AXIS2_PLACEMENT_3D('',#1479,#1226,#1227);
#1010=AXIS2_PLACEMENT_3D('',#1480,#1228,#1229);
#1011=AXIS2_PLACEMENT_3D('',#1482,#1230,#1231);
#1012=AXIS2_PLACEMENT_3D('',#1484,#1232,#1233);
#1013=AXIS2_PLACEMENT_3D('',#1485,#1234,#1235);
#1014=AXIS2_PLACEMENT_3D('',#1487,#1236,#1237);
#1015=AXIS2_PLACEMENT_3D('',#1489,#1238,#1239);
#1016=AXIS2_PLACEMENT_3D('',#1490,#1240,#1241);
#1017=AXIS2_PLACEMENT_3D('',#1492,#1242,#1243);
#1018=AXIS2_PLACEMENT_3D('',#1494,#1244,#1245);
#1019=AXIS2_PLACEMENT_3D('',#1495,#1246,#1247);
#1020=AXIS2_PLACEMENT_3D('',#1497,#1248,#1249);
#1021=AXIS2_PLACEMENT_3D('',#1499,#1250,#1251);
#1022=AXIS2_PLACEMENT_3D('',#1500,#1252,#1253);
#1023=AXIS2_PLACEMENT_3D('',#1502,#1254,#1255);
#1024=AXIS2_PLACEMENT_3D('',#1504,#1256,#1257);
#1025=AXIS2_PLACEMENT_3D('',#1505,#1258,#1259);
#1026=AXIS2_PLACEMENT_3D('',#1507,#1260,#1261);
#1027=AXIS2_PLACEMENT_3D('',#1509,#1262,#1263);
#1028=AXIS2_PLACEMENT_3D('',#1510,#1264,#1265);
#1029=AXIS2_PLACEMENT_3D('',#1512,#1266,#1267);
#1030=AXIS2_PLACEMENT_3D('',#1514,#1268,#1269);
#1031=AXIS2_PLACEMENT_3D('',#1515,#1270,#1271);
#1032=AXIS2_PLACEMENT_3D('',#1517,#1272,#1273);
#1033=AXIS2_PLACEMENT_3D('',#1519,#1274,#1275);
#1034=AXIS2_PLACEMENT_3D('',#1520,#1276,#1277);
#1035=AXIS2_PLACEMENT_3D('',#1522,#1278,#1279);
#1036=AXIS2_PLACEMENT_3D('',#1524,#1280,#1281);
#1037=AXIS2_PLACEMENT_3D('',#1525,#1282,#1283);
#1038=AXIS2_PLACEMENT_3D('',#1527,#1284,#1285);
#1039=AXIS2_PLACEMENT_3D('',#1529,#1286,#1287);
#1040=AXIS2_PLACEMENT_3D('',#1530,#1288,#1289);
#1041=AXIS2_PLACEMENT_3D('',#1532,#1290,#1291);
#1042=AXIS2_PLACEMENT_3D('',#1534,#1292,#1293);
#1043=AXIS2_PLACEMENT_3D('',#1535,#1294,#1295);
#1044=AXIS2_PLACEMENT_3D('',#1537,#1296,#1297);
#1045=AXIS2_PLACEMENT_3D('',#1539,#1298,#1299);
#1046=AXIS2_PLACEMENT_3D('',#1540,#1300,#1301);
#1047=AXIS2_PLACEMENT_3D('',#1542,#1302,#1303);
#1048=AXIS2_PLACEMENT_3D('',#1544,#1304,#1305);
#1049=AXIS2_PLACEMENT_3D('',#1545,#1306,#1307);
#1050=AXIS2_PLACEMENT_3D('',#1547,#1308,#1309);
#1051=AXIS2_PLACEMENT_3D('',#1549,#1310,#1311);
#1052=AXIS2_PLACEMENT_3D('',#1550,#1312,#1313);
#1053=AXIS2_PLACEMENT_3D('',#1552,#1314,#1315);
#1054=AXIS2_PLACEMENT_3D('',#1554,#1316,#1317);
#1055=AXIS2_PLACEMENT_3D('',#1555,#1318,#1319);
#1056=AXIS2_PLACEMENT_3D('',#1557,#1320,#1321);
#1057=AXIS2_PLACEMENT_3D('',#1559,#1322,#1323);
#1058=AXIS2_PLACEMENT_3D('',#1560,#1324,#1325);
#1059=AXIS2_PLACEMENT_3D('',#1562,#1326,#1327);
#1060=AXIS2_PLACEMENT_3D('',#1564,#1328,#1329);
#1061=AXIS2_PLACEMENT_3D('',#1565,#1330,#1331);
#1062=AXIS2_PLACEMENT_3D('',#1567,#1332,#1333);
#1063=AXIS2_PLACEMENT_3D('',#1569,#1334,#1335);
#1064=AXIS2_PLACEMENT_3D('',#1572,#1338,#1339);
#1065=AXIS2_PLACEMENT_3D('',#1573,#1340,#1341);
#1066=DIRECTION('',(0.,0.,1.));
#1067=DIRECTION('',(1.,0.,0.));
#1068=DIRECTION('',(0.,0.,-1.));
#1069=DIRECTION('',(-1.,0.,0.));
#1070=DIRECTION('',(0.,0.,1.));
#1071=DIRECTION('',(1.,0.,0.));
#1072=DIRECTION('',(0.,0.,-1.));
#1073=DIRECTION('',(0.,0.,1.));
#1074=DIRECTION('',(1.,0.,0.));
#1075=DIRECTION('',(0.,0.,-1.));
#1076=DIRECTION('',(0.,1.,0.));
#1077=DIRECTION('',(0.,0.,1.));
#1078=DIRECTION('',(1.,0.,0.));
#1079=DIRECTION('',(0.,0.,-1.));
#1080=DIRECTION('',(1.,0.,0.));
#1081=DIRECTION('',(0.,0.,-1.));
#1082=DIRECTION('',(-1.,0.,0.));
#1083=DIRECTION('',(0.,0.,1.));
#1084=DIRECTION('',(1.,0.,0.));
#1085=DIRECTION('',(0.,0.,-1.));
#1086=DIRECTION('',(0.,0.,1.));
#1087=DIRECTION('',(1.,0.,0.));
#1088=DIRECTION('',(0.,0.,-1.));
#1089=DIRECTION('',(-1.,0.,0.));
#1090=DIRECTION('',(0.,0.,1.));
#1091=DIRECTION('',(1.,0.,0.));
#1092=DIRECTION('',(0.,0.,1.));
#1093=DIRECTION('',(1.,0.,0.));
#1094=DIRECTION('',(0.,0.,-1.));
#1095=DIRECTION('',(-1.,0.,0.));
#1096=DIRECTION('',(0.,0.,1.));
#1097=DIRECTION('',(1.,0.,0.));
#1098=DIRECTION('',(0.,0.,1.));
#1099=DIRECTION('',(1.,0.,0.));
#1100=DIRECTION('',(0.,0.,-1.));
#1101=DIRECTION('',(-1.,0.,0.));
#1102=DIRECTION('',(0.,0.,1.));
#1103=DIRECTION('',(1.,0.,0.));
#1104=DIRECTION('',(0.,0.,1.));
#1105=DIRECTION('',(1.,0.,0.));
#1106=DIRECTION('',(0.,0.,-1.));
#1107=DIRECTION('',(-1.,0.,0.));
#1108=DIRECTION('',(0.,0.,1.));
#1109=DIRECTION('',(1.,0.,0.));
#1110=DIRECTION('',(0.,0.,1.));
#1111=DIRECTION('',(1.,0.,0.));
#1112=DIRECTION('',(0.,0.,-1.));
#1113=DIRECTION('',(-1.,0.,0.));
#1114=DIRECTION('',(0.,0.,1.));
#1115=DIRECTION('',(1.,0.,0.));
#1116=DIRECTION('',(0.,0.,1.));
#1117=DIRECTION('',(1.,0.,0.));
#1118=DIRECTION('',(0.,0.,-1.));
#1119=DIRECTION('',(-1.,0.,0.));
#1120=DIRECTION('',(0.,0.,1.));
#1121=DIRECTION('',(1.,0.,0.));
#1122=DIRECTION('',(0.,0.,1.));
#1123=DIRECTION('',(1.,0.,0.));
#1124=DIRECTION('',(0.,0.,-1.));
#1125=DIRECTION('',(-1.,0.,0.));
#1126=DIRECTION('',(0.,0.,1.));
#1127=DIRECTION('',(1.,0.,0.));
#1128=DIRECTION('',(0.,0.,1.));
#1129=DIRECTION('',(1.,0.,0.));
#1130=DIRECTION('',(0.,0.,-1.));
#1131=DIRECTION('',(-1.,0.,0.));
#1132=DIRECTION('',(0.,0.,1.));
#1133=DIRECTION('',(1.,0.,0.));
#1134=DIRECTION('',(0.,0.,1.));
#1135=DIRECTION('',(1.,0.,0.));
#1136=DIRECTION('',(0.,0.,-1.));
#1137=DIRECTION('',(-1.,0.,0.));
#1138=DIRECTION('',(0.,0.,1.));
#1139=DIRECTION('',(1.,0.,0.));
#1140=DIRECTION('',(0.,0.,1.));
#1141=DIRECTION('',(1.,0.,0.));
#1142=DIRECTION('',(0.,0.,-1.));
#1143=DIRECTION('',(-1.,0.,0.));
#1144=DIRECTION('',(0.,0.,1.));
#1145=DIRECTION('',(1.,0.,0.));
#1146=DIRECTION('',(0.,0.,1.));
#1147=DIRECTION('',(1.,0.,0.));
#1148=DIRECTION('',(0.,0.,-1.));
#1149=DIRECTION('',(-1.,0.,0.));
#1150=DIRECTION('',(0.,0.,1.));
#1151=DIRECTION('',(1.,0.,0.));
#1152=DIRECTION('',(0.,0.,1.));
#1153=DIRECTION('',(1.,0.,0.));
#1154=DIRECTION('',(0.,0.,-1.));
#1155=DIRECTION('',(-1.,0.,0.));
#1156=DIRECTION('',(0.,0.,1.));
#1157=DIRECTION('',(1.,0.,0.));
#1158=DIRECTION('',(0.,0.,1.));
#1159=DIRECTION('',(1.,0.,0.));
#1160=DIRECTION('',(0.,0.,-1.));
#1161=DIRECTION('',(-1.,0.,0.));
#1162=DIRECTION('',(0.,0.,1.));
#1163=DIRECTION('',(1.,0.,0.));
#1164=DIRECTION('',(0.,0.,1.));
#1165=DIRECTION('',(1.,0.,0.));
#1166=DIRECTION('',(0.,0.,-1.));
#1167=DIRECTION('',(-1.,0.,0.));
#1168=DIRECTION('',(0.,0.,1.));
#1169=DIRECTION('',(1.,0.,0.));
#1170=DIRECTION('',(0.,0.,1.));
#1171=DIRECTION('',(1.,0.,0.));
#1172=DIRECTION('',(0.,0.,-1.));
#1173=DIRECTION('',(-1.,0.,0.));
#1174=DIRECTION('',(0.,0.,1.));
#1175=DIRECTION('',(1.,0.,0.));
#1176=DIRECTION('',(0.,0.,1.));
#1177=DIRECTION('',(1.,0.,0.));
#1178=DIRECTION('',(0.,0.,-1.));
#1179=DIRECTION('',(-1.,0.,0.));
#1180=DIRECTION('',(0.,0.,1.));
#1181=DIRECTION('',(1.,0.,0.));
#1182=DIRECTION('',(0.,0.,1.));
#1183=DIRECTION('',(1.,0.,0.));
#1184=DIRECTION('',(0.,0.,-1.));
#1185=DIRECTION('',(-1.,0.,0.));
#1186=DIRECTION('',(0.,0.,1.));
#1187=DIRECTION('',(1.,0.,0.));
#1188=DIRECTION('',(0.,0.,1.));
#1189=DIRECTION('',(1.,0.,0.));
#1190=DIRECTION('',(0.,0.,-1.));
#1191=DIRECTION('',(-1.,0.,0.));
#1192=DIRECTION('',(0.,0.,1.));
#1193=DIRECTION('',(1.,0.,0.));
#1194=DIRECTION('',(0.,0.,1.));
#1195=DIRECTION('',(1.,0.,0.));
#1196=DIRECTION('',(0.,0.,-1.));
#1197=DIRECTION('',(-1.,0.,0.));
#1198=DIRECTION('',(0.,0.,1.));
#1199=DIRECTION('',(1.,0.,0.));
#1200=DIRECTION('',(0.,0.,1.));
#1201=DIRECTION('',(1.,0.,0.));
#1202=DIRECTION('',(0.,0.,-1.));
#1203=DIRECTION('',(-1.,0.,0.));
#1204=DIRECTION('',(0.,0.,1.));
#1205=DIRECTION('',(1.,0.,0.));
#1206=DIRECTION('',(0.,0.,1.));
#1207=DIRECTION('',(1.,0.,0.));
#1208=DIRECTION('',(0.,0.,-1.));
#1209=DIRECTION('',(-1.,0.,0.));
#1210=DIRECTION('',(0.,0.,1.));
#1211=DIRECTION('',(1.,0.,0.));
#1212=DIRECTION('',(0.,0.,1.));
#1213=DIRECTION('',(1.,0.,0.));
#1214=DIRECTION('',(0.,0.,-1.));
#1215=DIRECTION('',(-1.,0.,0.));
#1216=DIRECTION('',(0.,0.,1.));
#1217=DIRECTION('',(1.,0.,0.));
#1218=DIRECTION('',(0.,0.,1.));
#1219=DIRECTION('',(1.,0.,0.));
#1220=DIRECTION('',(0.,0.,-1.));
#1221=DIRECTION('',(-1.,0.,0.));
#1222=DIRECTION('',(0.,0.,1.));
#1223=DIRECTION('',(1.,0.,0.));
#1224=DIRECTION('',(0.,0.,1.));
#1225=DIRECTION('',(1.,0.,0.));
#1226=DIRECTION('',(0.,0.,-1.));
#1227=DIRECTION('',(-1.,0.,0.));
#1228=DIRECTION('',(0.,0.,1.));
#1229=DIRECTION('',(1.,0.,0.));
#1230=DIRECTION('',(0.,0.,1.));
#1231=DIRECTION('',(1.,0.,0.));
#1232=DIRECTION('',(0.,0.,-1.));
#1233=DIRECTION('',(-1.,0.,0.));
#1234=DIRECTION('',(0.,0.,1.));
#1235=DIRECTION('',(1.,0.,0.));
#1236=DIRECTION('',(0.,0.,1.));
#1237=DIRECTION('',(1.,0.,0.));
#1238=DIRECTION('',(0.,0.,-1.));
#1239=DIRECTION('',(-1.,0.,0.));
#1240=DIRECTION('',(0.,0.,1.));
#1241=DIRECTION('',(1.,0.,0.));
#1242=DIRECTION('',(0.,0.,1.));
#1243=DIRECTION('',(1.,0.,0.));
#1244=DIRECTION('',(0.,0.,-1.));
#1245=DIRECTION('',(-1.,0.,0.));
#1246=DIRECTION('',(0.,0.,1.));
#1247=DIRECTION('',(1.,0.,0.));
#1248=DIRECTION('',(0.,0.,1.));
#1249=DIRECTION('',(1.,0.,0.));
#1250=DIRECTION('',(0.,0.,-1.));
#1251=DIRECTION('',(-1.,0.,0.));
#1252=DIRECTION('',(0.,0.,1.));
#1253=DIRECTION('',(1.,0.,0.));
#1254=DIRECTION('',(0.,0.,1.));
#1255=DIRECTION('',(1.,0.,0.));
#1256=DIRECTION('',(0.,0.,-1.));
#1257=DIRECTION('',(-1.,0.,0.));
#1258=DIRECTION('',(0.,0.,1.));
#1259=DIRECTION('',(1.,0.,0.));
#1260=DIRECTION('',(0.,0.,1.));
#1261=DIRECTION('',(1.,0.,0.));
#1262=DIRECTION('',(0.,0.,-1.));
#1263=DIRECTION('',(-1.,0.,0.));
#1264=DIRECTION('',(0.,0.,1.));
#1265=DIRECTION('',(1.,0.,0.));
#1266=DIRECTION('',(0.,0.,1.));
#1267=DIRECTION('',(1.,0.,0.));
#1268=DIRECTION('',(0.,0.,-1.));
#1269=DIRECTION('',(-1.,0.,0.));
#1270=DIRECTION('',(0.,0.,1.));
#1271=DIRECTION('',(1.,0.,0.));
#1272=DIRECTION('',(0.,0.,1.));
#1273=DIRECTION('',(1.,0.,0.));
#1274=DIRECTION('',(0.,0.,-1.));
#1275=DIRECTION('',(-1.,0.,0.));
#1276=DIRECTION('',(0.,0.,1.));
#1277=DIRECTION('',(1.,0.,0.));
#1278=DIRECTION('',(0.,0.,1.));
#1279=DIRECTION('',(1.,0.,0.));
#1280=DIRECTION('',(0.,0.,-1.));
#1281=DIRECTION('',(-1.,0.,0.));
#1282=DIRECTION('',(0.,0.,1.));
#1283=DIRECTION('',(1.,0.,0.));
#1284=DIRECTION('',(0.,0.,1.));
#1285=DIRECTION('',(1.,0.,0.));
#1286=DIRECTION('',(0.,0.,-1.));
#1287=DIRECTION('',(-1.,0.,0.));
#1288=DIRECTION('',(0.,0.,1.));
#1289=DIRECTION('',(1.,0.,0.));
#1290=DIRECTION('',(0.,0.,1.));
#1291=DIRECTION('',(1.,0.,0.));
#1292=DIRECTION('',(0.,0.,-1.));
#1293=DIRECTION('',(-1.,0.,0.));
#1294=DIRECTION('',(0.,0.,1.));
#1295=DIRECTION('',(1.,0.,0.));
#1296=DIRECTION('',(0.,0.,1.));
#1297=DIRECTION('',(1.,0.,0.));
#1298=DIRECTION('',(0.,0.,-1.));
#1299=DIRECTION('',(-1.,0.,0.));
#1300=DIRECTION('',(0.,0.,1.));
#1301=DIRECTION('',(1.,0.,0.));
#1302=DIRECTION('',(0.,0.,1.));
#1303=DIRECTION('',(1.,0.,0.));
#1304=DIRECTION('',(0.,0.,-1.));
#1305=DIRECTION('',(-1.,0.,0.));
#1306=DIRECTION('',(0.,0.,1.));
#1307=DIRECTION('',(1.,0.,0.));
#1308=DIRECTION('',(0.,0.,1.));
#1309=DIRECTION('',(1.,0.,0.));
#1310=DIRECTION('',(0.,0.,-1.));
#1311=DIRECTION('',(-1.,0.,0.));
#1312=DIRECTION('',(0.,0.,1.));
#1313=DIRECTION('',(1.,0.,0.));
#1314=DIRECTION('',(0.,0.,1.));
#1315=DIRECTION('',(1.,0.,0.));
#1316=DIRECTION('',(0.,0.,-1.));
#1317=DIRECTION('',(-1.,0.,0.));
#1318=DIRECTION('',(0.,0.,1.));
#1319=DIRECTION('',(1.,0.,0.));
#1320=DIRECTION('',(0.,0.,1.));
#1321=DIRECTION('',(1.,0.,0.));
#1322=DIRECTION('',(0.,0.,-1.));
#1323=DIRECTION('',(-1.,0.,0.));
#1324=DIRECTION('',(0.,0.,1.));
#1325=DIRECTION('',(1.,0.,0.));
#1326=DIRECTION('',(0.,0.,1.));
#1327=DIRECTION('',(1.,0.,0.));
#1328=DIRECTION('',(0.,0.,-1.));
#1329=DIRECTION('',(-1.,0.,0.));
#1330=DIRECTION('',(0.,0.,1.));
#1331=DIRECTION('',(1.,0.,0.));
#1332=DIRECTION('',(0.,0.,1.));
#1333=DIRECTION('',(1.,0.,0.));
#1334=DIRECTION('',(0.,-1.,0.));
#1335=DIRECTION('',(0.,0.,-1.));
#1336=DIRECTION('',(-1.,0.,0.));
#1337=DIRECTION('',(-1.,0.,0.));
#1338=DIRECTION('',(0.,0.,1.));
#1339=DIRECTION('',(1.,0.,0.));
#1340=DIRECTION('',(0.,0.,1.));
#1341=DIRECTION('',(1.,0.,0.));
#1342=CARTESIAN_POINT('',(0.,0.,0.));
#1343=CARTESIAN_POINT('',(-5.38226195276558E-18,0.,0.004));
#1344=CARTESIAN_POINT('',(-5.38226195276558E-18,0.,0.));
#1345=CARTESIAN_POINT('',(0.,0.019,0.));
#1346=CARTESIAN_POINT('',(-1.19279383647211E-17,-0.019,0.));
#1347=CARTESIAN_POINT('',(-1.19279383647211E-17,-0.019,0.004));
#1348=CARTESIAN_POINT('',(-1.19279383647211E-17,-0.019,0.004));
#1349=CARTESIAN_POINT('',(-5.38226195276558E-18,0.,0.004));
#1350=CARTESIAN_POINT('',(0.,0.019,0.004));
#1351=CARTESIAN_POINT('',(0.,0.019,0.004));
#1352=CARTESIAN_POINT('',(0.135,-0.019,0.004));
#1353=CARTESIAN_POINT('',(0.135,-0.019,0.));
#1354=CARTESIAN_POINT('',(0.27,-0.019,0.));
#1355=CARTESIAN_POINT('',(0.27,-0.019,0.004));
#1356=CARTESIAN_POINT('',(0.27,-0.019,0.004));
#1357=CARTESIAN_POINT('',(0.135,-0.019,0.004));
#1358=CARTESIAN_POINT('',(0.27,0.,0.004));
#1359=CARTESIAN_POINT('',(0.27,0.,0.));
#1360=CARTESIAN_POINT('',(0.27,0.019,0.));
#1361=CARTESIAN_POINT('',(0.27,0.019,0.004));
#1362=CARTESIAN_POINT('',(0.27,0.019,0.004));
#1363=CARTESIAN_POINT('',(0.27,0.,0.004));
#1364=CARTESIAN_POINT('',(0.,6.73555739531044E-19,0.004));
#1365=CARTESIAN_POINT('',(0.,6.73555739531044E-19,0.004));
#1366=CARTESIAN_POINT('',(0.011,6.73555739531044E-19,0.004));
#1367=CARTESIAN_POINT('',(0.,6.73555739531044E-19,0.));
#1368=CARTESIAN_POINT('',(0.011,6.73555739531044E-19,0.));
#1369=CARTESIAN_POINT('',(0.,0.015,0.004));
#1370=CARTESIAN_POINT('',(0.,0.015,0.004));
#1371=CARTESIAN_POINT('',(0.0015,0.015,0.004));
#1372=CARTESIAN_POINT('',(0.,0.015,0.));
#1373=CARTESIAN_POINT('',(0.0015,0.015,0.));
#1374=CARTESIAN_POINT('',(-0.015,8.67361737988404E-19,0.004));
#1375=CARTESIAN_POINT('',(-0.015,8.67361737988404E-19,0.004));
#1376=CARTESIAN_POINT('',(-0.0135,8.67361737988404E-19,0.004));
#1377=CARTESIAN_POINT('',(-0.015,8.67361737988404E-19,0.));
#1378=CARTESIAN_POINT('',(-0.0135,8.67361737988404E-19,0.));
#1379=CARTESIAN_POINT('',(-1.7347234759768E-18,-0.015,0.004));
#1380=CARTESIAN_POINT('',(-1.7347234759768E-18,-0.015,0.004));
#1381=CARTESIAN_POINT('',(0.0015,-0.015,0.004));
#1382=CARTESIAN_POINT('',(-1.7347234759768E-18,-0.015,0.));
#1383=CARTESIAN_POINT('',(0.0015,-0.015,0.));
#1384=CARTESIAN_POINT('',(0.015,-2.81892564846231E-18,0.004));
#1385=CARTESIAN_POINT('',(0.015,-2.81892564846231E-18,0.004));
#1386=CARTESIAN_POINT('',(0.0165,-2.81892564846231E-18,0.004));
#1387=CARTESIAN_POINT('',(0.015,-2.81892564846231E-18,0.));
#1388=CARTESIAN_POINT('',(0.0165,-2.81892564846231E-18,0.));
#1389=CARTESIAN_POINT('',(0.03,0.015,0.004));
#1390=CARTESIAN_POINT('',(0.03,0.015,0.004));
#1391=CARTESIAN_POINT('',(0.0315,0.015,0.004));
#1392=CARTESIAN_POINT('',(0.03,0.015,0.));
#1393=CARTESIAN_POINT('',(0.0315,0.015,0.));
#1394=CARTESIAN_POINT('',(0.03,6.73555739531044E-19,0.004));
#1395=CARTESIAN_POINT('',(0.03,6.73555739531044E-19,0.004));
#1396=CARTESIAN_POINT('',(0.041,6.73555739531044E-19,0.004));
#1397=CARTESIAN_POINT('',(0.03,6.73555739531044E-19,0.));
#1398=CARTESIAN_POINT('',(0.041,6.73555739531044E-19,0.));
#1399=CARTESIAN_POINT('',(0.03,-0.015,0.004));
#1400=CARTESIAN_POINT('',(0.03,-0.015,0.004));
#1401=CARTESIAN_POINT('',(0.0315,-0.015,0.004));
#1402=CARTESIAN_POINT('',(0.03,-0.015,0.));
#1403=CARTESIAN_POINT('',(0.0315,-0.015,0.));
#1404=CARTESIAN_POINT('',(0.045,-2.81892564846231E-18,0.004));
#1405=CARTESIAN_POINT('',(0.045,-2.81892564846231E-18,0.004));
#1406=CARTESIAN_POINT('',(0.0465,-2.81892564846231E-18,0.004));
#1407=CARTESIAN_POINT('',(0.045,-2.81892564846231E-18,0.));
#1408=CARTESIAN_POINT('',(0.0465,-2.81892564846231E-18,0.));
#1409=CARTESIAN_POINT('',(0.06,0.015,0.004));
#1410=CARTESIAN_POINT('',(0.06,0.015,0.004));
#1411=CARTESIAN_POINT('',(0.0615,0.015,0.004));
#1412=CARTESIAN_POINT('',(0.06,0.015,0.));
#1413=CARTESIAN_POINT('',(0.0615,0.015,0.));
#1414=CARTESIAN_POINT('',(0.06,6.73555739531044E-19,0.004));
#1415=CARTESIAN_POINT('',(0.06,6.73555739531044E-19,0.004));
#1416=CARTESIAN_POINT('',(0.071,6.73555739531044E-19,0.004));
#1417=CARTESIAN_POINT('',(0.06,6.73555739531044E-19,0.));
#1418=CARTESIAN_POINT('',(0.071,6.73555739531044E-19,0.));
#1419=CARTESIAN_POINT('',(0.06,-0.015,0.004));
#1420=CARTESIAN_POINT('',(0.06,-0.015,0.004));
#1421=CARTESIAN_POINT('',(0.0615,-0.015,0.004));
#1422=CARTESIAN_POINT('',(0.06,-0.015,0.));
#1423=CARTESIAN_POINT('',(0.0615,-0.015,0.));
#1424=CARTESIAN_POINT('',(0.075,-2.81892564846231E-18,0.004));
#1425=CARTESIAN_POINT('',(0.075,-2.81892564846231E-18,0.004));
#1426=CARTESIAN_POINT('',(0.0765,-2.81892564846231E-18,0.004));
#1427=CARTESIAN_POINT('',(0.075,-2.81892564846231E-18,0.));
#1428=CARTESIAN_POINT('',(0.0765,-2.81892564846231E-18,0.));
#1429=CARTESIAN_POINT('',(0.09,0.015,0.004));
#1430=CARTESIAN_POINT('',(0.09,0.015,0.004));
#1431=CARTESIAN_POINT('',(0.0915,0.015,0.004));
#1432=CARTESIAN_POINT('',(0.09,0.015,0.));
#1433=CARTESIAN_POINT('',(0.0915,0.015,0.));
#1434=CARTESIAN_POINT('',(0.09,6.73555739531044E-19,0.004));
#1435=CARTESIAN_POINT('',(0.09,6.73555739531044E-19,0.004));
#1436=CARTESIAN_POINT('',(0.101,6.73555739531044E-19,0.004));
#1437=CARTESIAN_POINT('',(0.09,6.73555739531044E-19,0.));
#1438=CARTESIAN_POINT('',(0.101,6.73555739531044E-19,0.));
#1439=CARTESIAN_POINT('',(0.09,-0.015,0.004));
#1440=CARTESIAN_POINT('',(0.09,-0.015,0.004));
#1441=CARTESIAN_POINT('',(0.0915,-0.015,0.004));
#1442=CARTESIAN_POINT('',(0.09,-0.015,0.));
#1443=CARTESIAN_POINT('',(0.0915,-0.015,0.));
#1444=CARTESIAN_POINT('',(0.105,-2.81892564846231E-18,0.004));
#1445=CARTESIAN_POINT('',(0.105,-2.81892564846231E-18,0.004));
#1446=CARTESIAN_POINT('',(0.1065,-2.81892564846231E-18,0.004));
#1447=CARTESIAN_POINT('',(0.105,-2.81892564846231E-18,0.));
#1448=CARTESIAN_POINT('',(0.1065,-2.81892564846231E-18,0.));
#1449=CARTESIAN_POINT('',(0.12,0.015,0.004));
#1450=CARTESIAN_POINT('',(0.12,0.015,0.004));
#1451=CARTESIAN_POINT('',(0.1215,0.015,0.004));
#1452=CARTESIAN_POINT('',(0.12,0.015,0.));
#1453=CARTESIAN_POINT('',(0.1215,0.015,0.));
#1454=CARTESIAN_POINT('',(0.12,6.73555739531044E-19,0.004));
#1455=CARTESIAN_POINT('',(0.12,6.73555739531044E-19,0.004));
#1456=CARTESIAN_POINT('',(0.131,6.73555739531044E-19,0.004));
#1457=CARTESIAN_POINT('',(0.12,6.73555739531044E-19,0.));
#1458=CARTESIAN_POINT('',(0.131,6.73555739531044E-19,0.));
#1459=CARTESIAN_POINT('',(0.12,-0.015,0.004));
#1460=CARTESIAN_POINT('',(0.12,-0.015,0.004));
#1461=CARTESIAN_POINT('',(0.1215,-0.015,0.004));
#1462=CARTESIAN_POINT('',(0.12,-0.015,0.));
#1463=CARTESIAN_POINT('',(0.1215,-0.015,0.));
#1464=CARTESIAN_POINT('',(0.135,-2.81892564846231E-18,0.004));
#1465=CARTESIAN_POINT('',(0.135,-2.81892564846231E-18,0.004));
#1466=CARTESIAN_POINT('',(0.1365,-2.81892564846231E-18,0.004));
#1467=CARTESIAN_POINT('',(0.135,-2.81892564846231E-18,0.));
#1468=CARTESIAN_POINT('',(0.1365,-2.81892564846231E-18,0.));
#1469=CARTESIAN_POINT('',(0.15,0.015,0.004));
#1470=CARTESIAN_POINT('',(0.15,0.015,0.004));
#1471=CARTESIAN_POINT('',(0.1515,0.015,0.004));
#1472=CARTESIAN_POINT('',(0.15,0.015,0.));
#1473=CARTESIAN_POINT('',(0.1515,0.015,0.));
#1474=CARTESIAN_POINT('',(0.15,6.73555739531044E-19,0.004));
#1475=CARTESIAN_POINT('',(0.15,6.73555739531044E-19,0.004));
#1476=CARTESIAN_POINT('',(0.161,6.73555739531044E-19,0.004));
#1477=CARTESIAN_POINT('',(0.15,6.73555739531044E-19,0.));
#1478=CARTESIAN_POINT('',(0.161,6.73555739531044E-19,0.));
#1479=CARTESIAN_POINT('',(0.15,-0.015,0.004));
#1480=CARTESIAN_POINT('',(0.15,-0.015,0.004));
#1481=CARTESIAN_POINT('',(0.1515,-0.015,0.004));
#1482=CARTESIAN_POINT('',(0.15,-0.015,0.));
#1483=CARTESIAN_POINT('',(0.1515,-0.015,0.));
#1484=CARTESIAN_POINT('',(0.165,-2.81892564846231E-18,0.004));
#1485=CARTESIAN_POINT('',(0.165,-2.81892564846231E-18,0.004));
#1486=CARTESIAN_POINT('',(0.1665,-2.81892564846231E-18,0.004));
#1487=CARTESIAN_POINT('',(0.165,-2.81892564846231E-18,0.));
#1488=CARTESIAN_POINT('',(0.1665,-2.81892564846231E-18,0.));
#1489=CARTESIAN_POINT('',(0.18,0.015,0.004));
#1490=CARTESIAN_POINT('',(0.18,0.015,0.004));
#1491=CARTESIAN_POINT('',(0.1815,0.015,0.004));
#1492=CARTESIAN_POINT('',(0.18,0.015,0.));
#1493=CARTESIAN_POINT('',(0.1815,0.015,0.));
#1494=CARTESIAN_POINT('',(0.18,6.73555739531044E-19,0.004));
#1495=CARTESIAN_POINT('',(0.18,6.73555739531044E-19,0.004));
#1496=CARTESIAN_POINT('',(0.191,6.73555739531044E-19,0.004));
#1497=CARTESIAN_POINT('',(0.18,6.73555739531044E-19,0.));
#1498=CARTESIAN_POINT('',(0.191,6.73555739531044E-19,0.));
#1499=CARTESIAN_POINT('',(0.18,-0.015,0.004));
#1500=CARTESIAN_POINT('',(0.18,-0.015,0.004));
#1501=CARTESIAN_POINT('',(0.1815,-0.015,0.004));
#1502=CARTESIAN_POINT('',(0.18,-0.015,0.));
#1503=CARTESIAN_POINT('',(0.1815,-0.015,0.));
#1504=CARTESIAN_POINT('',(0.195,-2.81892564846231E-18,0.004));
#1505=CARTESIAN_POINT('',(0.195,-2.81892564846231E-18,0.004));
#1506=CARTESIAN_POINT('',(0.1965,-2.81892564846231E-18,0.004));
#1507=CARTESIAN_POINT('',(0.195,-2.81892564846231E-18,0.));
#1508=CARTESIAN_POINT('',(0.1965,-2.81892564846231E-18,0.));
#1509=CARTESIAN_POINT('',(0.21,0.015,0.004));
#1510=CARTESIAN_POINT('',(0.21,0.015,0.004));
#1511=CARTESIAN_POINT('',(0.2115,0.015,0.004));
#1512=CARTESIAN_POINT('',(0.21,0.015,0.));
#1513=CARTESIAN_POINT('',(0.2115,0.015,0.));
#1514=CARTESIAN_POINT('',(0.21,6.73555739531044E-19,0.004));
#1515=CARTESIAN_POINT('',(0.21,6.73555739531044E-19,0.004));
#1516=CARTESIAN_POINT('',(0.221,6.73555739531044E-19,0.004));
#1517=CARTESIAN_POINT('',(0.21,6.73555739531044E-19,0.));
#1518=CARTESIAN_POINT('',(0.221,6.73555739531044E-19,0.));
#1519=CARTESIAN_POINT('',(0.21,-0.015,0.004));
#1520=CARTESIAN_POINT('',(0.21,-0.015,0.004));
#1521=CARTESIAN_POINT('',(0.2115,-0.015,0.004));
#1522=CARTESIAN_POINT('',(0.21,-0.015,0.));
#1523=CARTESIAN_POINT('',(0.2115,-0.015,0.));
#1524=CARTESIAN_POINT('',(0.225,-2.81892564846231E-18,0.004));
#1525=CARTESIAN_POINT('',(0.225,-2.81892564846231E-18,0.004));
#1526=CARTESIAN_POINT('',(0.2265,-2.81892564846231E-18,0.004));
#1527=CARTESIAN_POINT('',(0.225,-2.81892564846231E-18,0.));
#1528=CARTESIAN_POINT('',(0.2265,-2.81892564846231E-18,0.));
#1529=CARTESIAN_POINT('',(0.24,0.015,0.004));
#1530=CARTESIAN_POINT('',(0.24,0.015,0.004));
#1531=CARTESIAN_POINT('',(0.2415,0.015,0.004));
#1532=CARTESIAN_POINT('',(0.24,0.015,0.));
#1533=CARTESIAN_POINT('',(0.2415,0.015,0.));
#1534=CARTESIAN_POINT('',(0.24,6.73555739531044E-19,0.004));
#1535=CARTESIAN_POINT('',(0.24,6.73555739531044E-19,0.004));
#1536=CARTESIAN_POINT('',(0.251,6.73555739531044E-19,0.004));
#1537=CARTESIAN_POINT('',(0.24,6.73555739531044E-19,0.));
#1538=CARTESIAN_POINT('',(0.251,6.73555739531044E-19,0.));
#1539=CARTESIAN_POINT('',(0.24,-0.015,0.004));
#1540=CARTESIAN_POINT('',(0.24,-0.015,0.004));
#1541=CARTESIAN_POINT('',(0.2415,-0.015,0.004));
#1542=CARTESIAN_POINT('',(0.24,-0.015,0.));
#1543=CARTESIAN_POINT('',(0.2415,-0.015,0.));
#1544=CARTESIAN_POINT('',(0.255,-2.81892564846231E-18,0.004));
#1545=CARTESIAN_POINT('',(0.255,-2.81892564846231E-18,0.004));
#1546=CARTESIAN_POINT('',(0.2565,-2.81892564846231E-18,0.004));
#1547=CARTESIAN_POINT('',(0.255,-2.81892564846231E-18,0.));
#1548=CARTESIAN_POINT('',(0.2565,-2.81892564846231E-18,0.));
#1549=CARTESIAN_POINT('',(0.27,0.015,0.004));
#1550=CARTESIAN_POINT('',(0.27,0.015,0.004));
#1551=CARTESIAN_POINT('',(0.2715,0.015,0.004));
#1552=CARTESIAN_POINT('',(0.27,0.015,0.));
#1553=CARTESIAN_POINT('',(0.2715,0.015,0.));
#1554=CARTESIAN_POINT('',(0.27,6.73555739531044E-19,0.004));
#1555=CARTESIAN_POINT('',(0.27,6.73555739531044E-19,0.004));
#1556=CARTESIAN_POINT('',(0.281,6.73555739531044E-19,0.004));
#1557=CARTESIAN_POINT('',(0.27,6.73555739531044E-19,0.));
#1558=CARTESIAN_POINT('',(0.281,6.73555739531044E-19,0.));
#1559=CARTESIAN_POINT('',(0.27,-0.015,0.004));
#1560=CARTESIAN_POINT('',(0.27,-0.015,0.004));
#1561=CARTESIAN_POINT('',(0.2715,-0.015,0.004));
#1562=CARTESIAN_POINT('',(0.27,-0.015,0.));
#1563=CARTESIAN_POINT('',(0.2715,-0.015,0.));
#1564=CARTESIAN_POINT('',(0.285,-2.81892564846231E-18,0.004));
#1565=CARTESIAN_POINT('',(0.285,-2.81892564846231E-18,0.004));
#1566=CARTESIAN_POINT('',(0.2865,-2.81892564846231E-18,0.004));
#1567=CARTESIAN_POINT('',(0.285,-2.81892564846231E-18,0.));
#1568=CARTESIAN_POINT('',(0.2865,-2.81892564846231E-18,0.));
#1569=CARTESIAN_POINT('',(0.135,0.019,0.004));
#1570=CARTESIAN_POINT('',(0.135,0.019,0.));
#1571=CARTESIAN_POINT('',(0.135,0.019,0.004));
#1572=CARTESIAN_POINT('',(0.135,0.,0.004));
#1573=CARTESIAN_POINT('',(0.135,0.,0.));
#1574=MECHANICAL_DESIGN_GEOMETRIC_PRESENTATION_REPRESENTATION('',(#921),
#1575);
#1575=(
GEOMETRIC_REPRESENTATION_CONTEXT(3)
GLOBAL_UNCERTAINTY_ASSIGNED_CONTEXT((#1576))
GLOBAL_UNIT_ASSIGNED_CONTEXT((#1579,#1578,#1577))
REPRESENTATION_CONTEXT('Part 1','TOP_LEVEL_ASSEMBLY_PART')
);
#1576=UNCERTAINTY_MEASURE_WITH_UNIT(LENGTH_MEASURE(1.E-8),#1579,
'DISTANCE_ACCURACY_VALUE','Maximum Tolerance applied to model');
#1577=(
NAMED_UNIT(*)
SI_UNIT($,.STERADIAN.)
SOLID_ANGLE_UNIT()
);
#1578=(
NAMED_UNIT(*)
PLANE_ANGLE_UNIT()
SI_UNIT($,.RADIAN.)
);
#1579=(
LENGTH_UNIT()
NAMED_UNIT(*)
SI_UNIT($,.METRE.)
);
#1580=PRODUCT_DEFINITION_SHAPE('','',#1581);
#1581=PRODUCT_DEFINITION('','',#1583,#1582);
#1582=PRODUCT_DEFINITION_CONTEXT('',#1589,'design');
#1583=PRODUCT_DEFINITION_FORMATION_WITH_SPECIFIED_SOURCE('','',#1585,
 .NOT_KNOWN.);
#1584=PRODUCT_RELATED_PRODUCT_CATEGORY('','',(#1585));
#1585=PRODUCT('Part 1','Part 1','Part 1',(#1587));
#1586=PRODUCT_CATEGORY('','');
#1587=PRODUCT_CONTEXT('',#1589,'mechanical');
#1588=APPLICATION_PROTOCOL_DEFINITION('international standard',
'ap242_managed_model_based_3d_engineering',2011,#1589);
#1589=APPLICATION_CONTEXT('managed model based 3d engineering');
ENDSEC;
END-ISO-10303-21;
